<?xml version="1.0" standalone="no"?>
<!DOCTYPE svg PUBLIC "-//W3C//DTD SVG 20010904//EN"
 "http://www.w3.org/TR/2001/REC-SVG-20010904/DTD/svg10.dtd">
<svg version="1.0" xmlns="http://www.w3.org/2000/svg"
 width="700.000000pt" height="700.000000pt" viewBox="0 0 700.000000 700.000000"
 preserveAspectRatio="xMidYMid meet">
<metadata>
Created by potrace 1.14, written by Peter Selinger 2001-2017
</metadata>
<g transform="translate(0.000000,700.000000) scale(0.100000,-0.100000)"
fill="#000000" stroke="none">
<path d="M3278 6996 c-1 -2 -42 -6 -89 -10 -47 -4 -95 -8 -105 -10 -10 -2 -45
-7 -78 -11 -67 -8 -105 -14 -126 -20 -8 -3 -32 -7 -54 -11 -55 -8 -62 -10
-156 -34 -47 -12 -95 -24 -107 -26 -39 -7 -261 -84 -367 -126 -111 -44 -353
-161 -431 -208 -27 -17 -58 -33 -67 -36 -10 -4 -18 -10 -18 -15 0 -5 -5 -9
-11 -9 -8 0 -185 -115 -234 -152 -513 -390 -894 -861 -1125 -1388 -23 -52 -46
-104 -51 -115 -72 -157 -186 -560 -213 -760 -3 -17 -7 -46 -11 -66 -6 -40 -10
-75 -22 -199 -15 -162 -8 -592 12 -711 2 -13 6 -46 9 -74 27 -232 102 -521
207 -790 433 -1111 1424 -1937 2589 -2160 96 -18 123 -23 179 -31 25 -3 57 -8
71 -10 163 -25 682 -25 842 1 13 2 46 7 73 10 74 11 87 13 120 19 17 4 46 9
65 12 19 3 73 15 120 26 1009 236 1866 915 2333 1848 121 243 234 561 283 795
16 75 54 300 60 350 4 33 9 76 11 95 8 69 10 517 3 595 -12 126 -20 202 -25
227 -3 13 -8 43 -11 68 -3 25 -9 61 -14 80 -5 19 -12 51 -15 70 -20 117 -116
444 -160 545 -7 17 -32 75 -55 130 -239 575 -707 1138 -1251 1506 -70 47 -69
47 -174 110 -344 209 -853 394 -1225 444 -19 3 -46 7 -60 10 -13 2 -54 7 -90
11 -36 3 -76 8 -90 11 -27 5 -536 14 -542 9z m435 -661 c53 -3 107 -8 120 -10
12 -2 40 -6 62 -9 22 -4 51 -8 65 -11 14 -2 43 -7 64 -10 227 -32 591 -164
851 -308 320 -177 611 -423 846 -717 129 -160 289 -414 347 -551 11 -24 29
-66 42 -94 56 -123 138 -370 156 -470 3 -22 10 -47 14 -55 4 -8 11 -39 14 -69
4 -29 8 -56 10 -60 2 -3 7 -31 10 -62 4 -31 8 -66 11 -77 21 -114 22 -550 0
-663 -3 -12 -7 -45 -10 -73 -3 -28 -10 -69 -15 -91 -5 -22 -12 -56 -15 -75
-11 -65 -53 -224 -85 -320 -232 -701 -739 -1294 -1397 -1636 -240 -125 -541
-228 -783 -269 -19 -3 -42 -8 -50 -10 -8 -2 -42 -7 -75 -11 -33 -3 -68 -8 -79
-10 -116 -22 -460 -21 -646 2 -215 26 -550 107 -675 164 -11 5 -65 28 -120 51
-660 283 -1204 827 -1484 1484 -23 55 -47 109 -52 120 -14 30 -79 234 -89 280
-30 133 -51 234 -56 265 -19 130 -24 165 -30 247 -11 158 -5 459 11 538 2 11
7 43 10 70 23 204 95 464 193 700 250 603 719 1115 1302 1422 226 119 544 233
750 269 25 4 47 8 50 9 39 8 84 16 125 21 28 3 59 8 69 10 11 2 72 6 135 10
64 4 117 7 118 8 4 4 185 -2 286 -9z"/>
<path d="M3425 4262 c-80 -8 -179 -37 -260 -77 -188 -92 -326 -248 -389 -442
-33 -100 -43 -168 -40 -270 6 -192 84 -372 222 -511 172 -174 410 -253 657
-218 122 17 245 70 350 149 321 243 395 708 165 1041 -42 63 -134 155 -193
195 -56 38 -188 101 -226 107 -14 3 -43 9 -63 15 -38 10 -171 17 -223 11z"/>
</g>
</svg>
