<?xml version="1.0" encoding="utf-8"?>
<!-- Generator: Adobe Illustrator 27.2.0, SVG Export Plug-In . SVG Version: 6.00 Build 0)  -->
<svg version="1.1" id="Ebene_1" xmlns="http://www.w3.org/2000/svg" xmlns:xlink="http://www.w3.org/1999/xlink" x="0px" y="0px"
	 viewBox="0 0 1600 1600" style="enable-background:new 0 0 1600 1600;" xml:space="preserve">
<style type="text/css">
	.st0{fill:#EBCF87;}
</style>
<g>
	<g>
		<path class="st0" d="M28.2,793.6L28.2,793.6c-1.6,0-2.7-1.4-2.4-3l9.4-43c0.2-1.1,1.2-1.8,2.3-1.8h0.4c1.1,0,2,0.8,2.3,1.8l9.4,43
			c0.3,1.5-0.8,3-2.4,3l0,0c-1.2,0-2.2-0.8-2.4-1.9l-2.1-10.1c-0.2-1.1-1.2-1.9-2.4-1.9h-5.2c-1.2,0-2.2,0.8-2.4,1.9l-2.1,10.1
			C30.3,792.8,29.3,793.6,28.2,793.6z M37.9,758.8h-0.4L34.7,772c-0.3,1.5,0.8,2.9,2.4,2.9h1.1c1.5,0,2.7-1.4,2.4-2.9L37.9,758.8z"
			/>
	</g>
	<g>
		<path class="st0" d="M72.1,790.1c-2,2.3-4.2,3.4-6.9,3.4c-2.6,0-4.9-1.1-6.9-3.4c-3.5-4.1-5.2-10.5-5.2-19.1
			c0-10.1,1.9-17.4,5.6-21.8c1.9-2.3,4.2-3.4,6.7-3.4c2.6,0,4.7,0.9,6.3,2.7c2.5,2.9,3.9,6.8,4.1,11.5c0.1,1.3-1,2.4-2.3,2.4l0,0
			c-1.2,0-2.2-1-2.3-2.2c-0.3-4-1.1-6.8-2.4-8.4c-0.8-1-2-1.5-3.3-1.5c-1.3,0-2.4,0.6-3.3,1.7c-2.8,3.3-4.2,9.4-4.2,18.4
			c0,7.8,1.2,13.2,3.5,15.9c1.1,1.3,2.4,2,3.8,2c1.3,0,2.4-0.7,3.5-2c1.2-1.4,1.9-4.4,2.2-9c0.1-1.3,1.1-2.3,2.4-2.3h0
			c1.4,0,2.6,1.2,2.4,2.7C75.3,783.7,74.1,787.8,72.1,790.1z"/>
	</g>
</g>
<g>
	<g>
		<path class="st0" d="M967.8,67.5v33.9c0,1.1-0.9,1.9-1.9,1.9h-0.3c-1.1,0-1.9-0.9-1.9-1.9V59.1c0-2,1.6-3.6,3.6-3.6h0
			c1.8,0,3.3,1.3,3.5,3.1l4,28h0.4l4-28c0.2-1.8,1.8-3.1,3.5-3.1l0,0c2,0,3.6,1.6,3.6,3.6v42.3c0,1.1-0.9,1.9-1.9,1.9h-0.3
			c-1.1,0-1.9-0.9-1.9-1.9V67.5h-0.4l-4.8,34.1c-0.1,0.9-0.9,1.7-1.9,1.7l0,0c-1,0-1.8-0.7-1.9-1.7l-4.8-34.1H967.8z"/>
	</g>
	<g>
		<path class="st0" d="M1009.4,99.9c-2,2.3-4.2,3.4-6.9,3.4c-2.6,0-4.9-1.1-6.9-3.4c-3.5-4.1-5.2-10.5-5.2-19.1
			c0-10.1,1.9-17.4,5.6-21.8c1.9-2.3,4.2-3.4,6.7-3.4c2.6,0,4.7,0.9,6.3,2.7c2.5,2.9,3.9,6.8,4.1,11.5c0.1,1.3-1,2.4-2.3,2.4l0,0
			c-1.2,0-2.2-1-2.3-2.2c-0.3-4-1.1-6.8-2.4-8.4c-0.8-1-2-1.5-3.3-1.5c-1.3,0-2.4,0.6-3.3,1.7c-2.8,3.3-4.2,9.4-4.2,18.4
			c0,7.8,1.2,13.2,3.5,15.9c1.1,1.3,2.4,2,3.8,2c1.3,0,2.4-0.7,3.5-2c1.2-1.4,1.9-4.4,2.2-8.9c0.1-1.3,1.1-2.3,2.5-2.3l0,0
			c1.4,0,2.6,1.2,2.5,2.7C1012.6,93.5,1011.3,97.6,1009.4,99.9z"/>
	</g>
</g>
<g>
	<path class="st0" d="M1543.7,752.8c3.1,3.8,4.7,10.4,4.7,19.8c0,9.2-1.4,15.6-4.3,19c-2.7,3.3-6.1,4.9-10.3,4.9h-1.9
		c-2.8,0-5-2.1-5-4.8v-38.6c0-2.6,2.2-4.8,5-4.8h1.9C1537.9,748.4,1541.2,749.9,1543.7,752.8z M1533.7,791.8c2.4,0,4.6-1.2,6.5-3.5
		c2-2.5,3-7.7,3-15.8c0-8.2-1.1-13.7-3.2-16.3c-1.8-2.1-3.9-3.2-6.3-3.2l0,0c-1.2,0-2.2,0.9-2.2,2.1v34.5
		C1531.5,790.9,1532.5,791.8,1533.7,791.8L1533.7,791.8z"/>
	<path class="st0" d="M1570.5,792.9c-2,2.3-4.2,3.4-6.9,3.4c-2.6,0-4.9-1.1-6.9-3.4c-3.5-4.1-5.2-10.5-5.2-19.1
		c0-10.1,1.9-17.4,5.6-21.8c1.9-2.3,4.2-3.4,6.7-3.4c2.6,0,4.7,0.9,6.3,2.7c2.5,2.9,3.9,6.8,4.1,11.5c0.1,1.3-1,2.4-2.3,2.4l0,0
		c-1.2,0-2.2-1-2.3-2.2c-0.3-4-1.1-6.8-2.4-8.4c-0.8-1-2-1.5-3.3-1.5c-1.3,0-2.4,0.6-3.3,1.7c-2.8,3.3-4.2,9.4-4.2,18.4
		c0,7.8,1.2,13.2,3.5,15.9c1.1,1.3,2.4,2,3.8,2c1.3,0,2.4-0.7,3.5-2c1.2-1.4,1.9-4.4,2.2-8.9c0.1-1.3,1.1-2.3,2.5-2.3l0,0
		c1.4,0,2.6,1.2,2.5,2.7C1573.7,786.5,1572.4,790.6,1570.5,792.9z"/>
</g>
<g>
	<path class="st0" d="M596.6,1498.7v43.5c0,1.3,1,2.3,2.3,2.3l0,0c1.3,0,2.3-1,2.3-2.3v-43.5c0-1.3-1-2.3-2.3-2.3l0,0
		C597.7,1496.3,596.6,1497.4,596.6,1498.7z"/>
	<path class="st0" d="M625.2,1540.9c-2,2.3-4.2,3.4-6.9,3.4c-2.6,0-4.9-1.1-6.9-3.4c-3.5-4.1-5.2-10.5-5.2-19.1
		c0-10.1,1.9-17.4,5.6-21.8c1.9-2.3,4.2-3.4,6.7-3.4c2.6,0,4.7,0.9,6.3,2.7c2.5,2.9,3.9,6.8,4.1,11.5c0.1,1.3-1,2.4-2.3,2.4l0,0
		c-1.2,0-2.2-1-2.3-2.2c-0.3-4-1.1-6.8-2.4-8.4c-0.8-1-2-1.5-3.3-1.5c-1.3,0-2.4,0.6-3.3,1.7c-2.8,3.3-4.2,9.4-4.2,18.4
		c0,7.8,1.2,13.2,3.5,15.9c1.1,1.3,2.4,2,3.8,2c1.3,0,2.4-0.7,3.5-2c1.2-1.4,1.9-4.4,2.2-8.9c0.1-1.3,1.1-2.3,2.5-2.3l0,0
		c1.4,0,2.6,1.2,2.5,2.7C628.4,1534.5,627.1,1538.6,625.2,1540.9z"/>
</g>
<g>
	<path class="st0" d="M1507.8,797.3h-24.6c-0.8,0-1.4-0.6-1.4-1.4c0-0.8,0.6-1.4,1.4-1.4h24.6c0.8,0,1.4,0.6,1.4,1.4
		C1509.2,796.7,1508.6,797.3,1507.8,797.3z"/>
</g>
<g>
	<path class="st0" d="M643.7,1494.3c-0.1,0-0.2,0-0.3,0c-0.8-0.2-1.3-0.9-1.1-1.7l4.7-22c0.2-0.8,0.9-1.3,1.7-1.1
		c0.8,0.2,1.3,0.9,1.1,1.7l-4.7,22C644.9,1493.8,644.3,1494.3,643.7,1494.3z"/>
</g>
<g>
	<g>
		<g>
			<line class="st0" x1="204" y1="796" x2="93.2" y2="796"/>
			<path class="st0" d="M204,797.2H93.2c-0.6,0-1.1-0.5-1.1-1.1c0-0.6,0.5-1.2,1.1-1.2H204c0.6,0,1.2,0.5,1.2,1.2
				C205.1,796.6,204.6,797.2,204,797.2z"/>
		</g>
		<g>
			<line class="st0" x1="93.2" y1="796" x2="119.2" y2="770"/>
			<path class="st0" d="M93.2,797.2c-0.3,0-0.6-0.1-0.8-0.3c-0.4-0.4-0.4-1.2,0-1.6l26-26c0.4-0.4,1.2-0.4,1.6,0
				c0.4,0.4,0.4,1.2,0,1.6l-26,26C93.8,797,93.5,797.2,93.2,797.2z"/>
		</g>
		<g>
			<line class="st0" x1="93.2" y1="796" x2="119.2" y2="822"/>
			<path class="st0" d="M119.2,823.1c-0.3,0-0.6-0.1-0.8-0.3l-26-26c-0.4-0.4-0.4-1.2,0-1.6c0.4-0.4,1.2-0.4,1.6,0l26,26
				c0.4,0.4,0.4,1.2,0,1.6C119.8,823,119.5,823.1,119.2,823.1z"/>
		</g>
	</g>
	<g>
		<g>
			<line class="st0" x1="919.9" y1="219.2" x2="943.4" y2="111"/>
			<path class="st0" d="M919.9,220.3c-0.1,0-0.2,0-0.2,0c-0.6-0.1-1-0.7-0.9-1.4l23.5-108.2c0.1-0.6,0.7-1,1.4-0.9
				c0.6,0.1,1,0.7,0.9,1.4L921,219.4C920.9,220,920.4,220.3,919.9,220.3z"/>
		</g>
		<g>
			<line class="st0" x1="943.4" y1="111" x2="963.3" y2="141.9"/>
			<path class="st0" d="M963.3,143c-0.4,0-0.7-0.2-1-0.5l-19.9-30.9c-0.3-0.5-0.2-1.2,0.3-1.6c0.5-0.3,1.2-0.2,1.6,0.3l19.9,30.9
				c0.3,0.5,0.2,1.2-0.3,1.6C963.7,143,963.5,143,963.3,143z"/>
		</g>
		<g>
			<line class="st0" x1="943.4" y1="111" x2="912.5" y2="130.9"/>
			<path class="st0" d="M912.5,132c-0.4,0-0.7-0.2-1-0.5c-0.3-0.5-0.2-1.2,0.3-1.6l30.9-19.9c0.5-0.3,1.2-0.2,1.6,0.3
				c0.3,0.5,0.2,1.2-0.3,1.6l-30.9,19.9C912.9,131.9,912.7,132,912.5,132z"/>
		</g>
	</g>
	<g>
		<g>
			<g>
				<path class="st0" d="M752.1,384.9c-14.2,0-25.8-11.6-25.8-25.8c0-14.2,11.6-25.8,25.8-25.8c14.2,0,25.8,11.6,25.8,25.8
					C777.8,373.4,766.3,384.9,752.1,384.9z M752.1,338c-11.7,0-21.1,9.5-21.1,21.1c0,11.7,9.5,21.1,21.1,21.1
					c11.7,0,21.1-9.5,21.1-21.1C773.2,347.5,763.7,338,752.1,338z"/>
			</g>
			<g>
				<path class="st0" d="M755.7,359.1c0,2-1.6,3.6-3.6,3.6s-3.6-1.6-3.6-3.6s1.6-3.6,3.6-3.6S755.7,357.1,755.7,359.1z"/>
				<path class="st0" d="M752.1,365.1c-3.3,0-5.9-2.7-5.9-5.9c0-3.3,2.7-5.9,5.9-5.9c3.3,0,5.9,2.7,5.9,5.9
					C758,362.4,755.3,365.1,752.1,365.1z M752.1,357.9c-0.7,0-1.3,0.6-1.3,1.3c0,0.7,0.6,1.3,1.3,1.3c0.7,0,1.3-0.6,1.3-1.3
					C753.3,358.4,752.8,357.9,752.1,357.9z"/>
			</g>
		</g>
		<g>
			<path class="st0" d="M908.1,1254.6c-2.2,0-4.4-0.3-6.6-0.9c-1-0.3-1.7-1.2-1.7-2.2s0.7-2,1.7-2.2c9.3-2.4,15.7-10.8,15.7-20.4
				c0-9.6-6.5-18-15.7-20.4c-1-0.3-1.7-1.2-1.7-2.2c0-1.1,0.7-2,1.7-2.2c2.2-0.6,4.4-0.9,6.6-0.9c14.2,0,25.8,11.6,25.8,25.8
				C933.9,1243.1,922.3,1254.6,908.1,1254.6z M911.1,1207.9c6.6,4.7,10.7,12.4,10.7,20.9c0,8.5-4.1,16.2-10.7,20.9
				c10.2-1.5,18.1-10.3,18.1-20.9S921.4,1209.4,911.1,1207.9z"/>
		</g>
		<g>
			<g>
				<path class="st0" d="M987.3,390.2c-7.3,0-13.3-6-13.3-13.3c0-7.3,6-13.3,13.3-13.3s13.3,6,13.3,13.3
					C1000.6,384.2,994.7,390.2,987.3,390.2z M987.3,368.2c-4.8,0-8.6,3.9-8.6,8.6c0,4.8,3.9,8.6,8.6,8.6c4.8,0,8.6-3.9,8.6-8.6
					C996,372.1,992.1,368.2,987.3,368.2z"/>
			</g>
			<g>
				<path class="st0" d="M987.3,414.2c-1.3,0-2.3-1-2.3-2.3v-24c0-1.3,1-2.3,2.3-2.3s2.3,1,2.3,2.3v24
					C989.7,413.1,988.6,414.2,987.3,414.2z"/>
			</g>
			<g>
				<path class="st0" d="M996.1,404.7h-17.5c-1.3,0-2.3-1-2.3-2.3c0-1.3,1-2.3,2.3-2.3h17.5c1.3,0,2.3,1,2.3,2.3
					C998.4,403.7,997.4,404.7,996.1,404.7z"/>
			</g>
		</g>
		<g>
			<g>
				<g>
					<path class="st0" d="M488.9,490.8c-7.3,0-13.3-6-13.3-13.3c0-7.3,6-13.3,13.3-13.3c7.3,0,13.3,6,13.3,13.3
						C502.2,484.8,496.2,490.8,488.9,490.8z M488.9,468.9c-4.8,0-8.6,3.9-8.6,8.6c0,4.8,3.9,8.6,8.6,8.6c4.8,0,8.6-3.9,8.6-8.6
						C497.5,472.7,493.6,468.9,488.9,468.9z"/>
				</g>
				<g>
					<path class="st0" d="M488.9,514.8c-1.3,0-2.3-1-2.3-2.3v-24c0-1.3,1-2.3,2.3-2.3c1.3,0,2.3,1,2.3,2.3v24
						C491.2,513.8,490.1,514.8,488.9,514.8z"/>
				</g>
				<g>
					<path class="st0" d="M497.6,505.3h-17.5c-1.3,0-2.3-1-2.3-2.3c0-1.3,1-2.3,2.3-2.3h17.5c1.3,0,2.3,1,2.3,2.3
						C499.9,504.3,498.9,505.3,497.6,505.3z"/>
				</g>
			</g>
			<g>
				<g>
					<path class="st0" d="M480.9,472.1c-0.3,0-0.6-0.1-0.9-0.2c-2.7-1.1-7.1-5.1-4.6-12.4c0.4-1.2,1.8-1.8,3-1.4
						c1.2,0.4,1.8,1.7,1.4,3c-1.7,4.9,1.5,6.4,1.9,6.5c1.2,0.5,1.8,1.8,1.3,3C482.6,471.5,481.8,472.1,480.9,472.1z"/>
				</g>
				<g>
					<path class="st0" d="M496.9,472.1c-0.9,0-1.8-0.5-2.2-1.4c-0.5-1.2,0.1-2.5,1.2-3c0.6-0.3,3.6-1.9,1.9-6.5
						c-0.4-1.2,0.2-2.5,1.4-3c1.2-0.4,2.5,0.2,3,1.4c2.5,7.3-1.9,11.3-4.6,12.4C497.5,472,497.2,472.1,496.9,472.1z"/>
				</g>
			</g>
		</g>
		<g>
			<g>
				<path class="st0" d="M593.4,1208.8c-3.4,0-6.8-1.3-9.4-3.9c-5.2-5.2-5.2-13.6,0-18.8c5.2-5.2,13.6-5.2,18.8,0
					c5.2,5.2,5.2,13.6,0,18.8C600.2,1207.5,596.8,1208.8,593.4,1208.8z M593.4,1186.9c-2.2,0-4.4,0.8-6.1,2.5
					c-3.4,3.4-3.4,8.9,0,12.2c3.4,3.4,8.9,3.4,12.2,0c3.4-3.4,3.4-8.9,0-12.2C597.8,1187.7,595.6,1186.9,593.4,1186.9z"/>
			</g>
			<g>
				<path class="st0" d="M601.1,1190.1c-0.6,0-1.2-0.2-1.6-0.7c-0.9-0.9-0.9-2.4,0-3.3l17-17c0.9-0.9,2.4-0.9,3.3,0
					c0.9,0.9,0.9,2.4,0,3.3l-17,17C602.3,1189.9,601.7,1190.1,601.1,1190.1z"/>
			</g>
			<g>
				<path class="st0" d="M605.2,1173.6c-1.2,0-2.3-1-2.3-2.2c0-1.3,1-2.4,2.2-2.4l12.9-0.5c1.3-0.1,2.4,1,2.4,2.2
					c0,1.3-1,2.4-2.2,2.4L605.2,1173.6C605.3,1173.6,605.2,1173.6,605.2,1173.6z"/>
			</g>
			<g>
				<path class="st0" d="M617.6,1186C617.6,1186,617.5,1186,617.6,1186c-1.4-0.1-2.4-1.1-2.3-2.4l0.5-12.9c0-1.3,1.1-2.3,2.4-2.2
					c1.3,0,2.3,1.1,2.2,2.4l-0.5,12.9C619.9,1185,618.8,1186,617.6,1186z"/>
			</g>
		</g>
		<g>
			<g>
				<path class="st0" d="M393.6,955.7c-1.3,0-2.3-1-2.3-2.3V923c0-1.3,1-2.3,2.3-2.3c1.3,0,2.3,1,2.3,2.3v30.3
					C396,954.6,394.9,955.7,393.6,955.7z"/>
			</g>
			<g>
				<path class="st0" d="M403.9,938.6h-35.6c-0.9,0-1.8-0.6-2.1-1.4c-0.4-0.9-0.2-1.9,0.5-2.5c4.3-4.3,14.7-17.3,11.3-25.1
					c-0.9-2-2-3.2-3.5-3.6c-3-0.9-6.5,1.2-6.6,1.3c-1.1,0.7-2.5,0.4-3.2-0.7c-0.7-1.1-0.4-2.5,0.7-3.2c0.2-0.1,5.4-3.3,10.4-1.8
					c2.8,0.9,5,3,6.4,6.2c3.9,8.9-3.9,20.4-8.7,26.3h30.4c1.3,0,2.3,1,2.3,2.3C406.2,937.6,405.1,938.6,403.9,938.6z"/>
			</g>
		</g>
		<g>
			<g>
				<path class="st0" d="M957.6,1234.5c-1.3,0-2.3-1-2.3-2.3v-40.4c0-1.3,1-2.3,2.3-2.3s2.3,1,2.3,2.3v40.4
					C959.9,1233.5,958.9,1234.5,957.6,1234.5z"/>
			</g>
			<g>
				<path class="st0" d="M965.3,1202.6h-14.3c-1.3,0-2.3-1-2.3-2.3c0-1.3,1-2.3,2.3-2.3h14.3c1.3,0,2.3,1,2.3,2.3
					C967.7,1201.5,966.6,1202.6,965.3,1202.6z"/>
			</g>
			<g>
				<path class="st0" d="M981.7,1248.6c-2.2,0-4.5-1-6.5-3.6c-3.1-4-1.6-9.6-0.1-15.6c0.4-1.8,0.9-3.6,1.3-5.4
					c1.2-6.3,0.5-10.5-2.1-12.5c-5.6-4.3-14.7,1-14.8,1.1c-1.1,0.7-2.5,0.3-3.2-0.8c-0.7-1.1-0.3-2.5,0.8-3.2c0.5-0.3,11.9-7,20-0.8
					c4.2,3.2,5.5,9,3.9,17.1c-0.4,1.9-0.9,3.8-1.3,5.6c-1.2,4.8-2.4,9.4-0.7,11.6c1.4,1.9,3,2.3,4.7,1.2c1.7-1.1,2.3-2.9,2-3.4
					c-0.6-1.1-0.2-2.5,0.9-3.2c1.1-0.6,2.5-0.2,3.2,0.9c1.9,3.3-0.4,7.6-3.5,9.6C984.9,1248.1,983.3,1248.6,981.7,1248.6z"/>
			</g>
		</g>
		<g>
			<g>
				<path class="st0" d="M1016.1,1224.3c-6.9,0-12.5-5.6-12.5-12.5c0-6.9,5.6-12.5,12.5-12.5c6.9,0,12.5,5.6,12.5,12.5
					C1028.7,1218.7,1023,1224.3,1016.1,1224.3z M1016.1,1203.9c-4.4,0-7.9,3.5-7.9,7.9c0,4.4,3.5,7.9,7.9,7.9c4.4,0,7.9-3.5,7.9-7.9
					C1024,1207.4,1020.5,1203.9,1016.1,1203.9z"/>
			</g>
			<g>
				<path class="st0" d="M1016.1,1203.9c-1.3,0-2.3-1-2.3-2.3v-28.1c0-1.3,1-2.3,2.3-2.3c1.3,0,2.3,1,2.3,2.3v28.1
					C1018.4,1202.8,1017.4,1203.9,1016.1,1203.9z"/>
			</g>
			<g>
				<path class="st0" d="M1024.7,1185.5h-17.2c-1.3,0-2.3-1-2.3-2.3s1-2.3,2.3-2.3h17.2c1.3,0,2.3,1,2.3,2.3
					S1026,1185.5,1024.7,1185.5z"/>
			</g>
			<g>
				<g>
					<path class="st0" d="M1030.2,1197c-0.5,0-1-0.2-1.4-0.5c-3.4-2.7-5.6-7.8-5.6-13.4s2.1-10.7,5.6-13.4c1-0.8,2.5-0.6,3.3,0.4
						c0.8,1,0.6,2.5-0.4,3.3c-2.3,1.8-3.8,5.6-3.8,9.7c0,4.1,1.5,7.9,3.8,9.7c1,0.8,1.2,2.3,0.4,3.3
						C1031.5,1196.7,1030.9,1197,1030.2,1197z"/>
				</g>
				<g>
					<path class="st0" d="M1002,1197c-0.7,0-1.4-0.3-1.8-0.9c-0.8-1-0.6-2.5,0.4-3.3c2.3-1.8,3.8-5.6,3.8-9.7c0-4.1-1.5-7.9-3.8-9.7
						c-1-0.8-1.2-2.3-0.4-3.3c0.8-1,2.3-1.2,3.3-0.4c3.4,2.7,5.6,7.8,5.6,13.4s-2.1,10.7-5.6,13.4
						C1003,1196.8,1002.5,1197,1002,1197z"/>
				</g>
			</g>
		</g>
		<g>
			<g>
				<path class="st0" d="M1045.5,440.4c-1.3,0-2.3-1-2.3-2.3v-43.4c0-1.3,1-2.3,2.3-2.3s2.3,1,2.3,2.3v43.4
					C1047.8,439.4,1046.8,440.4,1045.5,440.4z"/>
			</g>
			<g>
				<path class="st0" d="M1055.4,430.1h-19.8c-1.3,0-2.3-1-2.3-2.3s1-2.3,2.3-2.3h19.8c1.3,0,2.3,1,2.3,2.3
					S1056.7,430.1,1055.4,430.1z"/>
			</g>
			<g>
				<g>
					<g>
						<path class="st0" d="M1045.4,420.1c-7.6,0-12.9-1.6-16.2-5c-4.5-4.6-4.4-11.5-4.3-17.6c0-1,0-1.9,0-2.9c0-1.3,1-2.3,2.3-2.3
							c1.3,0,2.3,1,2.3,2.3c0,1,0,2,0,3c-0.1,5.7-0.2,11,3,14.2c2.4,2.5,6.6,3.6,12.9,3.6c1.3,0,2.3,1,2.3,2.3
							C1047.7,419.1,1046.7,420.1,1045.4,420.1z"/>
					</g>
					<g>
						<path class="st0" d="M1030.5,398.4h-6.7c-0.8,0-1.6-0.4-2-1.2c-0.4-0.7-0.4-1.6,0-2.3l3.4-5.8c0.4-0.7,1.2-1.2,2-1.2l0,0
							c0.8,0,1.6,0.4,2,1.2l3.4,5.8c0.4,0.7,0.4,1.6,0,2.3C1032.1,397.9,1031.4,398.4,1030.5,398.4z"/>
					</g>
				</g>
				<g>
					<g>
						<path class="st0" d="M1045.6,420.1c-1.3,0-2.3-1-2.3-2.3c0-1.3,1-2.3,2.3-2.3c6.3,0,10.5-1.2,12.9-3.6c3.2-3.2,3.1-8.6,3-14.2
							c0-1,0-2,0-3c0-1.3,1-2.3,2.3-2.3c1.3,0,2.3,1,2.3,2.3c0,0.9,0,1.9,0,2.9c0.1,6.1,0.2,13-4.3,17.6
							C1058.5,418.5,1053.2,420.1,1045.6,420.1z"/>
					</g>
					<g>
						<path class="st0" d="M1067.2,398.4h-6.7c-0.8,0-1.6-0.4-2-1.2c-0.4-0.7-0.4-1.6,0-2.3l3.4-5.8c0.4-0.7,1.2-1.2,2-1.2
							c0.8,0,1.6,0.4,2,1.2l3.4,5.8c0.4,0.7,0.4,1.6,0,2.3C1068.8,397.9,1068,398.4,1067.2,398.4z"/>
					</g>
				</g>
			</g>
			<g>
				<path class="st0" d="M1048.9,398.4h-6.7c-0.8,0-1.6-0.4-2-1.2c-0.4-0.7-0.4-1.6,0-2.3l3.4-5.8c0.4-0.7,1.2-1.2,2-1.2
					c0.8,0,1.6,0.4,2,1.2l3.4,5.8c0.4,0.7,0.4,1.6,0,2.3C1050.5,397.9,1049.7,398.4,1048.9,398.4z"/>
			</g>
		</g>
		<g>
			<g>
				<path class="st0" d="M1106.6,1153.6c-1.3,0-2.3-1-2.3-2.3V1131c0-1.3,1-2.3,2.3-2.3c1.3,0,2.3,1,2.3,2.3v20.3
					C1108.9,1152.6,1107.9,1153.6,1106.6,1153.6z"/>
			</g>
			<g>
				<path class="st0" d="M1116.5,1143.3h-19.8c-1.3,0-2.3-1-2.3-2.3s1-2.3,2.3-2.3h19.8c1.3,0,2.3,1,2.3,2.3
					S1117.8,1143.3,1116.5,1143.3z"/>
			</g>
			<g>
				<path class="st0" d="M1106.6,1133.3c-12.8,0-23.7-10-24.7-22.8c-0.1-1.3,0.8-2.4,2.1-2.5c1.3-0.1,2.4,0.8,2.5,2.1
					c0.8,10.4,9.7,18.5,20.1,18.5c10.4,0,19.2-8.1,20.1-18.5c0.1-1.3,1.2-2.2,2.5-2.1c1.3,0.1,2.2,1.2,2.1,2.5
					C1130.3,1123.3,1119.4,1133.3,1106.6,1133.3z"/>
			</g>
			<g>
				<path class="st0" d="M1106.6,1120.5c-6,0-10.9-4.9-10.9-10.9c0-6,4.9-10.9,10.9-10.9c6,0,10.9,4.9,10.9,10.9
					C1117.5,1115.6,1112.6,1120.5,1106.6,1120.5z M1106.6,1103.3c-3.5,0-6.3,2.8-6.3,6.3c0,3.5,2.8,6.3,6.3,6.3
					c3.5,0,6.3-2.8,6.3-6.3C1112.9,1106.1,1110,1103.3,1106.6,1103.3z"/>
			</g>
		</g>
		<g>
			<g>
				<path class="st0" d="M483.1,1120.7h-18.7c-6.5,0-11.7-5.3-11.7-11.7c0-6.5,5.3-11.7,11.7-11.7h18.7c6.5,0,11.7,5.3,11.7,11.7
					C494.8,1115.4,489.5,1120.7,483.1,1120.7z M464.4,1101.8c-3.9,0-7.1,3.2-7.1,7.1c0,3.9,3.2,7.1,7.1,7.1h18.7
					c3.9,0,7.1-3.2,7.1-7.1c0-3.9-3.2-7.1-7.1-7.1H464.4z"/>
			</g>
			<g>
				<path class="st0" d="M473.7,1101.8c-1.3,0-2.3-1-2.3-2.3v-37.2c0-1.3,1-2.3,2.3-2.3c1.3,0,2.3,1,2.3,2.3v37.2
					C476,1100.8,475,1101.8,473.7,1101.8z"/>
			</g>
			<g>
				<path class="st0" d="M473.7,1076.1c-0.6,0-1.2-0.2-1.6-0.7c-0.9-0.9-0.9-2.4,0-3.3l10.8-10.8c0.9-0.9,2.4-0.9,3.3,0
					c0.9,0.9,0.9,2.4,0,3.3l-10.8,10.8C474.9,1075.9,474.3,1076.1,473.7,1076.1z"/>
			</g>
			<g>
				<path class="st0" d="M484.5,1086.1c-0.6,0-1.2-0.2-1.6-0.7l-10.8-10.8c-0.9-0.9-0.9-2.4,0-3.3c0.9-0.9,2.4-0.9,3.3,0l10.8,10.8
					c0.9,0.9,0.9,2.4,0,3.3C485.7,1085.9,485.1,1086.1,484.5,1086.1z"/>
			</g>
		</g>
		<g>
			<g>
				<path class="st0" d="M454.2,553.5c1.7,0,3.3-0.2,4.8-0.6c-8.1-2.1-14.1-9.5-14.1-18.3c0-8.8,6-16.2,14.1-18.3
					c-1.5-0.4-3.2-0.6-4.8-0.6c-10.5,0-19,8.5-19,19C435.2,545,443.7,553.5,454.2,553.5z"/>
				<path class="st0" d="M454.2,555.8c-11.7,0-21.3-9.6-21.3-21.3c0-11.7,9.6-21.3,21.3-21.3c1.8,0,3.6,0.2,5.4,0.7
					c1,0.3,1.7,1.2,1.7,2.2c0,1.1-0.7,2-1.7,2.2c-7.3,1.9-12.4,8.5-12.4,16.1c0,7.5,5.1,14.2,12.4,16.1c1,0.3,1.7,1.2,1.7,2.2
					s-0.7,2-1.7,2.2C457.8,555.5,456,555.8,454.2,555.8z M450,518.4c-7.2,1.9-12.4,8.4-12.4,16.1s5.3,14.3,12.4,16.1
					c-4.6-3.9-7.4-9.8-7.4-16.1S445.4,522.3,450,518.4z"/>
			</g>
			<g>
				<g>
					<path class="st0" d="M447.1,576c-1.3,0-2.3-1-2.3-2.3v-24c0-1.3,1-2.3,2.3-2.3c1.3,0,2.3,1,2.3,2.3v24
						C449.5,575,448.4,576,447.1,576z"/>
				</g>
				<g>
					<path class="st0" d="M455.9,566.6h-17.5c-1.3,0-2.3-1-2.3-2.3c0-1.3,1-2.3,2.3-2.3h17.5c1.3,0,2.3,1,2.3,2.3
						C458.2,565.5,457.2,566.6,455.9,566.6z"/>
				</g>
			</g>
		</g>
		<g>
			<g>
				<path class="st0" d="M731,1259.8c-1.8,0-3.6-0.2-5.4-0.7c-1-0.3-1.7-1.2-1.7-2.2c0-1.1,0.7-2,1.7-2.2
					c7.3-1.9,12.4-8.5,12.4-16.1c0-7.5-5.1-14.2-12.4-16.1c-1-0.3-1.7-1.2-1.7-2.2s0.7-2,1.7-2.2c1.8-0.5,3.7-0.7,5.4-0.7
					c11.7,0,21.3,9.6,21.3,21.3C752.3,1250.2,742.8,1259.8,731,1259.8z M735.2,1222.3c4.6,4,7.4,9.8,7.4,16.1
					c0,6.3-2.8,12.2-7.4,16.1c7.2-1.9,12.5-8.4,12.5-16.1C747.7,1230.7,742.4,1224.2,735.2,1222.3z"/>
			</g>
			<g>
				<g>
					<path class="st0" d="M738.1,1280c-1.3,0-2.3-1-2.3-2.3v-21.6c0-1.3,1-2.3,2.3-2.3c1.3,0,2.3,1,2.3,2.3v21.6
						C740.4,1279,739.4,1280,738.1,1280z"/>
				</g>
				<g>
					<path class="st0" d="M746.9,1270.6h-17.5c-1.3,0-2.3-1-2.3-2.3c0-1.3,1-2.3,2.3-2.3h17.5c1.3,0,2.3,1,2.3,2.3
						C749.2,1269.5,748.1,1270.6,746.9,1270.6z"/>
				</g>
			</g>
		</g>
		<g>
			<g>
				<g>
					<path class="st0" d="M1222,668.8c-0.7,0-1.4-0.3-1.8-0.9c-0.8-0.9-1.9-2-3.1-3.1c-4.4-4.1-10.5-9.7-10.5-20.1
						c0-14.2,11.6-25.8,25.8-25.8c1.3,0,2.3,1,2.3,2.3c0,1.3-1,2.3-2.3,2.3c-11.7,0-21.1,9.5-21.1,21.1c0,8.4,5,13,9,16.7
						c1.4,1.3,2.7,2.4,3.6,3.7c0.8,1,0.6,2.5-0.4,3.3C1223,668.6,1222.5,668.8,1222,668.8z"/>
				</g>
				<g>
					<path class="st0" d="M1216.3,680.9c-5.4,0-9.7-4.4-9.7-9.7s4.4-9.8,9.7-9.8s9.7,4.4,9.7,9.8S1221.7,680.9,1216.3,680.9z
						 M1216.3,666.1c-2.8,0-5.1,2.3-5.1,5.1c0,2.8,2.3,5.1,5.1,5.1c2.8,0,5.1-2.3,5.1-5.1C1221.4,668.4,1219.1,666.1,1216.3,666.1z"
						/>
				</g>
			</g>
			<g>
				<g>
					<path class="st0" d="M1243.1,668.8c-0.5,0-1-0.2-1.4-0.5c-1-0.8-1.2-2.3-0.4-3.3c1-1.2,2.3-2.4,3.6-3.7c4-3.7,9-8.3,9-16.7
						c0-11.7-9.5-21.1-21.1-21.1c-1.3,0-2.3-1-2.3-2.3c0-1.3,1-2.3,2.3-2.3c14.2,0,25.8,11.6,25.8,25.8c0,10.4-6.1,16-10.5,20.1
						c-1.3,1.2-2.4,2.2-3.1,3.1C1244.4,668.5,1243.8,668.8,1243.1,668.8z"/>
				</g>
				<g>
					<path class="st0" d="M1248.8,680.9c-5.4,0-9.7-4.4-9.7-9.7s4.4-9.8,9.7-9.8c5.4,0,9.7,4.4,9.7,9.8S1254.2,680.9,1248.8,680.9z
						 M1248.8,666.1c-2.8,0-5.1,2.3-5.1,5.1c0,2.8,2.3,5.1,5.1,5.1c2.8,0,5.1-2.3,5.1-5.1C1253.9,668.4,1251.6,666.1,1248.8,666.1z"
						/>
				</g>
			</g>
		</g>
		<g>
			<g>
				<g>
					<path class="st0" d="M550.2,1188.7c-1.3,0-2.3-1-2.3-2.3s1-2.3,2.3-2.3c11.7,0,21.1-9.5,21.1-21.1c0-8.4-5-13-9-16.7
						c-1.4-1.3-2.7-2.4-3.6-3.7c-0.8-1-0.6-2.5,0.4-3.3c1-0.8,2.5-0.6,3.3,0.4c0.8,0.9,1.9,2,3.1,3.1c4.4,4.1,10.5,9.7,10.5,20.1
						C576,1177.1,564.5,1188.7,550.2,1188.7z"/>
				</g>
				<g>
					<path class="st0" d="M566.3,1146.1c-5.4,0-9.8-4.4-9.8-9.7c0-5.4,4.4-9.8,9.8-9.8c5.4,0,9.7,4.4,9.7,9.8
						C576,1141.8,571.6,1146.1,566.3,1146.1z M566.3,1131.3c-2.8,0-5.1,2.3-5.1,5.1c0,2.8,2.3,5.1,5.1,5.1c2.8,0,5.1-2.3,5.1-5.1
						C571.4,1133.6,569.1,1131.3,566.3,1131.3z"/>
				</g>
			</g>
			<g>
				<g>
					<path class="st0" d="M549.8,1188.7c-14.2,0-25.8-11.6-25.8-25.8c0-10.4,6.1-16,10.5-20.1c1.3-1.2,2.4-2.2,3.1-3.1
						c0.8-1,2.3-1.2,3.3-0.4c1,0.8,1.2,2.3,0.4,3.3c-1,1.2-2.3,2.4-3.6,3.7c-4,3.7-9,8.3-9,16.7c0,11.7,9.5,21.1,21.1,21.1
						c1.3,0,2.3,1,2.3,2.3S551,1188.7,549.8,1188.7z"/>
				</g>
				<g>
					<path class="st0" d="M533.7,1146.1c-5.4,0-9.7-4.4-9.7-9.7c0-5.4,4.4-9.8,9.7-9.8c5.4,0,9.7,4.4,9.7,9.8
						C543.5,1141.8,539.1,1146.1,533.7,1146.1z M533.7,1131.3c-2.8,0-5.1,2.3-5.1,5.1c0,2.8,2.3,5.1,5.1,5.1c2.8,0,5.1-2.3,5.1-5.1
						C538.8,1133.6,536.5,1131.3,533.7,1131.3z"/>
				</g>
			</g>
		</g>
		<g>
			<g>
				<path class="st0" d="M1227.9,977.7c-14.2,0-25.8-11.6-25.8-25.8c0-14.2,11.6-25.8,25.8-25.8s25.8,11.6,25.8,25.8
					C1253.7,966.2,1242.1,977.7,1227.9,977.7z M1227.9,930.8c-11.7,0-21.1,9.5-21.1,21.1c0,11.7,9.5,21.1,21.1,21.1
					c11.7,0,21.1-9.5,21.1-21.1C1249,940.3,1239.6,930.8,1227.9,930.8z"/>
			</g>
			<g>
				<path class="st0" d="M1244.3,970.7c-0.6,0-1.2-0.2-1.6-0.7l-32.9-32.9c-0.9-0.9-0.9-2.4,0-3.3c0.9-0.9,2.4-0.9,3.3,0l32.9,32.9
					c0.9,0.9,0.9,2.4,0,3.3C1245.5,970.5,1244.9,970.7,1244.3,970.7z"/>
			</g>
			<g>
				<path class="st0" d="M1211.5,970.7c-0.6,0-1.2-0.2-1.6-0.7c-0.9-0.9-0.9-2.4,0-3.3l32.9-32.9c0.9-0.9,2.4-0.9,3.3,0
					c0.9,0.9,0.9,2.4,0,3.3l-32.9,32.9C1212.7,970.5,1212.1,970.7,1211.5,970.7z"/>
			</g>
		</g>
		<g>
			<g>
				<path class="st0" d="M1178.3,1083.2h-43.9c-1.3,0-2.3-1-2.3-2.3c0-1.3,1-2.3,2.3-2.3h43.9c1.3,0,2.3,1,2.3,2.3
					C1180.6,1082.2,1179.6,1083.2,1178.3,1083.2z"/>
			</g>
			<g>
				<path class="st0" d="M1156.3,1105.2c-1.3,0-2.3-1-2.3-2.3V1059c0-1.3,1-2.3,2.3-2.3c1.3,0,2.3,1,2.3,2.3v43.9
					C1158.6,1104.2,1157.6,1105.2,1156.3,1105.2z"/>
			</g>
			<g>
				<g>
					<path class="st0" d="M1156.3,1061.3c-0.5,0-1.1-0.2-1.5-0.6c-1-0.8-1.1-2.3-0.2-3.3c0.2-0.2,2.2-2.4,5-2.5
						c1.2-0.1,2.9,0.2,4.6,1.9c0.9,0.9,1,2.4,0.1,3.3c-0.9,0.9-2.4,1-3.3,0.1c-0.6-0.6-1-0.6-1.2-0.6c-0.8,0-1.6,0.8-1.7,0.9
						C1157.6,1061,1156.9,1061.3,1156.3,1061.3z"/>
				</g>
				<g>
					<path class="st0" d="M1156.3,1061.3c-0.6,0-1.3-0.3-1.7-0.8c-0.2-0.2-1-0.9-1.7-0.9c-0.1,0-0.6,0-1.2,0.6
						c-0.9,0.9-2.4,0.8-3.3-0.1c-0.9-0.9-0.8-2.4,0.1-3.3c1.7-1.6,3.5-1.9,4.6-1.9c2.8,0.1,4.8,2.2,5,2.5c0.8,1,0.8,2.4-0.2,3.3
						C1157.4,1061.1,1156.9,1061.3,1156.3,1061.3z"/>
				</g>
			</g>
			<g>
				<g>
					<path class="st0" d="M1178.7,1089.5c-0.6,0-1.1-0.2-1.6-0.6c-0.9-0.9-1-2.4-0.1-3.3c0.6-0.6,0.6-1.1,0.6-1.2
						c0-0.7-0.7-1.5-0.9-1.8c-0.9-0.9-1-2.3-0.2-3.3c0.9-0.9,2.3-1,3.3-0.2c0.2,0.2,2.4,2.2,2.5,5c0.1,1.2-0.2,2.9-1.9,4.6
						C1180,1089.3,1179.4,1089.5,1178.7,1089.5z"/>
				</g>
				<g>
					<path class="st0" d="M1178.3,1083.2c-0.6,0-1.3-0.3-1.7-0.8c-0.8-1-0.8-2.4,0.2-3.3c0.2-0.2,0.9-1,0.9-1.7c0-0.1,0-0.6-0.6-1.2
						c-0.9-0.9-0.8-2.4,0.1-3.3c0.9-0.9,2.4-0.8,3.3,0.1c1.6,1.7,1.9,3.5,1.9,4.6c-0.1,2.8-2.2,4.8-2.5,5
						C1179.4,1083.1,1178.8,1083.2,1178.3,1083.2z"/>
				</g>
			</g>
			<g>
				<g>
					<path class="st0" d="M1152.8,1106.9c-1.2,0-2.8-0.3-4.4-1.9c-0.9-0.9-1-2.4-0.1-3.3c0.9-0.9,2.4-1,3.3-0.1
						c0.6,0.6,1,0.6,1.2,0.6c0.8,0,1.6-0.8,1.7-0.9c0.8-1,2.3-1.1,3.3-0.2c1,0.8,1.1,2.3,0.2,3.3c-0.2,0.2-2.2,2.4-5,2.5
						C1153,1106.9,1152.9,1106.9,1152.8,1106.9z"/>
				</g>
				<g>
					<path class="st0" d="M1159.8,1106.9c-0.1,0-0.2,0-0.3,0c-2.8-0.1-4.8-2.2-5-2.5c-0.8-1-0.8-2.4,0.2-3.3c1-0.8,2.4-0.8,3.3,0.2
						c0.2,0.2,1,0.9,1.7,0.9c0.1,0,0.6,0,1.2-0.6c0.9-0.9,2.4-0.8,3.3,0.1c0.9,0.9,0.8,2.4-0.1,3.3
						C1162.6,1106.6,1161,1106.9,1159.8,1106.9z"/>
				</g>
			</g>
			<g>
				<g>
					<path class="st0" d="M1134.3,1083.2c-0.5,0-1.1-0.2-1.5-0.6c-0.2-0.2-2.4-2.2-2.5-5c-0.1-1.2,0.2-2.9,1.9-4.6
						c0.9-0.9,2.4-1,3.3-0.1c0.9,0.9,1,2.4,0.1,3.3c-0.6,0.6-0.6,1.1-0.6,1.2c0,0.7,0.7,1.5,0.9,1.7c0.9,0.9,1,2.3,0.2,3.3
						C1135.6,1083,1135,1083.2,1134.3,1083.2z"/>
				</g>
				<g>
					<path class="st0" d="M1133.9,1089.5c-0.6,0-1.2-0.2-1.7-0.7c-1.6-1.7-1.9-3.5-1.9-4.6c0.1-2.8,2.2-4.8,2.5-5
						c1-0.9,2.4-0.8,3.3,0.2c0.8,1,0.8,2.4-0.2,3.3c-0.2,0.2-0.9,1-0.9,1.7c0,0.1,0,0.6,0.6,1.2c0.9,0.9,0.8,2.4-0.1,3.3
						C1135,1089.3,1134.4,1089.5,1133.9,1089.5z"/>
				</g>
			</g>
		</g>
		<g>
			<path class="st0" d="M1046.3,1331.1c-0.4,0-0.7-0.2-0.9-0.5l-109.7-232.3c-0.2-0.5,0-1,0.5-1.3c0.5-0.2,1,0,1.3,0.5l109.7,232.3
				c0.2,0.5,0,1-0.5,1.3C1046.6,1331.1,1046.4,1331.1,1046.3,1331.1z"/>
		</g>
		<g>
			<path class="st0" d="M460.3,797H203c-0.5,0-0.9-0.4-0.9-0.9c0-0.5,0.4-0.9,0.9-0.9h257.3c0.5,0,0.9,0.4,0.9,0.9
				C461.3,796.5,460.9,797,460.3,797z"/>
		</g>
		<g>
			<path class="st0" d="M1385.1,797h-257.3c-0.5,0-0.9-0.4-0.9-0.9c0-0.5,0.4-0.9,0.9-0.9h257.3c0.5,0,0.9,0.4,0.9,0.9
				C1386.1,796.5,1385.7,797,1385.1,797z"/>
		</g>
		<g>
			<path class="st0" d="M1055.5,589.5c-0.3,0-0.6-0.1-0.7-0.4c-0.3-0.4-0.3-1,0.2-1.3l201.6-160c0.4-0.3,1-0.3,1.3,0.2
				c0.3,0.4,0.3,1-0.2,1.3l-201.6,160C1055.9,589.4,1055.7,589.5,1055.5,589.5z"/>
		</g>
		<g>
			<path class="st0" d="M952.3,503c-0.2,0-0.3,0-0.4-0.1c-0.5-0.2-0.6-0.8-0.4-1.3l121.9-226.4c0.2-0.5,0.8-0.6,1.3-0.4
				c0.5,0.2,0.6,0.8,0.4,1.3L953.1,502.5C953,502.9,952.6,503,952.3,503z"/>
		</g>
		<g>
			<path class="st0" d="M865.4,470.8c-0.1,0-0.1,0-0.2,0c-0.5-0.1-0.8-0.6-0.7-1.1l55-251.4c0.1-0.5,0.6-0.8,1.1-0.7
				c0.5,0.1,0.8,0.6,0.7,1.1l-55,251.4C866.2,470.5,865.8,470.8,865.4,470.8z"/>
		</g>
		<g>
			<path class="st0" d="M736.8,468.1c-0.5,0-0.9-0.3-0.9-0.8L691.7,214c-0.1-0.5,0.3-1,0.8-1.1c0.5-0.1,1,0.3,1.1,0.8L737.7,467
				c0.1,0.5-0.3,1-0.8,1.1C736.9,468.1,736.8,468.1,736.8,468.1z"/>
		</g>
		<g>
			<path class="st0" d="M294,1111.9c-0.3,0-0.6-0.2-0.8-0.4c-0.3-0.4-0.1-1,0.3-1.3L511.2,973c0.4-0.3,1-0.1,1.3,0.3
				c0.3,0.4,0.1,1-0.3,1.3l-217.7,137.1C294.3,1111.8,294.2,1111.9,294,1111.9z"/>
		</g>
		<g>
			<path class="st0" d="M464.2,1287.3c-0.2,0-0.4-0.1-0.5-0.2c-0.4-0.3-0.6-0.9-0.3-1.3L607,1072.4c0.3-0.4,0.9-0.6,1.3-0.3
				c0.4,0.3,0.6,0.9,0.3,1.3L465,1286.8C464.8,1287.1,464.5,1287.3,464.2,1287.3z"/>
		</g>
		<g>
			<path class="st0" d="M667.4,1374.4c-0.1,0-0.1,0-0.2,0c-0.5-0.1-0.8-0.6-0.7-1.1l55.1-251.3c0.1-0.5,0.6-0.8,1.1-0.7
				c0.5,0.1,0.8,0.6,0.7,1.1l-55.1,251.3C668.2,1374.1,667.8,1374.4,667.4,1374.4z"/>
		</g>
		<g>
			<path class="st0" d="M825,1387.1c-0.5,0-0.9-0.4-0.9-0.9l-13.5-256.9c0-0.5,0.4-1,0.9-1c0.5,0,1,0.4,1,0.9l13.5,256.9
				C826,1386.7,825.6,1387.1,825,1387.1C825,1387.1,825,1387.1,825,1387.1z"/>
		</g>
		<g>
			<path class="st0" d="M543.5,576.6c-0.2,0-0.4-0.1-0.6-0.2L349.9,406.7c-0.4-0.3-0.4-0.9-0.1-1.3c0.3-0.4,0.9-0.4,1.3-0.1
				l192.9,169.7c0.4,0.3,0.4,0.9,0.1,1.3C544,576.4,543.7,576.6,543.5,576.6z"/>
		</g>
		<g>
			<path class="st0" d="M794.1,1130.7c-45.2,0-89-8.8-130.3-26.3c-39.9-16.9-75.6-41-106.4-71.7c-30.7-30.7-54.9-66.5-71.7-106.4
				c-17.5-41.3-26.3-85.1-26.3-130.3c0-45.2,8.8-89,26.3-130.3c16.9-39.9,41-75.6,71.7-106.4c30.7-30.7,66.5-54.9,106.4-71.7
				c41.3-17.5,85.1-26.3,130.3-26.3c45.2,0,89,8.8,130.3,26.3c39.9,16.9,75.6,41,106.4,71.7c30.7,30.7,54.9,66.5,71.7,106.4
				c17.5,41.3,26.3,85.1,26.3,130.3c0,45.2-8.8,89-26.3,130.3c-16.9,39.9-41,75.6-71.7,106.4c-30.7,30.7-66.5,54.9-106.4,71.7
				C883.1,1121.8,839.3,1130.7,794.1,1130.7z M794.1,463.2c-183.5,0-332.8,149.3-332.8,332.8s149.3,332.8,332.8,332.8
				c183.5,0,332.8-149.3,332.8-332.8S977.6,463.2,794.1,463.2z"/>
		</g>
		<g>
			<path class="st0" d="M794.1,1121.5c-86.9,0-168.7-33.9-230.1-95.3S468.6,882.9,468.6,796c0-86.9,33.9-168.7,95.3-230.1
				s143.2-95.3,230.1-95.3c86.9,0,168.7,33.9,230.1,95.3c61.5,61.5,95.3,143.2,95.3,230.1c0,86.9-33.9,168.7-95.3,230.1
				C962.7,1087.6,881,1121.5,794.1,1121.5z M794.1,472.4c-178.4,0-323.6,145.2-323.6,323.6s145.2,323.6,323.6,323.6
				s323.6-145.2,323.6-323.6S972.5,472.4,794.1,472.4z"/>
		</g>
		<g>
			<path class="st0" d="M794.1,1086.8c-77.7,0-150.7-30.3-205.7-85.2c-54.9-54.9-85.2-128-85.2-205.7s30.3-150.7,85.2-205.7
				c54.9-54.9,128-85.2,205.7-85.2c77.7,0,150.7,30.3,205.7,85.2c54.9,54.9,85.2,128,85.2,205.7s-30.3,150.7-85.2,205.7
				C944.8,1056.6,871.8,1086.8,794.1,1086.8z M794.1,507.1c-159.3,0-288.9,129.6-288.9,288.9c0,159.3,129.6,288.9,288.9,288.9
				c159.3,0,288.9-129.6,288.9-288.9C1083,636.7,953.4,507.1,794.1,507.1z"/>
		</g>
		<g>
			<path class="st0" d="M794.1,1078.1c-75.4,0-146.2-29.3-199.5-82.6C541.3,942.2,512,871.4,512,796s29.3-146.2,82.6-199.5
				c53.3-53.3,124.1-82.6,199.5-82.6c75.4,0,146.2,29.3,199.5,82.6c53.3,53.3,82.6,124.1,82.6,199.5s-29.3,146.2-82.6,199.5
				C940.3,1048.8,869.4,1078.1,794.1,1078.1z M794.1,515.8c-154.5,0-280.2,125.7-280.2,280.2s125.7,280.2,280.2,280.2
				c154.5,0,280.2-125.7,280.2-280.2S948.6,515.8,794.1,515.8z"/>
		</g>
		<g>
			<path class="st0" d="M932.6,1090.3c-0.4,0-0.8-0.2-1-0.6l-14.8-31.3c-0.3-0.5,0-1.2,0.5-1.4c0.5-0.3,1.2,0,1.4,0.5l14.8,31.3
				c0.3,0.5,0,1.2-0.5,1.4C932.9,1090.2,932.8,1090.3,932.6,1090.3z"/>
		</g>
		<g>
			<path class="st0" d="M504.3,796.9h-34.6c-0.6,0-1.1-0.5-1.1-1.1c0-0.6,0.5-1.1,1.1-1.1h34.6c0.6,0,1.1,0.5,1.1,1.1
				C505.4,796.4,504.9,796.9,504.3,796.9z"/>
		</g>
		<g>
			<path class="st0" d="M1118.5,796.9h-34.6c-0.6,0-1.1-0.5-1.1-1.1c0-0.6,0.5-1.1,1.1-1.1h34.6c0.6,0,1.1,0.5,1.1,1.1
				C1119.5,796.4,1119.1,796.9,1118.5,796.9z"/>
		</g>
		<g>
			<path class="st0" d="M1021.1,616.7c-0.3,0-0.6-0.1-0.8-0.4c-0.4-0.5-0.3-1.1,0.2-1.5l27.1-21.5c0.5-0.4,1.1-0.3,1.5,0.2
				c0.4,0.5,0.3,1.1-0.2,1.5l-27.1,21.5C1021.5,616.6,1021.3,616.7,1021.1,616.7z"/>
		</g>
		<g>
			<path class="st0" d="M931.5,541.7c-0.2,0-0.3,0-0.5-0.1c-0.5-0.3-0.7-0.9-0.4-1.5l16.4-30.5c0.3-0.5,0.9-0.7,1.5-0.4
				c0.5,0.3,0.7,0.9,0.4,1.5l-16.4,30.5C932.2,541.4,931.8,541.7,931.5,541.7z"/>
		</g>
		<g>
			<path class="st0" d="M856,513.7c-0.1,0-0.2,0-0.2,0c-0.6-0.1-0.9-0.7-0.8-1.3l7.4-33.8c0.1-0.6,0.7-0.9,1.3-0.8
				c0.6,0.1,0.9,0.7,0.8,1.3l-7.4,33.8C856.9,513.4,856.5,513.7,856,513.7z"/>
		</g>
		<g>
			<path class="st0" d="M744.3,511.3c-0.5,0-1-0.4-1.1-0.9l-5.9-34.1c-0.1-0.6,0.3-1.1,0.9-1.2c0.6-0.1,1.1,0.3,1.2,0.9l5.9,34.1
				c0.1,0.6-0.3,1.1-0.9,1.2C744.4,511.3,744.4,511.3,744.3,511.3z"/>
		</g>
		<g>
			<path class="st0" d="M519.5,969.7c-0.4,0-0.7-0.2-0.9-0.5c-0.3-0.5-0.2-1.2,0.3-1.5l29.3-18.4c0.5-0.3,1.2-0.2,1.5,0.3
				c0.3,0.5,0.2,1.2-0.3,1.5l-29.3,18.4C519.9,969.7,519.7,969.7,519.5,969.7z"/>
		</g>
		<g>
			<path class="st0" d="M613,1066c-0.2,0-0.4-0.1-0.6-0.2c-0.5-0.3-0.6-1-0.3-1.5l19.3-28.7c0.3-0.5,1-0.6,1.5-0.3
				c0.5,0.3,0.6,1,0.3,1.5l-19.3,28.7C613.7,1065.9,613.3,1066,613,1066z"/>
		</g>
		<g>
			<path class="st0" d="M724.5,1113.8c-0.1,0-0.2,0-0.2,0c-0.6-0.1-0.9-0.7-0.8-1.3l7.4-33.8c0.1-0.6,0.7-0.9,1.3-0.8
				c0.6,0.1,0.9,0.7,0.8,1.3l-7.4,33.8C725.5,1113.4,725,1113.8,724.5,1113.8z"/>
		</g>
		<g>
			<path class="st0" d="M811,1120.8c-0.6,0-1-0.4-1.1-1l-1.8-34.6c0-0.6,0.4-1.1,1-1.1c0.6,0,1.1,0.4,1.1,1l1.8,34.6
				C812.1,1120.3,811.7,1120.8,811,1120.8C811.1,1120.8,811,1120.8,811,1120.8z"/>
		</g>
		<g>
			<path class="st0" d="M576.5,605.5c-0.3,0-0.5-0.1-0.7-0.3l-26-22.9c-0.4-0.4-0.5-1.1-0.1-1.5s1.1-0.5,1.5-0.1l26,22.9
				c0.4,0.4,0.5,1.1,0.1,1.5C577.1,605.4,576.8,605.5,576.5,605.5z"/>
		</g>
		<path class="st0" d="M499.9,892.5c-0.8,0-1.5-0.7-1.5-1.5v-8.7v-8.8c0-0.7-0.6-1.3-1.3-1.3h-1.9c-0.4,0-0.8-0.4-0.8-0.8l0,0
			c0-0.4,0.3-0.8,0.7-0.8c2.4-0.2,3.9-1.2,4.5-3.1c0.1-0.4,0.5-0.6,0.8-0.6l0,0c0.5,0,0.9,0.4,0.9,0.9V891
			C501.5,891.8,500.8,892.5,499.9,892.5L499.9,892.5z"/>
		<path class="st0" d="M580.5,1019.4L580.5,1019.4c0,0.7-0.6,1.2-1.2,1.2h-10.5c-0.9,0-1.7-0.7-1.7-1.7l0,0c0-0.3,0.1-0.6,0.2-0.8
			c2-3.6,4.4-7.1,7.3-10.4c1.7-1.9,2.5-3.9,2.5-6c0-1.5-0.4-2.6-1.2-3.4c-0.5-0.5-1.2-0.8-2.1-0.8c-0.7,0-1.4,0.4-2.1,1
			c-0.6,0.6-1,1.8-1.1,3.5c-0.1,0.8-0.7,1.3-1.4,1.3l0,0c-0.9,0-1.5-0.8-1.4-1.6c0.3-2.3,1-4.1,2.1-5.2c1-1,2.4-1.6,4.2-1.6
			c1.7,0,3.1,0.6,4.2,1.7c1.2,1.2,1.8,2.9,1.8,5.1c0,2.5-1.2,5.2-3.5,7.9c-2.1,2.4-3.9,4.7-5.4,7c-0.4,0.6,0,1.4,0.7,1.4h7.4
			C579.9,1018.1,580.5,1018.7,580.5,1019.4z"/>
		<path class="st0" d="M671.6,1087.4c0.6,0.6,1.4,0.9,2.5,0.9c0.9,0,1.7-0.4,2.5-1.2c0.8-0.8,1.2-2.1,1.2-3.9c0-1.4-0.5-2.6-1.4-3.5
			c-0.5-0.5-1.2-0.8-2-0.9c-0.6-0.1-1.1-0.6-1.1-1.2v0c0-0.6,0.4-1.1,1-1.2c0.9-0.2,1.6-0.5,2.2-1.1c0.7-0.7,1-1.7,1-3.1
			c0-1.7-0.4-3-1.2-3.8c-0.5-0.5-1.2-0.8-2-0.8s-1.4,0.3-2,0.8c-0.7,0.7-1.1,1.6-1.3,2.7c-0.1,0.7-0.7,1.2-1.4,1.2l0,0
			c-0.9,0-1.6-0.8-1.4-1.7c0.3-1.5,1-2.7,2-3.8c1-1,2.4-1.6,4.1-1.6c1.7,0,3.1,0.5,4.2,1.6c1.2,1.2,1.8,2.8,1.8,4.9
			c0,1.8-0.5,3.2-1.4,4.2c-0.3,0.3-0.7,0.6-1,0.9c-0.5,0.4-0.5,1.2,0.1,1.5c0.4,0.2,0.8,0.5,1,0.8c1.2,1.2,1.8,2.7,1.8,4.5
			c0,2.3-0.7,4.1-2.1,5.5c-1.2,1.2-2.8,1.8-4.6,1.8c-2,0-3.6-0.6-4.7-1.7c-1-1-1.6-2.4-1.9-4.2c-0.1-0.9,0.6-1.7,1.5-1.7h0
			c0.8,0,1.4,0.6,1.5,1.3C670.6,1085.8,670.9,1086.7,671.6,1087.4z"/>
		<path class="st0" d="M771.6,1115.2c-0.8,0-1.5-0.7-1.5-1.5v-1.5v-2.4c0-0.3-0.3-0.6-0.6-0.6h-6.2c-1.1,0-2-0.9-2-2l0,0
			c0-0.3,0.1-0.6,0.2-0.9l8-15.6c0.3-0.6,1-1,1.7-1l0,0c1,0,1.9,0.8,1.9,1.9v14.5c0,0.3,0.3,0.6,0.6,0.6h0.9c0.7,0,1.2,0.6,1.2,1.2
			l0,0c0,0.7-0.6,1.2-1.2,1.2h-0.9c-0.3,0-0.6,0.3-0.6,0.6v3.9C773.1,1114.6,772.4,1115.2,771.6,1115.2L771.6,1115.2z M770.1,1106.1
			V1096c0-0.2-0.3-0.3-0.4-0.1l-5.4,10.6c-0.1,0.1,0,0.3,0.2,0.3h5C769.8,1106.7,770.1,1106.4,770.1,1106.1z"/>
		<path class="st0" d="M868.5,1102.8c0.5,0.5,1.3,0.8,2.2,0.8c0.8,0,1.5-0.3,2.2-1c1-1,1.6-2.8,1.6-5.2c0-2.3-0.4-3.8-1.3-4.7
			c-0.5-0.5-1.1-0.8-1.8-0.8c-1.4,0-2.5,0.7-3.4,2.1c-0.3,0.4-0.7,0.6-1.2,0.6h-0.3c-0.8,0-1.5-0.7-1.5-1.5l0.6-11.3
			c0-0.7,0.6-1.2,1.2-1.2h8.9c0.7,0,1.2,0.6,1.2,1.2l0,0c0,0.7-0.6,1.2-1.2,1.2h-6.4c-0.6,0-1.2,0.5-1.2,1.2l-0.4,6.7
			c0,0.2,0.2,0.3,0.4,0.2c1.1-1,2.4-1.5,3.9-1.5c1.3,0,2.4,0.5,3.4,1.4c1.4,1.4,2.1,3.5,2.1,6.3c0,3-0.8,5.3-2.5,6.9
			c-1.2,1.2-2.7,1.8-4.5,1.8c-1.8,0-3.3-0.5-4.3-1.6c-1-1-1.6-2.3-1.9-3.9c-0.2-0.9,0.5-1.8,1.4-1.8h0c0.7,0,1.4,0.5,1.5,1.2
			C867.4,1101.2,867.9,1102.1,868.5,1102.8z"/>
		<path class="st0" d="M1050.9,953.8c-0.4-0.3-0.8-0.5-1.3-0.5c-0.7,0-1.3,0.3-1.8,0.8c-1.4,1.4-2.3,4-2.7,7.8
			c0,0.3,0.3,0.4,0.5,0.2c1.1-1.5,2.4-2.2,3.9-2.2c1.3,0,2.5,0.5,3.5,1.6c1.4,1.4,2.1,3.5,2.1,6.4c0,3.1-0.7,5.5-2.2,6.9
			c-1,1-2.4,1.6-4.1,1.6c-1.5,0-2.8-0.6-4.1-1.8c-1.8-1.8-2.8-5.4-2.8-10.6c0-5.2,1.3-9,3.8-11.5c1-1,2.4-1.6,3.9-1.6
			c1.3,0,2.4,0.4,3.1,1.2c0.8,0.8,1.4,1.8,1.7,2.9c0.3,0.9-0.5,1.8-1.4,1.8l0,0c-0.7,0-1.3-0.5-1.4-1.2
			C1051.6,954.8,1051.3,954.2,1050.9,953.8z M1046.8,963.1c-1,1-1.6,2.4-1.6,4.2c0,2.7,0.6,4.7,1.8,5.9c0.5,0.5,1.1,0.8,1.8,0.8
			c0.7,0,1.4-0.3,2-0.9c0.8-0.8,1.2-2.5,1.2-5.2c0-2.4-0.4-4-1.3-4.9c-0.5-0.5-1.1-0.8-1.8-0.8
			C1048.1,962.2,1047.4,962.5,1046.8,963.1z"/>
		<path class="st0" d="M1083.2,711.9l5.7-20.4c0.1-0.4-0.2-0.8-0.6-0.8h-7.6c-0.7,0-1.2-0.6-1.2-1.2l0,0c0-0.7,0.6-1.2,1.2-1.2h8.8
			c1.3,0,2.4,1.1,2.4,2.4l0,0c0,0.2,0,0.4-0.1,0.6l-5.8,21.4c-0.2,0.6-0.7,1.1-1.4,1.1l0,0C1083.6,713.8,1082.9,712.9,1083.2,711.9z
			"/>
		<path class="st0" d="M997.1,561.3c1.4,1.4,2.1,2.9,2.1,4.5c0,2.4-0.7,4.2-2.1,5.6c-1.1,1.1-2.7,1.7-4.7,1.7c-2,0-3.6-0.6-4.7-1.7
			c-1.4-1.4-2.1-3.3-2.1-5.6c0-1.6,0.7-3.1,2.1-4.5c0.3-0.3,0.6-0.5,0.9-0.7c0.4-0.3,0.4-0.9,0-1.2c-0.2-0.1-0.4-0.3-0.6-0.5
			c-1.2-1.2-1.8-2.7-1.8-4.3v-0.1c0-2.2,0.7-3.9,2-5.2c1.1-1.1,2.5-1.7,4.2-1.7c1.7,0,3.1,0.6,4.2,1.7c1.3,1.3,2,3.1,2,5.2v0.1
			c0,1.7-0.6,3.1-1.8,4.3c-0.2,0.2-0.4,0.3-0.6,0.5c-0.4,0.3-0.4,0.9,0,1.2C996.5,560.8,996.8,561,997.1,561.3z M989.9,562.2
			c-0.9,0.9-1.3,2.1-1.3,3.5c0,1.7,0.4,3.1,1.3,3.9c0.7,0.7,1.5,1,2.5,1c1,0,1.8-0.3,2.5-1c0.9-0.9,1.3-2.2,1.3-3.9
			c0-1.5-0.4-2.7-1.3-3.5c-0.7-0.7-1.5-1-2.5-1C991.4,561.2,990.6,561.5,989.9,562.2z M990.2,550.8c-0.7,0.7-1,1.9-1,3.7v0.1
			c0,1.6,0.3,2.7,1,3.4c0.6,0.6,1.4,0.9,2.2,0.9c0.9,0,1.6-0.3,2.2-0.9c0.7-0.7,1-1.8,1-3.4v-0.1c0-1.7-0.4-3-1-3.7
			c-0.6-0.6-1.4-0.9-2.2-0.9C991.5,549.9,990.8,550.2,990.2,550.8z"/>
		<path class="st0" d="M907.9,507.5c0,5.3-1.2,9.2-3.5,11.5c-1,1-2.4,1.6-3.9,1.6c-1.3,0-2.4-0.4-3.1-1.2c-0.9-0.9-1.5-1.8-1.9-2.9
			c-0.3-0.9,0.4-1.9,1.4-1.9l0,0c0.7,0,1.2,0.4,1.4,1.1c0.2,0.7,0.5,1.3,1.1,1.8c0.3,0.4,0.8,0.5,1.4,0.5c0.6,0,1.2-0.3,1.7-0.8
			c1.2-1.2,2-3.6,2.4-7.1c0-0.2-0.3-0.4-0.4-0.2c-0.9,1.4-2.3,2.1-3.9,2.1c-1.3,0-2.5-0.5-3.5-1.6c-1.4-1.4-2.1-3.7-2.1-6.9
			c0-3,0.8-5.2,2.4-6.8c1.4-1.4,3-1.9,4.8-1.6c0.7,0.1,1.5,0.4,2.1,0.8C906.6,497.8,907.9,501.6,907.9,507.5z M901,497.4
			c-0.5,0-1.1,0.3-1.7,0.9c-1,1-1.4,2.7-1.4,5.2c0,2.7,0.4,4.5,1.3,5.4c0.5,0.5,1.1,0.8,1.8,0.8c0.8,0,1.5-0.3,2.1-0.9
			c1-1,1.6-2.6,1.6-4.7c0-2.8-0.6-4.8-1.7-5.9C902.4,497.7,901.7,497.4,901,497.4z"/>
		<g>
			<path class="st0" d="M646.1,541.6c-0.8,0-1.5-0.7-1.5-1.5v-8.7v-8.8c0-0.7-0.6-1.3-1.3-1.3h-1.9c-0.4,0-0.8-0.4-0.8-0.8l0,0
				c0-0.4,0.3-0.8,0.7-0.8c2.4-0.2,3.9-1.2,4.5-3.1c0.1-0.4,0.5-0.6,0.8-0.6l0,0c0.5,0,0.9,0.4,0.9,0.9v23.2
				C647.6,540.9,646.9,541.6,646.1,541.6L646.1,541.6z"/>
			<path class="st0" d="M635.4,541.6c-0.8,0-1.5-0.7-1.5-1.5v-8.7v-8.8c0-0.7-0.6-1.3-1.3-1.3h-1.9c-0.4,0-0.8-0.4-0.8-0.8l0,0
				c0-0.4,0.3-0.8,0.7-0.8c2.4-0.2,3.9-1.2,4.5-3.1c0.1-0.4,0.5-0.6,0.8-0.6l0,0c0.5,0,0.9,0.4,0.9,0.9v23.2
				C636.9,540.9,636.3,541.6,635.4,541.6L635.4,541.6z"/>
		</g>
		<g>
			<path class="st0" d="M800.5,477.2c1.2-1.2,2.6-1.8,4.1-1.8c1.5,0,2.8,0.6,4.1,1.8c2.1,2.1,3.1,5.7,3.1,10.9c0,5.2-1,8.9-3.1,11
				c-1.2,1.2-2.6,1.8-4.1,1.8c-1.5,0-2.8-0.6-4.1-1.8c-2.1-2.1-3.1-5.8-3.1-11C797.3,482.9,798.4,479.3,800.5,477.2z M806.3,478.7
				c-0.5-0.5-1.1-0.8-1.7-0.8c-0.6,0-1.2,0.3-1.7,0.8c-1.7,1.7-2.5,4.9-2.5,9.4c0,4.7,0.8,7.9,2.5,9.6c0.5,0.5,1.1,0.8,1.7,0.8
				c0.6,0,1.2-0.3,1.7-0.8c1.7-1.7,2.5-4.9,2.5-9.6C808.7,483.5,807.9,480.3,806.3,478.7z"/>
			<path class="st0" d="M792.9,500.9c-0.8,0-1.5-0.7-1.5-1.5v-8.7v-8.8c0-0.7-0.6-1.3-1.3-1.3h-1.9c-0.4,0-0.8-0.4-0.8-0.8l0,0
				c0-0.4,0.3-0.8,0.7-0.8c2.4-0.2,3.9-1.2,4.5-3.1c0.1-0.4,0.5-0.6,0.8-0.6l0,0c0.5,0,0.9,0.4,0.9,0.9v23.2
				C794.4,500.3,793.7,500.9,792.9,500.9L792.9,500.9z"/>
		</g>
		<g>
			<path class="st0" d="M498.7,704.4c-0.8,0-1.5-0.7-1.5-1.5v-8.7v-8.8c0-0.7-0.6-1.3-1.3-1.3h-1.9c-0.4,0-0.8-0.4-0.8-0.8l0,0
				c0-0.4,0.3-0.8,0.7-0.8c2.4-0.2,3.9-1.2,4.5-3.1c0.1-0.4,0.5-0.6,0.8-0.6l0,0c0.5,0,0.9,0.4,0.9,0.9v23.2
				C500.2,703.7,499.5,704.4,498.7,704.4L498.7,704.4z"/>
			<path class="st0" d="M516.1,703.2L516.1,703.2c0,0.7-0.6,1.2-1.2,1.2h-10.5c-0.9,0-1.7-0.7-1.7-1.7l0,0c0-0.3,0.1-0.6,0.2-0.8
				c2-3.6,4.4-7.1,7.3-10.4c1.7-1.9,2.5-3.9,2.5-6c0-1.5-0.4-2.6-1.2-3.4c-0.5-0.5-1.2-0.8-2.1-0.8c-0.7,0-1.4,0.4-2.1,1
				c-0.6,0.6-1,1.8-1.1,3.5c-0.1,0.8-0.7,1.3-1.4,1.3l0,0c-0.9,0-1.5-0.8-1.4-1.6c0.3-2.3,1-4.1,2.1-5.2c1-1,2.4-1.6,4.2-1.6
				c1.7,0,3.1,0.6,4.2,1.7c1.2,1.2,1.8,2.9,1.8,5.1c0,2.5-1.2,5.2-3.5,7.9c-2.1,2.4-3.9,4.7-5.4,7c-0.4,0.6,0,1.4,0.7,1.4h7.4
				C515.5,701.9,516.1,702.5,516.1,703.2z"/>
		</g>
	</g>
</g>
</svg>
