<?xml version="1.0" encoding="utf-8"?>
<!-- Generator: Adobe Illustrator 27.9.0, SVG Export Plug-In . SVG Version: 6.00 Build 0)  -->
<svg version="1.1" id="Ebene_1" xmlns="http://www.w3.org/2000/svg" xmlns:xlink="http://www.w3.org/1999/xlink" x="0px" y="0px"
	 viewBox="0 0 50 50" style="enable-background:new 0 0 50 50;" xml:space="preserve">
<style type="text/css">
	.st0{fill:#EBCF87;}
</style>
<path class="st0" d="M33.6,36.1h-6.3v-10c6.1-1.1,10.9-6.4,10.9-13C38.2,5.9,32.2,0,25,0S11.8,5.9,11.8,13.2c0,6.4,4.7,11.9,10.9,13
	v10h-6.3c-1.3,0-2.3,1-2.3,2.3s1,2.3,2.3,2.3h6.3v7c0,1.3,1,2.3,2.3,2.3s2.3-1,2.3-2.3v-7h6.3c1.3,0,2.3-1,2.3-2.3
	S34.9,36.1,33.6,36.1z M16.4,13.2c0-4.8,3.9-8.5,8.5-8.5c4.8,0,8.5,3.9,8.5,8.5c0,4.8-3.9,8.5-8.5,8.5
	C20.2,21.7,16.4,17.8,16.4,13.2z"/>
</svg>
