<?xml version="1.0" encoding="utf-8"?>
<!-- Generator: Adobe Illustrator 27.9.0, SVG Export Plug-In . SVG Version: 6.00 Build 0)  -->
<svg version="1.1" id="Ebene_1" xmlns="http://www.w3.org/2000/svg" xmlns:xlink="http://www.w3.org/1999/xlink" x="0px" y="0px"
	 viewBox="0 0 50 50" style="enable-background:new 0 0 50 50;" xml:space="preserve">
<style type="text/css">
	.st0{fill:#EBCF87;}
</style>
<path class="st0" d="M47.8,6.7l-3.2-5.5C44.2,0.5,43.4,0,42.6,0c-0.8,0-1.5,0.4-1.9,1.1l-3.2,5.5c-0.4,0.7-0.4,1.5,0,2.2
	c0.4,0.7,1.1,1.1,1.9,1.1h1c0.1,5.1,0,9.9-2.9,12.9c-2,2.1-5.3,3.1-10.2,3.4V10.1h1c0.8,0,1.5-0.4,1.9-1.1c0.4-0.7,0.4-1.5,0-2.2
	l-3.2-5.5c-0.4-0.7-1.1-1.1-1.9-1.1s-1.5,0.4-1.9,1.1l-3.2,5.5c-0.4,0.7-0.4,1.5,0,2.2c0.4,0.7,1.1,1.1,1.9,1.1h1v16.2
	c-4.9-0.3-8.2-1.3-10.2-3.4c-2.9-3-3-7.7-2.9-12.9h1c0.8,0,1.5-0.4,1.9-1.1c0.4-0.7,0.4-1.5,0-2.2L9.3,1.1C8.9,0.5,8.2,0,7.4,0
	S5.9,0.4,5.5,1.1L2.3,6.7c-0.4,0.7-0.4,1.5,0,2.2C2.6,9.5,3.4,10,4.2,10h1c-0.1,5.5,0,11.7,4.1,15.9c2.9,3,7.2,4.5,13.3,4.8v5.1
	h-7.2c-1.2,0-2.2,1-2.2,2.2c0,1.2,1,2.2,2.2,2.2h7.2v7.6c0,1.2,1,2.2,2.2,2.2c1.2,0,2.2-1,2.2-2.2v-7.6h7.2c1.2,0,2.2-1,2.2-2.2
	c0-1.2-1-2.2-2.2-2.2H27v-5.1c6.1-0.3,10.5-1.8,13.3-4.8c4.1-4.2,4.2-10.4,4.1-15.9h1c0.8,0,1.5-0.4,1.9-1.1
	C48.2,8.2,48.2,7.3,47.8,6.7z"/>
</svg>
