<?xml version="1.0" encoding="utf-8"?>
<!-- Generator: Adobe Illustrator 27.9.0, SVG Export Plug-In . SVG Version: 6.00 Build 0)  -->
<svg version="1.1" id="Ebene_1" xmlns="http://www.w3.org/2000/svg" xmlns:xlink="http://www.w3.org/1999/xlink" x="0px" y="0px"
	 viewBox="0 0 50 50" style="enable-background:new 0 0 50 50;" xml:space="preserve">
<style type="text/css">
	.st0{fill:#EBCF87;}
</style>
<g>
	<path class="st0" d="M47.5,10.8c0.1-1.2-0.7-2.2-1.9-2.3c-1.2-0.1-2.2,0.7-2.3,1.9c-0.7,9.5-8.8,16.8-18.3,16.8S7.5,19.9,6.7,10.5
		c-0.1-1.2-1.1-2-2.3-1.9c-1.2,0.1-2,1.1-1.9,2.3c0.9,10.9,9.7,19.7,20.4,20.7v4.9H16c-1.2,0-2.1,0.9-2.1,2.1s0.9,2.1,2.1,2.1h6.9
		v7.3c0,1.2,0.9,2.1,2.1,2.1c1.2,0,2.1-0.9,2.1-2.1v-7.3H34c1.2,0,2.1-0.9,2.1-2.1s-0.9-2.1-2.1-2.1h-6.9v-4.9
		C37.8,30.4,46.6,21.8,47.5,10.8z"/>
	<path class="st0" d="M25,19.9c5.5,0,9.9-4.5,9.9-9.9S30.5,0,25,0s-9.9,4.5-9.9,9.9S19.5,19.9,25,19.9z M25,4.2
		c3.2,0,5.7,2.6,5.7,5.7s-2.6,5.7-5.7,5.7s-5.7-2.6-5.7-5.7C19.3,6.7,21.8,4.2,25,4.2z"/>
</g>
</svg>
