<?xml version="1.0" encoding="utf-8"?>
<!-- Generator: Adobe Illustrator 27.9.0, SVG Export Plug-In . SVG Version: 6.00 Build 0)  -->
<svg version="1.1" id="Ebene_1" xmlns="http://www.w3.org/2000/svg" xmlns:xlink="http://www.w3.org/1999/xlink" x="0px" y="0px"
	 viewBox="0 0 50 50" style="enable-background:new 0 0 50 50;" xml:space="preserve">
<style type="text/css">
	.st0{fill:#EBCF87;}
</style>
<path class="st0" d="M32.7,30.7h-5.8V15.3l5.7,5.7c0.4,0.4,0.8,0.6,1.3,0.6c0.5,0,1-0.2,1.3-0.6c0.7-0.7,0.7-2,0-2.7L28,11.1
	l7.3-7.3c0.7-0.7,0.7-2,0-2.7c-0.7-0.7-2-0.7-2.7,0l-5.7,5.7V1.9C26.9,0.8,26,0,25,0s-1.9,0.8-1.9,1.9v8.8l0,0v0.7l0,0v19.3h-5.8
	c-5.4,0-9.7,4.4-9.7,9.7c0,5.4,4.4,9.7,9.7,9.7h15.4c5.4,0,9.7-4.4,9.7-9.7C42.4,35.1,38,30.7,32.7,30.7z M32.7,46.2H17.3
	c-3.2,0-5.9-2.6-5.9-5.9c0-3.2,2.6-5.9,5.9-5.9h15.4c3.2,0,5.9,2.6,5.9,5.9C38.6,43.6,35.9,46.2,32.7,46.2z"/>
</svg>
