<?xml version="1.0" encoding="utf-8"?>
<!-- Generator: Adobe Illustrator 27.2.0, SVG Export Plug-In . SVG Version: 6.00 Build 0)  -->
<svg version="1.1" xmlns="http://www.w3.org/2000/svg" xmlns:xlink="http://www.w3.org/1999/xlink" x="0px" y="0px"
	 viewBox="0 0 1600 1600" style="enable-background:new 0 0 1600 1600;" xml:space="preserve">
<style type="text/css">
	.st0{display:none;}
	.st1{display:inline;}
	.st2{fill:#EBCF87;}
	.st3{display:inline;fill:#EBCF87;}
</style>
<g id="stay" class="st0">
	<g class="st1">
		<g>
			<g>
				<path class="st2" d="M34,796.9L34,796.9c-1.6,0-2.7-1.4-2.4-3l9.4-43c0.2-1.1,1.2-1.8,2.3-1.8h0.4c1.1,0,2,0.8,2.3,1.8l9.4,43
					c0.3,1.5-0.8,3-2.4,3l0,0c-1.2,0-2.2-0.8-2.4-1.9l-2.1-10.1c-0.2-1.1-1.2-1.9-2.4-1.9h-5.2c-1.2,0-2.2,0.8-2.4,1.9l-2.1,10.1
					C36.2,796.1,35.2,796.9,34,796.9z M43.7,762.1h-0.4l-2.7,13.2c-0.3,1.5,0.8,2.9,2.4,2.9h1.1c1.5,0,2.7-1.4,2.4-2.9L43.7,762.1z"
					/>
			</g>
			<g>
				<path class="st2" d="M78,793.4c-2,2.3-4.2,3.4-6.9,3.4c-2.6,0-4.9-1.1-6.9-3.4c-3.5-4.1-5.2-10.5-5.2-19.1
					c0-10.1,1.9-17.4,5.6-21.8c1.9-2.3,4.2-3.4,6.7-3.4c2.6,0,4.7,0.9,6.3,2.7c2.5,2.9,3.9,6.8,4.1,11.5c0.1,1.3-1,2.4-2.3,2.4l0,0
					c-1.2,0-2.2-1-2.3-2.2c-0.3-4-1.1-6.8-2.4-8.4c-0.8-1-2-1.5-3.3-1.5c-1.3,0-2.4,0.6-3.3,1.7c-2.8,3.3-4.2,9.4-4.2,18.4
					c0,7.8,1.2,13.2,3.5,15.9c1.1,1.3,2.4,2,3.8,2c1.3,0,2.4-0.7,3.5-2c1.2-1.4,1.9-4.4,2.2-9c0.1-1.3,1.1-2.3,2.4-2.3h0
					c1.4,0,2.6,1.2,2.4,2.7C81.2,787,79.9,791.1,78,793.4z"/>
			</g>
		</g>
		<g>
			<g>
				<path class="st2" d="M973.7,70.8v33.9c0,1.1-0.9,1.9-1.9,1.9h-0.3c-1.1,0-1.9-0.9-1.9-1.9V62.4c0-2,1.6-3.6,3.6-3.6h0
					c1.8,0,3.3,1.3,3.5,3.1l4,28h0.4l4-28c0.2-1.8,1.8-3.1,3.5-3.1l0,0c2,0,3.6,1.6,3.6,3.6v42.3c0,1.1-0.9,1.9-1.9,1.9h-0.3
					c-1.1,0-1.9-0.9-1.9-1.9V70.8h-0.4l-4.8,34.1c-0.1,0.9-0.9,1.7-1.9,1.7l0,0c-1,0-1.8-0.7-1.9-1.7l-4.8-34.1H973.7z"/>
			</g>
			<g>
				<path class="st2" d="M1015.2,103.2c-2,2.3-4.2,3.4-6.9,3.4c-2.6,0-4.9-1.1-6.9-3.4c-3.5-4.1-5.2-10.5-5.2-19.1
					c0-10.1,1.9-17.4,5.6-21.8c1.9-2.3,4.2-3.4,6.7-3.4c2.6,0,4.7,0.9,6.3,2.7c2.5,2.9,3.9,6.8,4.1,11.5c0.1,1.3-1,2.4-2.3,2.4l0,0
					c-1.2,0-2.2-1-2.3-2.2c-0.3-4-1.1-6.8-2.4-8.4c-0.8-1-2-1.5-3.3-1.5c-1.3,0-2.4,0.6-3.3,1.7c-2.8,3.3-4.2,9.4-4.2,18.4
					c0,7.8,1.2,13.2,3.5,15.9c1.1,1.3,2.4,2,3.8,2c1.3,0,2.4-0.7,3.5-2c1.2-1.4,1.9-4.4,2.2-8.9c0.1-1.3,1.1-2.3,2.5-2.3l0,0
					c1.4,0,2.6,1.2,2.5,2.7C1018.4,96.8,1017.1,100.9,1015.2,103.2z"/>
			</g>
		</g>
		<g>
			<path class="st2" d="M1549.5,756.1c3.1,3.8,4.7,10.4,4.7,19.8c0,9.2-1.4,15.6-4.3,19c-2.7,3.3-6.1,4.9-10.3,4.9h-1.9
				c-2.8,0-5-2.1-5-4.8v-38.6c0-2.6,2.2-4.8,5-4.8h1.9C1543.8,751.7,1547.1,753.2,1549.5,756.1z M1539.6,795.1
				c2.4,0,4.6-1.2,6.5-3.5c2-2.5,3-7.7,3-15.8c0-8.2-1.1-13.7-3.2-16.3c-1.8-2.1-3.9-3.2-6.3-3.2l0,0c-1.2,0-2.2,0.9-2.2,2.1V793
				C1537.3,794.2,1538.3,795.1,1539.6,795.1L1539.6,795.1z"/>
			<path class="st2" d="M1576.3,796.2c-2,2.3-4.2,3.4-6.9,3.4c-2.6,0-4.9-1.1-6.9-3.4c-3.5-4.1-5.2-10.5-5.2-19.1
				c0-10.1,1.9-17.4,5.6-21.8c1.9-2.3,4.2-3.4,6.7-3.4c2.6,0,4.7,0.9,6.3,2.7c2.5,2.9,3.9,6.8,4.1,11.5c0.1,1.3-1,2.4-2.3,2.4l0,0
				c-1.2,0-2.2-1-2.3-2.2c-0.3-4-1.1-6.8-2.4-8.4c-0.8-1-2-1.5-3.3-1.5c-1.3,0-2.4,0.6-3.3,1.7c-2.8,3.3-4.2,9.4-4.2,18.4
				c0,7.8,1.2,13.2,3.5,15.9c1.1,1.3,2.4,2,3.8,2c1.3,0,2.4-0.7,3.5-2c1.2-1.4,1.9-4.4,2.2-8.9c0.1-1.3,1.1-2.3,2.5-2.3l0,0
				c1.4,0,2.6,1.2,2.5,2.7C1579.5,789.8,1578.3,793.9,1576.3,796.2z"/>
		</g>
		<g>
			<path class="st2" d="M602.5,1502v43.5c0,1.3,1,2.3,2.3,2.3l0,0c1.3,0,2.3-1,2.3-2.3V1502c0-1.3-1-2.3-2.3-2.3l0,0
				C603.5,1499.6,602.5,1500.7,602.5,1502z"/>
			<path class="st2" d="M631,1544.2c-2,2.3-4.2,3.4-6.9,3.4c-2.6,0-4.9-1.1-6.9-3.4c-3.5-4.1-5.2-10.5-5.2-19.1
				c0-10.1,1.9-17.4,5.6-21.8c1.9-2.3,4.2-3.4,6.7-3.4c2.6,0,4.7,0.9,6.3,2.7c2.5,2.9,3.9,6.8,4.1,11.5c0.1,1.3-1,2.4-2.3,2.4l0,0
				c-1.2,0-2.2-1-2.3-2.2c-0.3-4-1.1-6.8-2.4-8.4c-0.8-1-2-1.5-3.3-1.5c-1.3,0-2.4,0.6-3.3,1.7c-2.8,3.3-4.2,9.4-4.2,18.4
				c0,7.8,1.2,13.2,3.5,15.9c1.1,1.3,2.4,2,3.8,2c1.3,0,2.4-0.7,3.5-2c1.2-1.4,1.9-4.4,2.2-8.9c0.1-1.3,1.1-2.3,2.5-2.3l0,0
				c1.4,0,2.6,1.2,2.5,2.7C634.2,1537.8,633,1541.9,631,1544.2z"/>
		</g>
		<g>
			<path class="st2" d="M1513.7,800.6H1489c-0.8,0-1.4-0.6-1.4-1.4c0-0.8,0.6-1.4,1.4-1.4h24.6c0.8,0,1.4,0.6,1.4,1.4
				C1515.1,800,1514.4,800.6,1513.7,800.6z"/>
		</g>
		<g>
			<path class="st2" d="M649.5,1497.6c-0.1,0-0.2,0-0.3,0c-0.8-0.2-1.3-0.9-1.1-1.7l4.7-22c0.2-0.8,0.9-1.3,1.7-1.1
				c0.8,0.2,1.3,0.9,1.1,1.7l-4.7,22C650.8,1497.1,650.2,1497.6,649.5,1497.6z"/>
		</g>
		<g>
			<g>
				<g>
					<line class="st2" x1="209.8" y1="799.3" x2="99.1" y2="799.3"/>
					<path class="st2" d="M209.8,800.5H99.1c-0.6,0-1.2-0.5-1.2-1.1c0-0.6,0.5-1.1,1.2-1.1h110.7c0.6,0,1.1,0.5,1.1,1.1
						C211,799.9,210.4,800.5,209.8,800.5z"/>
				</g>
				<g>
					<line class="st2" x1="99.1" y1="799.3" x2="125.1" y2="773.3"/>
					<path class="st2" d="M99.1,800.5c-0.3,0-0.6-0.1-0.8-0.3c-0.4-0.4-0.4-1.2,0-1.6l26-26c0.4-0.4,1.2-0.4,1.6,0
						c0.4,0.4,0.4,1.2,0,1.6l-26,26C99.6,800.3,99.4,800.5,99.1,800.5z"/>
				</g>
				<g>
					<line class="st2" x1="99.1" y1="799.3" x2="125.1" y2="825.3"/>
					<path class="st2" d="M125.1,826.4c-0.3,0-0.6-0.1-0.8-0.3l-26-26c-0.4-0.4-0.4-1.2,0-1.6c0.4-0.4,1.2-0.4,1.6,0l26,26
						c0.4,0.4,0.4,1.2,0,1.6C125.6,826.3,125.3,826.4,125.1,826.4z"/>
				</g>
			</g>
			<g>
				<g>
					<line class="st2" x1="925.7" y1="222.5" x2="949.2" y2="114.3"/>
					<path class="st2" d="M925.7,223.6c-0.1,0-0.2,0-0.2,0c-0.6-0.1-1-0.7-0.9-1.4L948.1,114c0.1-0.6,0.7-1,1.4-0.9
						c0.6,0.1,1,0.7,0.9,1.4l-23.5,108.2C926.7,223.3,926.3,223.6,925.7,223.6z"/>
				</g>
				<g>
					<line class="st2" x1="949.2" y1="114.3" x2="969.1" y2="145.2"/>
					<path class="st2" d="M969.1,146.3c-0.4,0-0.7-0.2-1-0.5l-19.9-30.9c-0.3-0.5-0.2-1.2,0.3-1.6c0.5-0.3,1.2-0.2,1.6,0.3
						l19.9,30.9c0.3,0.5,0.2,1.2-0.3,1.6C969.5,146.3,969.3,146.3,969.1,146.3z"/>
				</g>
				<g>
					<line class="st2" x1="949.2" y1="114.3" x2="918.3" y2="134.2"/>
					<path class="st2" d="M918.3,135.3c-0.4,0-0.7-0.2-1-0.5c-0.3-0.5-0.2-1.2,0.3-1.6l30.9-19.9c0.5-0.3,1.2-0.2,1.6,0.3
						c0.3,0.5,0.2,1.2-0.3,1.6l-30.9,19.9C918.7,135.2,918.5,135.3,918.3,135.3z"/>
				</g>
			</g>
			<g>
				<g>
					<path class="st2" d="M1052.1,1334.4c-0.4,0-0.7-0.2-0.9-0.5l-109.7-232.3c-0.2-0.5,0-1,0.5-1.3c0.5-0.2,1,0,1.3,0.5
						l109.7,232.3c0.2,0.5,0,1-0.5,1.3C1052.4,1334.4,1052.3,1334.4,1052.1,1334.4z"/>
				</g>
				<g>
					<path class="st2" d="M466.2,800.3H208.9c-0.5,0-0.9-0.4-0.9-0.9s0.4-0.9,0.9-0.9h257.3c0.5,0,0.9,0.4,0.9,0.9
						S466.7,800.3,466.2,800.3z"/>
				</g>
				<g>
					<path class="st2" d="M1391,800.3h-257.3c-0.5,0-0.9-0.4-0.9-0.9s0.4-0.9,0.9-0.9H1391c0.5,0,0.9,0.4,0.9,0.9
						S1391.5,800.3,1391,800.3z"/>
				</g>
				<g>
					<path class="st2" d="M1061.3,592.8c-0.3,0-0.6-0.1-0.7-0.4c-0.3-0.4-0.3-1,0.2-1.3l201.6-160c0.4-0.3,1-0.3,1.3,0.2
						c0.3,0.4,0.3,1-0.2,1.3l-201.6,160C1061.8,592.7,1061.6,592.8,1061.3,592.8z"/>
				</g>
				<g>
					<path class="st2" d="M958.2,506.3c-0.2,0-0.3,0-0.4-0.1c-0.5-0.2-0.6-0.8-0.4-1.3l121.9-226.4c0.2-0.5,0.8-0.6,1.3-0.4
						c0.5,0.2,0.6,0.8,0.4,1.3L959,505.8C958.8,506.2,958.5,506.3,958.2,506.3z"/>
				</g>
				<g>
					<path class="st2" d="M871.2,474.1c-0.1,0-0.1,0-0.2,0c-0.5-0.1-0.8-0.6-0.7-1.1l55-251.4c0.1-0.5,0.6-0.8,1.1-0.7
						c0.5,0.1,0.8,0.6,0.7,1.1l-55,251.4C872,473.8,871.6,474.1,871.2,474.1z"/>
				</g>
				<g>
					<path class="st2" d="M742.6,471.4c-0.5,0-0.9-0.3-0.9-0.8l-44.1-253.4c-0.1-0.5,0.3-1,0.8-1.1c0.5-0.1,1,0.3,1.1,0.8
						l44.1,253.4c0.1,0.5-0.3,1-0.8,1.1C742.7,471.4,742.7,471.4,742.6,471.4z"/>
				</g>
				<g>
					<path class="st2" d="M299.8,1115.2c-0.3,0-0.6-0.2-0.8-0.4c-0.3-0.4-0.1-1,0.3-1.3L517,976.3c0.4-0.3,1-0.1,1.3,0.3
						c0.3,0.4,0.1,1-0.3,1.3L300.3,1115C300.2,1115.1,300,1115.2,299.8,1115.2z"/>
				</g>
				<g>
					<path class="st2" d="M470,1290.6c-0.2,0-0.4-0.1-0.5-0.2c-0.4-0.3-0.6-0.9-0.3-1.3l143.6-213.4c0.3-0.4,0.9-0.6,1.3-0.3
						c0.4,0.3,0.6,0.9,0.3,1.3l-143.6,213.4C470.6,1290.4,470.3,1290.6,470,1290.6z"/>
				</g>
				<g>
					<path class="st2" d="M673.2,1377.7c-0.1,0-0.1,0-0.2,0c-0.5-0.1-0.8-0.6-0.7-1.1l55.1-251.3c0.1-0.5,0.6-0.8,1.1-0.7
						c0.5,0.1,0.8,0.6,0.7,1.1l-55.1,251.3C674.1,1377.4,673.7,1377.7,673.2,1377.7z"/>
				</g>
				<g>
					<path class="st2" d="M830.8,1390.4c-0.5,0-0.9-0.4-0.9-0.9l-13.5-256.9c0-0.5,0.4-1,0.9-1c0.5,0,1,0.4,1,0.9l13.5,256.9
						C831.8,1390,831.4,1390.4,830.8,1390.4C830.9,1390.4,830.9,1390.4,830.8,1390.4z"/>
				</g>
				<g>
					<path class="st2" d="M549.3,579.9c-0.2,0-0.4-0.1-0.6-0.2L355.8,410c-0.4-0.3-0.4-0.9-0.1-1.3c0.3-0.4,0.9-0.4,1.3-0.1
						l192.9,169.7c0.4,0.3,0.4,0.9,0.1,1.3C549.8,579.7,549.6,579.9,549.3,579.9z"/>
				</g>
				<g>
					<path class="st2" d="M799.9,1134c-45.2,0-89-8.8-130.3-26.3c-39.9-16.9-75.6-41-106.4-71.7c-30.7-30.7-54.9-66.5-71.7-106.4
						c-17.5-41.3-26.3-85.1-26.3-130.3c0-45.2,8.8-89,26.3-130.3c16.9-39.9,41-75.6,71.7-106.4c30.7-30.7,66.5-54.9,106.4-71.7
						c41.3-17.5,85.1-26.3,130.3-26.3c45.2,0,89,8.8,130.3,26.3c39.9,16.9,75.6,41,106.4,71.7c30.7,30.7,54.9,66.5,71.7,106.4
						c17.5,41.3,26.3,85.1,26.3,130.3c0,45.2-8.8,89-26.3,130.3c-16.9,39.9-41,75.6-71.7,106.4c-30.7,30.7-66.5,54.9-106.4,71.7
						C888.9,1125.1,845.1,1134,799.9,1134z M799.9,466.5c-183.5,0-332.8,149.3-332.8,332.8s149.3,332.8,332.8,332.8
						c183.5,0,332.8-149.3,332.8-332.8S983.4,466.5,799.9,466.5z"/>
				</g>
				<g>
					<path class="st2" d="M799.9,1124.8c-86.9,0-168.7-33.9-230.1-95.3c-61.5-61.5-95.3-143.2-95.3-230.1
						c0-86.9,33.9-168.7,95.3-230.1s143.2-95.3,230.1-95.3s168.7,33.9,230.1,95.3s95.3,143.2,95.3,230.1
						c0,86.9-33.9,168.7-95.3,230.1C968.6,1090.9,886.9,1124.8,799.9,1124.8z M799.9,475.7c-178.4,0-323.6,145.2-323.6,323.6
						s145.2,323.6,323.6,323.6s323.6-145.2,323.6-323.6S978.3,475.7,799.9,475.7z"/>
				</g>
				<g>
					<path class="st2" d="M799.9,1090.1c-77.7,0-150.7-30.3-205.7-85.2c-54.9-54.9-85.2-128-85.2-205.7s30.3-150.7,85.2-205.7
						c54.9-54.9,128-85.2,205.7-85.2s150.7,30.3,205.7,85.2c54.9,54.9,85.2,128,85.2,205.7s-30.3,150.7-85.2,205.7
						C950.6,1059.9,877.6,1090.1,799.9,1090.1z M799.9,510.4C640.6,510.4,511,640,511,799.3c0,159.3,129.6,288.9,288.9,288.9
						c159.3,0,288.9-129.6,288.9-288.9C1088.9,640,959.2,510.4,799.9,510.4z"/>
				</g>
				<g>
					<path class="st2" d="M799.9,1081.4c-75.4,0-146.2-29.3-199.5-82.6c-53.3-53.3-82.6-124.1-82.6-199.5s29.3-146.2,82.6-199.5
						c53.3-53.3,124.1-82.6,199.5-82.6s146.2,29.3,199.5,82.6c53.3,53.3,82.6,124.1,82.6,199.5s-29.3,146.2-82.6,199.5
						C946.1,1052.1,875.3,1081.4,799.9,1081.4z M799.9,519.1c-154.5,0-280.2,125.7-280.2,280.2s125.7,280.2,280.2,280.2
						c154.5,0,280.2-125.7,280.2-280.2S954.4,519.1,799.9,519.1z"/>
				</g>
				<g>
					<path class="st2" d="M938.5,1093.6c-0.4,0-0.8-0.2-1-0.6l-14.8-31.3c-0.3-0.5,0-1.2,0.5-1.4c0.5-0.3,1.2,0,1.4,0.5l14.8,31.3
						c0.3,0.5,0,1.2-0.5,1.4C938.8,1093.5,938.6,1093.6,938.5,1093.6z"/>
				</g>
				<g>
					<path class="st2" d="M510.1,800.2h-34.6c-0.6,0-1.1-0.5-1.1-1.1c0-0.6,0.5-1.1,1.1-1.1h34.6c0.6,0,1.1,0.5,1.1,1.1
						C511.2,799.7,510.7,800.2,510.1,800.2z"/>
				</g>
				<g>
					<path class="st2" d="M1124.3,800.2h-34.6c-0.6,0-1.1-0.5-1.1-1.1c0-0.6,0.5-1.1,1.1-1.1h34.6c0.6,0,1.1,0.5,1.1,1.1
						C1125.4,799.7,1124.9,800.2,1124.3,800.2z"/>
				</g>
				<g>
					<path class="st2" d="M1026.9,620c-0.3,0-0.6-0.1-0.8-0.4c-0.4-0.5-0.3-1.1,0.2-1.5l27.1-21.5c0.5-0.4,1.1-0.3,1.5,0.2
						c0.4,0.5,0.3,1.1-0.2,1.5l-27.1,21.5C1027.4,619.9,1027.1,620,1026.9,620z"/>
				</g>
				<g>
					<path class="st2" d="M937.3,545c-0.2,0-0.3,0-0.5-0.1c-0.5-0.3-0.7-0.9-0.4-1.5l16.4-30.5c0.3-0.5,0.9-0.7,1.5-0.4
						c0.5,0.3,0.7,0.9,0.4,1.5l-16.4,30.5C938.1,544.7,937.7,545,937.3,545z"/>
				</g>
				<g>
					<path class="st2" d="M861.8,517c-0.1,0-0.2,0-0.2,0c-0.6-0.1-0.9-0.7-0.8-1.3l7.4-33.8c0.1-0.6,0.7-0.9,1.3-0.8
						c0.6,0.1,0.9,0.7,0.8,1.3l-7.4,33.8C862.8,516.7,862.3,517,861.8,517z"/>
				</g>
				<g>
					<path class="st2" d="M750.2,514.6c-0.5,0-1-0.4-1.1-0.9l-5.9-34.1c-0.1-0.6,0.3-1.1,0.9-1.2c0.6-0.1,1.1,0.3,1.2,0.9l5.9,34.1
						c0.1,0.6-0.3,1.1-0.9,1.2C750.3,514.6,750.2,514.6,750.2,514.6z"/>
				</g>
				<g>
					<path class="st2" d="M525.4,973c-0.4,0-0.7-0.2-0.9-0.5c-0.3-0.5-0.2-1.2,0.3-1.5l29.3-18.4c0.5-0.3,1.2-0.2,1.5,0.3
						c0.3,0.5,0.2,1.2-0.3,1.5L526,972.9C525.8,973,525.6,973,525.4,973z"/>
				</g>
				<g>
					<path class="st2" d="M618.8,1069.3c-0.2,0-0.4-0.1-0.6-0.2c-0.5-0.3-0.6-1-0.3-1.5l19.3-28.7c0.3-0.5,1-0.6,1.5-0.3
						c0.5,0.3,0.6,1,0.3,1.5l-19.3,28.7C619.5,1069.2,619.2,1069.3,618.8,1069.3z"/>
				</g>
				<g>
					<path class="st2" d="M730.4,1117.1c-0.1,0-0.2,0-0.2,0c-0.6-0.1-0.9-0.7-0.8-1.3l7.4-33.8c0.1-0.6,0.7-0.9,1.3-0.8
						c0.6,0.1,0.9,0.7,0.8,1.3l-7.4,33.8C731.3,1116.7,730.9,1117.1,730.4,1117.1z"/>
				</g>
				<g>
					<path class="st2" d="M816.9,1124.1c-0.6,0-1-0.4-1.1-1l-1.8-34.6c0-0.6,0.4-1.1,1-1.1c0.6,0,1.1,0.4,1.1,1l1.8,34.6
						C818,1123.6,817.5,1124.1,816.9,1124.1C816.9,1124.1,816.9,1124.1,816.9,1124.1z"/>
				</g>
				<g>
					<path class="st2" d="M582.3,608.8c-0.3,0-0.5-0.1-0.7-0.3l-26-22.9c-0.4-0.4-0.5-1.1-0.1-1.5c0.4-0.4,1.1-0.5,1.5-0.1l26,22.9
						c0.4,0.4,0.5,1.1,0.1,1.5C582.9,608.7,582.6,608.8,582.3,608.8z"/>
				</g>
				<path class="st2" d="M505.8,895.8c-0.8,0-1.5-0.7-1.5-1.5v-8.7v-8.8c0-0.7-0.6-1.3-1.3-1.3h-1.9c-0.4,0-0.8-0.4-0.8-0.8l0,0
					c0-0.4,0.3-0.8,0.7-0.8c2.4-0.2,3.9-1.2,4.5-3.1c0.1-0.4,0.5-0.6,0.8-0.6l0,0c0.5,0,0.9,0.4,0.9,0.9v23.2
					C507.3,895.1,506.6,895.8,505.8,895.8L505.8,895.8z"/>
				<path class="st2" d="M586.4,1022.7L586.4,1022.7c0,0.7-0.6,1.2-1.2,1.2h-10.5c-0.9,0-1.7-0.7-1.7-1.7l0,0c0-0.3,0.1-0.6,0.2-0.8
					c2-3.6,4.4-7.1,7.3-10.4c1.7-1.9,2.5-3.9,2.5-6c0-1.5-0.4-2.6-1.2-3.4c-0.5-0.5-1.2-0.8-2.1-0.8c-0.7,0-1.4,0.4-2.1,1
					c-0.6,0.6-1,1.8-1.1,3.5c-0.1,0.8-0.7,1.3-1.4,1.3l0,0c-0.9,0-1.5-0.8-1.4-1.6c0.3-2.3,1-4.1,2.1-5.2c1-1,2.4-1.6,4.2-1.6
					c1.7,0,3.1,0.6,4.2,1.7c1.2,1.2,1.8,2.9,1.8,5.1c0,2.5-1.2,5.2-3.5,7.9c-2.1,2.4-3.9,4.7-5.4,7c-0.4,0.6,0,1.4,0.7,1.4h7.4
					C585.8,1021.4,586.4,1022,586.4,1022.7z"/>
				<path class="st2" d="M677.5,1090.7c0.6,0.6,1.4,0.9,2.5,0.9c0.9,0,1.7-0.4,2.5-1.2c0.8-0.8,1.2-2.1,1.2-3.9
					c0-1.4-0.5-2.6-1.4-3.5c-0.5-0.5-1.2-0.8-2-0.9c-0.6-0.1-1.1-0.6-1.1-1.2v0c0-0.6,0.4-1.1,1-1.2c0.9-0.2,1.6-0.5,2.2-1.1
					c0.7-0.7,1-1.7,1-3.1c0-1.7-0.4-3-1.2-3.8c-0.5-0.5-1.2-0.8-2-0.8c-0.8,0-1.4,0.3-2,0.8c-0.7,0.7-1.1,1.6-1.3,2.7
					c-0.1,0.7-0.7,1.2-1.4,1.2l0,0c-0.9,0-1.6-0.8-1.4-1.7c0.3-1.5,1-2.7,2-3.8c1-1,2.4-1.6,4.1-1.6c1.7,0,3.1,0.5,4.2,1.6
					c1.2,1.2,1.8,2.8,1.8,4.9c0,1.8-0.5,3.2-1.4,4.2c-0.3,0.3-0.7,0.6-1,0.9c-0.5,0.4-0.5,1.2,0.1,1.5c0.4,0.2,0.8,0.5,1,0.8
					c1.2,1.2,1.8,2.7,1.8,4.5c0,2.3-0.7,4.1-2.1,5.5c-1.2,1.2-2.8,1.8-4.6,1.8c-2,0-3.6-0.6-4.7-1.7c-1-1-1.6-2.4-1.9-4.2
					c-0.1-0.9,0.6-1.7,1.5-1.7h0c0.8,0,1.4,0.6,1.5,1.3C676.4,1089.1,676.8,1090,677.5,1090.7z"/>
				<path class="st2" d="M777.4,1118.5c-0.8,0-1.5-0.7-1.5-1.5v-1.5v-2.4c0-0.3-0.3-0.6-0.6-0.6h-6.2c-1.1,0-2-0.9-2-2l0,0
					c0-0.3,0.1-0.6,0.2-0.9l8-15.6c0.3-0.6,1-1,1.7-1l0,0c1,0,1.9,0.8,1.9,1.9v14.5c0,0.3,0.3,0.6,0.6,0.6h0.9
					c0.7,0,1.2,0.6,1.2,1.2l0,0c0,0.7-0.6,1.2-1.2,1.2h-0.9c-0.3,0-0.6,0.3-0.6,0.6v3.9C778.9,1117.9,778.2,1118.5,777.4,1118.5
					L777.4,1118.5z M775.9,1109.4v-10.1c0-0.2-0.3-0.3-0.4-0.1l-5.4,10.6c-0.1,0.1,0,0.3,0.2,0.3h5
					C775.6,1110,775.9,1109.7,775.9,1109.4z"/>
				<path class="st2" d="M874.4,1106.1c0.5,0.5,1.3,0.8,2.2,0.8c0.8,0,1.5-0.3,2.2-1c1-1,1.6-2.8,1.6-5.2c0-2.3-0.4-3.8-1.3-4.7
					c-0.5-0.5-1.1-0.8-1.8-0.8c-1.4,0-2.5,0.7-3.4,2.1c-0.3,0.4-0.7,0.6-1.2,0.6h-0.3c-0.8,0-1.5-0.7-1.5-1.5l0.6-11.3
					c0-0.7,0.6-1.2,1.2-1.2h8.9c0.7,0,1.2,0.6,1.2,1.2l0,0c0,0.7-0.6,1.2-1.2,1.2h-6.4c-0.6,0-1.2,0.5-1.2,1.2l-0.4,6.7
					c0,0.2,0.2,0.3,0.4,0.2c1.1-1,2.4-1.5,3.9-1.5c1.3,0,2.4,0.5,3.4,1.4c1.4,1.4,2.1,3.5,2.1,6.3c0,3-0.8,5.3-2.5,6.9
					c-1.2,1.2-2.7,1.8-4.5,1.8c-1.8,0-3.3-0.5-4.3-1.6c-1-1-1.6-2.3-1.9-3.9c-0.2-0.9,0.5-1.8,1.4-1.8h0c0.7,0,1.4,0.5,1.5,1.2
					C873.3,1104.5,873.7,1105.4,874.4,1106.1z"/>
				<path class="st2" d="M1056.7,957.1c-0.4-0.3-0.8-0.5-1.3-0.5c-0.7,0-1.3,0.3-1.8,0.8c-1.4,1.4-2.3,4-2.7,7.8
					c0,0.3,0.3,0.4,0.5,0.2c1.1-1.5,2.4-2.2,3.9-2.2c1.3,0,2.5,0.5,3.5,1.6c1.4,1.4,2.1,3.5,2.1,6.4c0,3.1-0.7,5.5-2.2,6.9
					c-1,1-2.4,1.6-4.1,1.6c-1.5,0-2.8-0.6-4.1-1.8c-1.8-1.8-2.8-5.4-2.8-10.6c0-5.2,1.3-9,3.8-11.5c1-1,2.4-1.6,3.9-1.6
					c1.3,0,2.4,0.4,3.1,1.2c0.8,0.8,1.4,1.8,1.7,2.9c0.3,0.9-0.5,1.8-1.4,1.8l0,0c-0.7,0-1.3-0.5-1.4-1.2
					C1057.4,958.1,1057.1,957.5,1056.7,957.1z M1052.7,966.4c-1,1-1.6,2.4-1.6,4.2c0,2.7,0.6,4.7,1.8,5.9c0.5,0.5,1.1,0.8,1.8,0.8
					c0.7,0,1.4-0.3,2-0.9c0.8-0.8,1.2-2.5,1.2-5.2c0-2.4-0.4-4-1.3-4.9c-0.5-0.5-1.1-0.8-1.8-0.8
					C1054,965.5,1053.3,965.8,1052.7,966.4z"/>
				<path class="st2" d="M1089,715.2l5.7-20.4c0.1-0.4-0.2-0.8-0.6-0.8h-7.6c-0.7,0-1.2-0.6-1.2-1.2l0,0c0-0.7,0.6-1.2,1.2-1.2h8.8
					c1.3,0,2.4,1.1,2.4,2.4l0,0c0,0.2,0,0.4-0.1,0.6l-5.8,21.4c-0.2,0.6-0.7,1.1-1.4,1.1l0,0C1089.5,717.1,1088.8,716.2,1089,715.2z
					"/>
				<path class="st2" d="M1003,564.6c1.4,1.4,2.1,2.9,2.1,4.5c0,2.4-0.7,4.2-2.1,5.6c-1.1,1.1-2.7,1.7-4.7,1.7c-2,0-3.6-0.6-4.7-1.7
					c-1.4-1.4-2.1-3.3-2.1-5.6c0-1.6,0.7-3.1,2.1-4.5c0.3-0.3,0.6-0.5,0.9-0.7c0.4-0.3,0.4-0.9,0-1.2c-0.2-0.1-0.4-0.3-0.6-0.5
					c-1.2-1.2-1.8-2.7-1.8-4.3v-0.1c0-2.2,0.7-3.9,2-5.2c1.1-1.1,2.5-1.7,4.2-1.7c1.7,0,3.1,0.6,4.2,1.7c1.3,1.3,2,3.1,2,5.2v0.1
					c0,1.7-0.6,3.1-1.8,4.3c-0.2,0.2-0.4,0.3-0.6,0.5c-0.4,0.3-0.4,0.9,0,1.2C1002.4,564.1,1002.7,564.3,1003,564.6z M995.7,565.5
					c-0.9,0.9-1.3,2.1-1.3,3.5c0,1.7,0.4,3.1,1.3,3.9c0.7,0.7,1.5,1,2.5,1c1,0,1.8-0.3,2.5-1c0.9-0.9,1.3-2.2,1.3-3.9
					c0-1.5-0.4-2.7-1.3-3.5c-0.7-0.7-1.5-1-2.5-1C997.3,564.5,996.4,564.8,995.7,565.5z M996,554.1c-0.7,0.7-1,1.9-1,3.7v0.1
					c0,1.6,0.3,2.7,1,3.4c0.6,0.6,1.4,0.9,2.2,0.9c0.9,0,1.6-0.3,2.2-0.9c0.7-0.7,1-1.8,1-3.4v-0.1c0-1.7-0.4-3-1-3.7
					c-0.6-0.6-1.4-0.9-2.2-0.9C997.4,553.2,996.6,553.5,996,554.1z"/>
				<path class="st2" d="M913.8,510.8c0,5.3-1.2,9.2-3.5,11.5c-1,1-2.4,1.6-3.9,1.6c-1.3,0-2.4-0.4-3.1-1.2
					c-0.9-0.9-1.5-1.8-1.9-2.9c-0.3-0.9,0.4-1.9,1.4-1.9l0,0c0.7,0,1.2,0.4,1.4,1.1c0.2,0.7,0.5,1.3,1.1,1.8
					c0.3,0.4,0.8,0.5,1.4,0.5c0.6,0,1.2-0.3,1.7-0.8c1.2-1.2,2-3.6,2.4-7.1c0-0.2-0.3-0.4-0.4-0.2c-0.9,1.4-2.3,2.1-3.9,2.1
					c-1.3,0-2.5-0.5-3.5-1.6c-1.4-1.4-2.1-3.7-2.1-6.9c0-3,0.8-5.2,2.4-6.8c1.4-1.4,3-1.9,4.8-1.6c0.7,0.1,1.5,0.4,2.1,0.8
					C912.5,501.1,913.8,504.9,913.8,510.8z M906.8,500.7c-0.5,0-1.1,0.3-1.7,0.9c-1,1-1.4,2.7-1.4,5.2c0,2.7,0.4,4.5,1.3,5.4
					c0.5,0.5,1.1,0.8,1.8,0.8c0.8,0,1.5-0.3,2.1-0.9c1-1,1.6-2.6,1.6-4.7c0-2.8-0.6-4.8-1.7-5.9C908.3,501,907.6,500.7,906.8,500.7z
					"/>
				<g>
					<path class="st2" d="M651.9,544.9c-0.8,0-1.5-0.7-1.5-1.5v-8.7v-8.8c0-0.7-0.6-1.3-1.3-1.3h-1.9c-0.4,0-0.8-0.4-0.8-0.8l0,0
						c0-0.4,0.3-0.8,0.7-0.8c2.4-0.2,3.9-1.2,4.5-3.1c0.1-0.4,0.5-0.6,0.8-0.6l0,0c0.5,0,0.9,0.4,0.9,0.9v23.2
						C653.4,544.2,652.7,544.9,651.9,544.9L651.9,544.9z"/>
					<path class="st2" d="M641.3,544.9c-0.8,0-1.5-0.7-1.5-1.5v-8.7v-8.8c0-0.7-0.6-1.3-1.3-1.3h-1.9c-0.4,0-0.8-0.4-0.8-0.8l0,0
						c0-0.4,0.3-0.8,0.7-0.8c2.4-0.2,3.9-1.2,4.5-3.1c0.1-0.4,0.5-0.6,0.8-0.6l0,0c0.5,0,0.9,0.4,0.9,0.9v23.2
						C642.8,544.2,642.1,544.9,641.3,544.9L641.3,544.9z"/>
				</g>
				<g>
					<path class="st2" d="M806.3,480.5c1.2-1.2,2.6-1.8,4.1-1.8c1.5,0,2.8,0.6,4.1,1.8c2.1,2.1,3.1,5.7,3.1,10.9c0,5.2-1,8.9-3.1,11
						c-1.2,1.2-2.6,1.8-4.1,1.8c-1.5,0-2.8-0.6-4.1-1.8c-2.1-2.1-3.1-5.8-3.1-11C803.2,486.2,804.2,482.6,806.3,480.5z M812.1,482
						c-0.5-0.5-1.1-0.8-1.7-0.8c-0.6,0-1.2,0.3-1.7,0.8c-1.7,1.7-2.5,4.9-2.5,9.4c0,4.7,0.8,7.9,2.5,9.6c0.5,0.5,1.1,0.8,1.7,0.8
						c0.6,0,1.2-0.3,1.7-0.8c1.7-1.7,2.5-4.9,2.5-9.6C814.6,486.8,813.8,483.6,812.1,482z"/>
					<path class="st2" d="M798.7,504.2c-0.8,0-1.5-0.7-1.5-1.5V494v-8.8c0-0.7-0.6-1.3-1.3-1.3h-1.9c-0.4,0-0.8-0.4-0.8-0.8l0,0
						c0-0.4,0.3-0.8,0.7-0.8c2.4-0.2,3.9-1.2,4.5-3.1c0.1-0.4,0.5-0.6,0.8-0.6l0,0c0.5,0,0.9,0.4,0.9,0.9v23.2
						C800.2,503.6,799.6,504.2,798.7,504.2L798.7,504.2z"/>
				</g>
				<g>
					<path class="st2" d="M504.6,707.7c-0.8,0-1.5-0.7-1.5-1.5v-8.7v-8.8c0-0.7-0.6-1.3-1.3-1.3h-1.9c-0.4,0-0.8-0.4-0.8-0.8l0,0
						c0-0.4,0.3-0.8,0.7-0.8c2.4-0.2,3.9-1.2,4.5-3.1c0.1-0.4,0.5-0.6,0.8-0.6l0,0c0.5,0,0.9,0.4,0.9,0.9v23.2
						C506.1,707,505.4,707.7,504.6,707.7L504.6,707.7z"/>
					<path class="st2" d="M521.9,706.5L521.9,706.5c0,0.7-0.6,1.2-1.2,1.2h-10.5c-0.9,0-1.7-0.7-1.7-1.7l0,0c0-0.3,0.1-0.6,0.2-0.8
						c2-3.6,4.4-7.1,7.3-10.4c1.7-1.9,2.5-3.9,2.5-6c0-1.5-0.4-2.6-1.2-3.4c-0.5-0.5-1.2-0.8-2.1-0.8c-0.7,0-1.4,0.4-2.1,1
						c-0.6,0.6-1,1.8-1.1,3.5c-0.1,0.8-0.7,1.3-1.4,1.3l0,0c-0.9,0-1.5-0.8-1.4-1.6c0.3-2.3,1-4.1,2.1-5.2c1-1,2.4-1.6,4.2-1.6
						c1.7,0,3.1,0.6,4.2,1.7c1.2,1.2,1.8,2.9,1.8,5.1c0,2.5-1.2,5.2-3.5,7.9c-2.1,2.4-3.9,4.7-5.4,7c-0.4,0.6,0,1.4,0.7,1.4h7.4
						C521.4,705.2,521.9,705.8,521.9,706.5z"/>
				</g>
			</g>
		</g>
	</g>
	<path class="st3" d="M1031.6,1192.9c-2.3-1.8-3.8-5.6-3.8-9.7c0-4.1,1.5-7.9,3.8-9.7c1-0.8,1.2-2.3,0.4-3.3c-0.8-1-2.3-1.2-3.3-0.4
		c-3,2.3-4.9,6.4-5.4,11.1h-4.9v-7.4c0-1.3-1-2.3-2.3-2.3c-1.3,0-2.3,1-2.3,2.3v7.4h-4.9c-0.5-4.6-2.5-8.7-5.4-11.1
		c-1-0.8-2.5-0.6-3.3,0.4c-0.8,1-0.6,2.5,0.4,3.3c2.3,1.8,3.8,5.6,3.8,9.7c0,4.1-1.5,7.9-3.8,9.7c-1,0.8-1.2,2.3-0.4,3.3
		c0.5,0.6,1.1,0.9,1.8,0.9c0.5,0,1-0.2,1.4-0.5c3-2.3,4.9-6.4,5.4-11.1h4.9v14c-5.8,1.1-10.2,6.2-10.2,12.3
		c0,6.9,5.6,12.5,12.5,12.5c6.9,0,12.5-5.6,12.5-12.5c0-6.1-4.4-11.2-10.2-12.3v-14h4.9c0.5,4.6,2.5,8.7,5.4,11.1
		c0.4,0.3,0.9,0.5,1.4,0.5c0.7,0,1.4-0.3,1.8-0.9C1032.8,1195.1,1032.6,1193.7,1031.6,1192.9z M1024,1211.8c0,4.4-3.5,7.9-7.9,7.9
		c-4.4,0-7.9-3.5-7.9-7.9c0-4.4,3.5-7.9,7.9-7.9C1020.5,1203.9,1024,1207.4,1024,1211.8z"/>
	<g class="st1">
		<path class="st2" d="M1131.3,1110.6c0.1-1.3-0.8-2.4-2.1-2.5c-1.3-0.1-2.4,0.8-2.5,2.1c-0.8,10.4-9.7,18.5-20.1,18.5
			c-10.4,0-19.2-8.1-20.1-18.5c-0.1-1.3-1.2-2.2-2.5-2.1c-1.3,0.1-2.2,1.2-2.1,2.5c1,12,10.6,21.6,22.4,22.7v5.4h-7.6
			c-1.3,0-2.3,1-2.3,2.3s1,2.3,2.3,2.3h7.6v8c0,1.3,1,2.3,2.3,2.3c1.3,0,2.3-1,2.3-2.3v-8h7.6c1.3,0,2.3-1,2.3-2.3s-1-2.3-2.3-2.3
			h-7.6v-5.4C1120.7,1132.1,1130.3,1122.6,1131.3,1110.6z"/>
		<path class="st2" d="M1106.6,1120.5c6,0,10.9-4.9,10.9-10.9c0-6-4.9-10.9-10.9-10.9c-6,0-10.9,4.9-10.9,10.9
			C1095.7,1115.6,1100.6,1120.5,1106.6,1120.5z M1106.6,1103.3c3.5,0,6.3,2.8,6.3,6.3c0,3.5-2.8,6.3-6.3,6.3c-3.5,0-6.3-2.8-6.3-6.3
			C1100.3,1106.1,1103.1,1103.3,1106.6,1103.3z"/>
	</g>
	<path class="st3" d="M1069.2,394.9l-3.4-5.8c-0.4-0.7-1.2-1.2-2-1.2c-0.8,0-1.6,0.4-2,1.2l-3.4,5.8c-0.4,0.7-0.4,1.6,0,2.3
		c0.4,0.7,1.2,1.2,2,1.2h1c0.1,5.4,0,10.4-3,13.5c-2.1,2.2-5.6,3.3-10.7,3.6v-17h1c0.8,0,1.6-0.4,2-1.2c0.4-0.7,0.4-1.6,0-2.3
		l-3.4-5.8c-0.4-0.7-1.2-1.2-2-1.2s-1.6,0.4-2,1.2l-3.4,5.8c-0.4,0.7-0.4,1.6,0,2.3c0.4,0.7,1.2,1.2,2,1.2h1v17
		c-5.1-0.3-8.6-1.4-10.7-3.6c-3-3.1-3.1-8.1-3-13.5h1c0.8,0,1.6-0.4,2-1.2c0.4-0.7,0.4-1.6,0-2.3l-3.4-5.8c-0.4-0.7-1.2-1.2-2-1.2
		c-0.8,0-1.6,0.4-2,1.2l-3.4,5.8c-0.4,0.7-0.4,1.6,0,2.3c0.4,0.7,1.2,1.2,2,1.2h1.1c-0.1,5.8,0,12.3,4.3,16.7c3,3.1,7.6,4.7,14,5
		v5.4h-7.6c-1.3,0-2.3,1-2.3,2.3c0,1.3,1,2.3,2.3,2.3h7.6v8c0,1.3,1,2.3,2.3,2.3s2.3-1,2.3-2.3v-8h7.6c1.3,0,2.3-1,2.3-2.3
		c0-1.3-1-2.3-2.3-2.3h-7.6v-5.4c6.4-0.3,11-1.9,14-5c4.3-4.4,4.4-10.9,4.3-16.7h1.1c0.8,0,1.6-0.4,2-1.2
		C1069.6,396.5,1069.6,395.6,1069.2,394.9z"/>
</g>
<g id="fast" class="st0">
	<g class="st1">
		<g>
			<path class="st2" d="M908.1,1254.6c-2.2,0-4.4-0.3-6.6-0.9c-1-0.3-1.7-1.2-1.7-2.2s0.7-2,1.7-2.2c9.3-2.4,15.7-10.8,15.7-20.4
				c0-9.6-6.5-18-15.7-20.4c-1-0.3-1.7-1.2-1.7-2.2c0-1.1,0.7-2,1.7-2.2c2.2-0.6,4.4-0.9,6.6-0.9c14.2,0,25.8,11.6,25.8,25.8
				C933.9,1243.1,922.3,1254.6,908.1,1254.6z M911.1,1207.9c6.6,4.7,10.7,12.4,10.7,20.9c0,8.5-4.1,16.2-10.7,20.9
				c10.2-1.5,18.1-10.3,18.1-20.9S921.4,1209.4,911.1,1207.9z"/>
		</g>
	</g>
</g>
<g id="middle" class="st0">
	<g class="st1">
		<g>
			<path class="st2" d="M752.1,384.9c-14.2,0-25.8-11.6-25.8-25.8c0-14.2,11.6-25.8,25.8-25.8c14.2,0,25.8,11.6,25.8,25.8
				C777.8,373.4,766.3,384.9,752.1,384.9z M752.1,338c-11.7,0-21.1,9.5-21.1,21.1c0,11.7,9.5,21.1,21.1,21.1
				c11.7,0,21.1-9.5,21.1-21.1C773.2,347.5,763.7,338,752.1,338z"/>
		</g>
		<g>
			<path class="st2" d="M755.7,359.1c0,2-1.6,3.6-3.6,3.6s-3.6-1.6-3.6-3.6s1.6-3.6,3.6-3.6S755.7,357.1,755.7,359.1z"/>
			<path class="st2" d="M752.1,365.1c-3.3,0-5.9-2.7-5.9-5.9c0-3.3,2.7-5.9,5.9-5.9c3.3,0,5.9,2.7,5.9,5.9
				C758,362.4,755.3,365.1,752.1,365.1z M752.1,357.9c-0.7,0-1.3,0.6-1.3,1.3c0,0.7,0.6,1.3,1.3,1.3c0.7,0,1.3-0.6,1.3-1.3
				C753.3,358.4,752.8,357.9,752.1,357.9z"/>
		</g>
	</g>
	<path class="st3" d="M996.1,400.1h-6.4V390c6.2-1.1,11-6.5,11-13.1c0-7.3-6-13.3-13.3-13.3s-13.3,6-13.3,13.3c0,6.5,4.7,12,11,13.1
		v10.1h-6.4c-1.3,0-2.3,1-2.3,2.3s1,2.3,2.3,2.3h6.4v7.1c0,1.3,1,2.3,2.3,2.3s2.3-1,2.3-2.3v-7.1h6.4c1.3,0,2.3-1,2.3-2.3
		S997.4,400.1,996.1,400.1z M978.7,376.9c0-4.8,3.9-8.6,8.6-8.6c4.8,0,8.6,3.9,8.6,8.6c0,4.8-3.9,8.6-8.6,8.6
		C982.6,385.5,978.7,381.6,978.7,376.9z"/>
	<path class="st3" d="M502.2,477.5c0-2.6-0.8-5.1-2.1-7.1c2.2-2,4.1-5.5,2.2-10.9c-0.4-1.2-1.7-1.8-3-1.4c-1.2,0.4-1.8,1.7-1.4,3
		c1.2,3.3,0,5.1-1,5.9c-2.2-1.7-5-2.8-8.1-2.8c-3,0-5.8,1-8.1,2.8c-1-0.8-2.1-2.6-1-5.9c0.4-1.2-0.2-2.5-1.4-3
		c-1.2-0.4-2.5,0.2-3,1.4c-1.9,5.3,0,8.9,2.2,10.9c-1.3,2.1-2.1,4.5-2.1,7.1c0,6.5,4.7,12,11,13.1v10.1h-6.4c-1.3,0-2.3,1-2.3,2.3
		s1,2.3,2.3,2.3h6.4v7.1c0,1.3,1,2.3,2.3,2.3c1.3,0,2.3-1,2.3-2.3v-7.1h6.4c1.3,0,2.3-1,2.3-2.3s-1-2.3-2.3-2.3h-6.4v-10.1
		C497.4,489.5,502.2,484.1,502.2,477.5z M480.2,477.5c0-4.8,3.9-8.6,8.6-8.6c4.8,0,8.6,3.9,8.6,8.6c0,4.8-3.9,8.6-8.6,8.6
		C484.1,486.2,480.2,482.3,480.2,477.5z"/>
</g>
<g id="slow">
	<g>
		<path class="st2" d="M620.4,1170.8C620.4,1170.8,620.4,1170.7,620.4,1170.8c0-0.1,0-0.1,0-0.2c0-0.1,0-0.1,0-0.2c0,0,0-0.1,0-0.1
			c0-0.1,0-0.1-0.1-0.2c0-0.1,0-0.1-0.1-0.2c0,0,0-0.1,0-0.1c0-0.1-0.1-0.1-0.1-0.2c0-0.1-0.1-0.1-0.1-0.2c0,0,0-0.1-0.1-0.1
			c0,0-0.1-0.1-0.1-0.1c0,0-0.1-0.1-0.1-0.1c0,0,0,0,0,0c0,0,0,0,0,0c0,0-0.1-0.1-0.1-0.1c0,0-0.1-0.1-0.1-0.1c0,0,0,0-0.1,0
			c-0.1,0-0.1-0.1-0.2-0.1c-0.1,0-0.1-0.1-0.2-0.1c0,0,0,0-0.1,0c-0.1,0-0.1,0-0.2-0.1c0,0-0.1,0-0.1,0c0,0,0,0-0.1,0
			c-0.1,0-0.2,0-0.2,0c0,0-0.1,0-0.1,0c0,0,0,0,0,0c0,0-0.1,0-0.1,0c0,0,0,0,0,0l-12.9,0.5c-1.3,0-2.3,1.1-2.2,2.4
			c0,1.3,1.1,2.2,2.3,2.2c0,0,0.1,0,0.1,0l7-0.3l-11.3,11.3c-5.2-3.6-12.4-3.1-17,1.5c-5.2,5.2-5.2,13.6,0,18.8
			c2.6,2.6,6,3.9,9.4,3.9c3.4,0,6.8-1.3,9.4-3.9c4.6-4.6,5.1-11.8,1.5-17l11.3-11.3l-0.3,7c0,1.3,1,2.4,2.2,2.4c0,0,0.1,0,0.1,0
			c1.2,0,2.3-1,2.3-2.2l0.5-12.9C620.4,1170.9,620.4,1170.9,620.4,1170.8C620.4,1170.8,620.4,1170.8,620.4,1170.8z M599.5,1201.6
			c-3.4,3.4-8.9,3.4-12.2,0c-3.4-3.4-3.4-8.9,0-12.2c1.7-1.7,3.9-2.5,6.1-2.5c2.2,0,4.4,0.8,6.1,2.5
			C602.9,1192.8,602.9,1198.3,599.5,1201.6z"/>
		<path class="st2" d="M403.9,934H396V923c0-1.3-1-2.3-2.3-2.3c-1.3,0-2.3,1-2.3,2.3V934h-17.9c4.9-5.9,12.6-17.4,8.7-26.3
			c-1.4-3.3-3.6-5.4-6.4-6.2c-5-1.6-10.2,1.6-10.4,1.8c-1.1,0.7-1.4,2.1-0.7,3.2c0.7,1.1,2.1,1.4,3.2,0.7c0,0,3.6-2.2,6.6-1.3
			c1.5,0.5,2.6,1.7,3.5,3.6c3.4,7.8-7,20.8-11.3,25.1c-0.7,0.7-0.9,1.7-0.5,2.5c0.4,0.9,1.2,1.4,2.1,1.4h23v14.7
			c0,1.3,1,2.3,2.3,2.3c1.3,0,2.3-1,2.3-2.3v-14.7h7.9c1.3,0,2.3-1,2.3-2.3C406.2,935,405.1,934,403.9,934z"/>
		<path class="st2" d="M986.4,1236.8c-1.1,0.6-1.5,2-0.9,3.2c0.3,0.5-0.3,2.4-2,3.4c-1.7,1.1-3.3,0.7-4.7-1.2
			c-1.7-2.2-0.5-6.8,0.7-11.6c0.5-1.8,0.9-3.7,1.3-5.6c1.6-8.2,0.3-13.9-3.9-17.1c-5.7-4.4-13.1-2.3-17.1-0.6v-4.7h5.5
			c1.3,0,2.3-1,2.3-2.3c0-1.3-1-2.3-2.3-2.3h-5.5v-6.1c0-1.3-1-2.3-2.3-2.3s-2.3,1-2.3,2.3v6.1h-4.2c-1.3,0-2.3,1-2.3,2.3
			c0,1.3,1,2.3,2.3,2.3h4.2v29.6c0,1.3,1,2.3,2.3,2.3s2.3-1,2.3-2.3v-19.8c2-1,9.4-4.5,14.3-0.8c2.7,2,3.4,6.3,2.1,12.5
			c-0.4,1.8-0.8,3.6-1.3,5.4c-1.5,5.9-2.9,11.5,0.1,15.6c2,2.6,4.3,3.6,6.5,3.6c1.6,0,3.2-0.6,4.4-1.4c3.1-2,5.3-6.3,3.5-9.6
			C988.9,1236.6,987.5,1236.2,986.4,1236.8z"/>
		<path class="st2" d="M483.1,1097.2h-7v-18.6l6.9,6.9c0.5,0.5,1,0.7,1.6,0.7c0.6,0,1.2-0.2,1.6-0.7c0.9-0.9,0.9-2.4,0-3.3l-8.8-8.8
			l8.8-8.8c0.9-0.9,0.9-2.4,0-3.3c-0.9-0.9-2.4-0.9-3.3,0l-6.9,6.9v-5.9c0-1.3-1-2.3-2.3-2.3c-1.3,0-2.3,1-2.3,2.3v10.7c0,0,0,0,0,0
			v0.8c0,0,0,0,0,0v23.4h-7c-6.5,0-11.7,5.3-11.7,11.7c0,6.5,5.3,11.7,11.7,11.7h18.7c6.5,0,11.7-5.3,11.7-11.7
			C494.8,1102.5,489.5,1097.2,483.1,1097.2z M483.1,1116h-18.7c-3.9,0-7.1-3.2-7.1-7.1c0-3.9,3.2-7.1,7.1-7.1h18.7
			c3.9,0,7.1,3.2,7.1,7.1C490.2,1112.9,487,1116,483.1,1116z"/>
		<path class="st2" d="M1251.2,661.7c3.7-3.8,7.4-9,7.4-17.1c0-14.2-11.6-25.8-25.8-25.8c-0.1,0-0.2,0-0.2,0c-0.1,0-0.2,0-0.2,0
			c-14.2,0-25.8,11.6-25.8,25.8c0,8.1,3.7,13.2,7.4,17.1c-4.2,1.1-7.4,4.9-7.4,9.4c0,5.4,4.4,9.7,9.7,9.7s9.7-4.4,9.7-9.7
			c0-2.3-0.8-4.4-2.2-6.1c0,0,0,0,0-0.1c-1-1.2-2.3-2.4-3.6-3.7c-4-3.7-9-8.3-9-16.7c0-11.7,9.5-21.1,21.1-21.1c0.1,0,0.2,0,0.2,0
			c0.1,0,0.2,0,0.2,0c11.7,0,21.1,9.5,21.1,21.1c0,8.4-5,13-9,16.7c-1.4,1.3-2.7,2.4-3.6,3.7c0,0,0,0,0,0.1
			c-1.3,1.7-2.2,3.8-2.2,6.1c0,5.4,4.4,9.7,9.7,9.7c5.4,0,9.7-4.4,9.7-9.7C1258.6,666.6,1255.4,662.8,1251.2,661.7z M1216.3,676.3
			c-2.8,0-5.1-2.3-5.1-5.1c0-2.8,2.3-5.1,5.1-5.1c2.8,0,5.1,2.3,5.1,5.1C1221.4,674,1219.1,676.3,1216.3,676.3z M1248.8,676.3
			c-2.8,0-5.1-2.3-5.1-5.1c0-2.8,2.3-5.1,5.1-5.1c2.8,0,5.1,2.3,5.1,5.1C1253.9,674,1251.6,676.3,1248.8,676.3z"/>
		<path class="st2" d="M576,1136.4c0-5.4-4.4-9.8-9.7-9.8c-5.4,0-9.8,4.4-9.8,9.8c0,2.3,0.8,4.4,2.2,6.1c0,0,0,0,0,0.1
			c1,1.2,2.3,2.4,3.6,3.7c4,3.7,9,8.3,9,16.7c0,11.7-9.5,21.1-21.1,21.1c-0.1,0-0.2,0-0.2,0c-0.1,0-0.2,0-0.2,0
			c-11.7,0-21.1-9.5-21.1-21.1c0-8.4,5-13,9-16.7c1.4-1.3,2.7-2.4,3.6-3.7c0,0,0,0,0-0.1c1.3-1.7,2.2-3.8,2.2-6.1
			c0-5.4-4.4-9.8-9.7-9.8c-5.4,0-9.7,4.4-9.7,9.8c0,4.6,3.1,8.4,7.4,9.4c-3.7,3.8-7.4,9-7.4,17.1c0,14.2,11.6,25.8,25.8,25.8
			c0.1,0,0.2,0,0.2,0c0.1,0,0.2,0,0.2,0c14.2,0,25.8-11.6,25.8-25.8c0-8.1-3.7-13.2-7.4-17.1C572.9,1144.8,576,1140.9,576,1136.4z
			 M528.6,1136.4c0-2.8,2.3-5.1,5.1-5.1c2.8,0,5.1,2.3,5.1,5.1c0,2.8-2.3,5.1-5.1,5.1C530.9,1141.5,528.6,1139.2,528.6,1136.4z
			 M566.3,1141.5c-2.8,0-5.1-2.3-5.1-5.1c0-2.8,2.3-5.1,5.1-5.1c2.8,0,5.1,2.3,5.1,5.1C571.4,1139.2,569.1,1141.5,566.3,1141.5z"/>
	</g>
</g>
<g id="sternzeichen" class="st0">
	<g class="st1">
		<path class="st2" d="M799.9,225.5C799.9,225.6,800,225.6,799.9,225.5L799.9,225.5z"/>
		<path class="st2" d="M1353.1,642.2L1353.1,642.2C1353.1,642.2,1353.1,642.2,1353.1,642.2z"/>
		<path class="st2" d="M1476.1,607.5c-25-87.4-66.1-168.2-122.3-240.1c-56.2-71.9-124.7-131.4-203.4-176.7
			c-81.6-47-170.6-76.6-264.8-88.2C791.5,91,697.9,98.2,607.4,124c-87.4,24.9-168.1,66-240.1,122.2
			c-71.9,56.2-131.4,124.7-176.7,203.4c-47,81.6-76.6,170.6-88.2,264.8c-11.5,94.1-4.3,187.7,21.5,278.2
			c25,87.4,66.1,168.1,122.2,240c56.2,71.9,124.7,131.4,203.4,176.7c81.6,47,170.6,76.6,264.8,88.2s187.8,4.4,278.3-21.3
			c87.4-25,168.2-66.1,240.1-122.3c71.9-56.2,131.4-124.7,176.7-203.4c47-81.6,76.6-170.6,88.2-264.8
			C1509.1,791.6,1501.9,698,1476.1,607.5z M1444.6,525.3l-99.6,42.3c-6.6-15.5-14-30.9-21.8-45.8c-0.1-0.2-0.2-0.4-0.4-0.5
			c-8-15-16.7-29.8-25.9-44c-0.1-0.1-0.2-0.2-0.3-0.3c-9.2-14.2-19.1-28.1-29.5-41.4c-0.1-0.1-0.1-0.3-0.2-0.4
			c-10.6-13.5-21.9-26.8-33.6-39.3c0,0,0,0,0,0c-11.5-12.4-23.9-24.4-36.4-35.7c-0.1-0.2-0.2-0.4-0.4-0.6
			c-12.5-11.2-25.7-22-39.2-32.3l65.1-86.4C1319.7,314.7,1396.5,413,1444.6,525.3z M920.5,1362.6c-0.1-0.4-0.6-0.7-1-0.6
			c-0.1,0-0.1,0.1-0.2,0.1c0,0,0,0,0,0c-0.4,0.1-0.7,0.6-0.6,1l3,14c-2.8,0.6-5.6,1.2-8.5,1.7l-2.8-14.1c0-0.4-0.5-0.7-0.9-0.6
			c-0.4,0-0.7,0.5-0.6,0.9l2.7,14.1c-2.8,0.5-5.6,1.1-8.4,1.5l-2.5-14c0-0.5-0.5-0.8-0.9-0.7c-0.3,0-0.5,0.1-0.6,0.3
			c-0.2,0.2-0.3,0.4-0.2,0.7l2.5,14c-2.8,0.5-5.6,0.9-8.4,1.4l-2.3-14.1c0-0.4-0.3-0.7-0.7-0.7c-0.1,0-0.2,0-0.3,0
			c-0.5,0-0.8,0.5-0.7,0.9l2.3,14.2c-2.7,0.4-5.3,0.8-8,1.2l-3-21.1c-0.1-0.8-0.8-1.3-1.6-1.2s-1.3,0.8-1.2,1.6l3,21.1
			c-2.6,0.4-5.3,0.7-8,1l-1.7-14.3c-0.1-0.4-0.5-0.7-0.9-0.7c-0.3,0.1-0.6,0.3-0.7,0.6c0,0.1,0,0.2,0,0.3l0,0.3l1.7,14
			c-2.9,0.3-5.7,0.7-8.6,1l-1.3-12.4l-0.2-2c-0.1-0.4-0.5-0.7-0.9-0.7c-0.4,0.1-0.7,0.5-0.7,0.9l0,0.1c0,0,0,0,0,0l1.5,14.3
			c-2.9,0.3-5.7,0.6-8.6,0.8l-1.3-14.5c-0.1-0.4-0.5-0.7-0.9-0.7c-0.4,0.1-0.7,0.5-0.7,0.9l0,0.1c0,0,0,0,0,0l0.4,4.6l0.8,9.7
			c-2.9,0.2-5.7,0.5-8.6,0.7l-1-14.3c-0.1-0.2-0.2-0.4-0.3-0.5c-0.2-0.2-0.4-0.3-0.7-0.3c-0.4,0.1-0.7,0.5-0.7,0.9l1,14.3
			c-2.6,0.2-5.3,0.3-7.9,0.5l-1.1-21.4c0-0.7-0.7-1.3-1.5-1.3c-0.2,0-0.4,0.1-0.6,0.2c-0.5,0.2-0.9,0.8-0.9,1.4l1.1,21.2
			c-2.7,0.1-5.4,0.2-8,0.3l-0.5-14.3c0-0.5-0.4-0.8-0.8-0.8c-0.5,0-0.8,0.4-0.8,0.8l0,0.1c0,0,0,0,0,0l0.1,1.9l0.4,12.4
			c-2.9,0.1-5.8,0.2-8.7,0.2l-0.2-12.4l0-2c0-0.5-0.3-0.8-0.8-0.8s-0.8,0.4-0.8,0.8l0,0.1c0,0,0,0,0,0l0.3,14.3
			c-2.9,0-5.8,0.1-8.7,0.1v-14.4c0-0.4-0.4-0.8-0.8-0.8c0,0,0,0,0,0c0,0,0,0-0.1,0c-0.4,0-0.8,0.4-0.8,0.8v14.4
			c-2.9,0-5.7,0-8.6-0.1l0.3-14.5c0-0.4-0.3-0.8-0.8-0.8c-0.2,0-0.4,0.1-0.6,0.3c-0.2,0.2-0.3,0.4-0.3,0.6l-0.3,14.4
			c-2.6,0-5.2-0.1-7.8-0.2l0.7-21.3c0-0.8-0.6-1.5-1.4-1.5c0,0,0,0-0.1,0c0,0,0,0,0,0c-0.8,0-1.5,0.6-1.5,1.4l-0.7,21.3
			c-2.7-0.1-5.4-0.2-8-0.4l0.7-14.3c0-0.4-0.4-0.8-0.8-0.8c0,0,0,0,0,0c0,0,0,0-0.1,0c-0.4,0-0.8,0.4-0.8,0.8l-0.7,14.2
			c-2.9-0.2-5.8-0.3-8.6-0.5l1-14.2l0,0c0.1-0.5-0.3-0.9-0.7-0.9c0,0,0,0,0,0l0,0c-0.5-0.1-0.9,0.3-0.9,0.7l-1,14.3
			c-2.9-0.2-5.8-0.4-8.6-0.7l1.2-14.3c0.1-0.5-0.3-0.9-0.7-0.9c0,0-0.1,0-0.1,0c0,0,0,0,0,0c-0.5-0.1-0.9,0.3-0.9,0.7l-1.3,14.4
			c-2.8-0.3-5.7-0.5-8.5-0.8l1.5-14.3c0,0,0,0,0,0l0-0.1c0-0.5-0.3-0.8-0.7-0.9c-0.5-0.1-0.9,0.3-0.9,0.7l-0.2,2l-1.3,12.4
			c-2.6-0.3-5.1-0.6-7.6-0.9l3.7-30.4c0.1-0.9-0.5-1.7-1.4-1.8c-0.9-0.1-1.7,0.5-1.8,1.4l-2.7,22.5l-1,8c-2.6-0.3-5.1-0.7-7.7-1
			l2-14.3c0-0.4-0.3-0.8-0.7-0.9c-0.1,0-0.1,0-0.2,0c0,0-0.1,0-0.1,0c-0.4,0-0.8,0.3-0.9,0.7l-2,14.2c-2.8-0.4-5.5-0.8-8.3-1.2
			l2.2-14.3c0-0.2-0.1-0.5-0.3-0.7c-0.1-0.2-0.3-0.3-0.5-0.3c-0.4,0-0.8,0.3-0.9,0.7l-2.2,14.3c-2.9-0.5-5.7-0.9-8.6-1.4l2.5-14.2
			c0-0.4-0.3-0.8-0.7-0.9c0,0-0.1,0-0.1,0c0,0,0,0-0.1,0c-0.4,0-0.8,0.3-0.9,0.7l-2.5,14.1c-2.8-0.5-5.6-1-8.3-1.5l2.7-14.1
			c0.1-0.4-0.2-0.8-0.6-0.9c-0.1,0-0.2,0-0.3,0c-0.3,0-0.6,0.3-0.7,0.6l-2.7,14.1c-2.6-0.5-5.2-1-7.8-1.6l4.4-20.6
			c0.1-0.4,0-0.7-0.1-1c-0.2-0.4-0.5-0.8-1.1-0.9c-0.8-0.2-1.5,0.3-1.7,1.1l-4.4,21c-2.6-0.6-5.1-1.1-7.7-1.7l3.2-14.2
			c0.1-0.4-0.1-0.7-0.3-0.9c-0.1-0.1-0.2-0.2-0.4-0.2c-0.5-0.1-0.9,0.2-1,0.6l-3.2,14.3c-2.8-0.6-5.6-1.3-8.3-2l3.5-14
			c0-0.1,0-0.2,0-0.4c0-0.4-0.3-0.7-0.6-0.7c-0.5-0.1-0.9,0.2-1,0.6l-3.5,14c-2.8-0.7-5.6-1.4-8.4-2.2l3.8-14c0-0.1,0-0.2,0-0.3
			c0-0.4-0.2-0.8-0.6-0.9c-0.4-0.1-0.9,0.2-1,0.6l-3.8,14.1c-2.8-0.8-5.6-1.5-8.4-2.3l4-14c0.1-0.4-0.2-0.9-0.6-1
			c-0.3-0.1-0.7,0.1-0.9,0.3c-0.1,0.1-0.2,0.2-0.2,0.4l-3.9,13.8c-2.5-0.7-5-1.5-7.6-2.2l6.3-20.7c0.3-0.8-0.1-1.6-0.9-1.8
			c-0.8-0.3-1.6,0.1-1.8,0.9l0,0.2c0,0,0,0.1-0.1,0.1l-6.1,20.1c-2.6-0.8-5.1-1.6-7.7-2.4l4.3-13.4c0.2-0.4-0.1-0.9-0.5-1
			c-0.1-0.1-0.3-0.1-0.4,0c-0.4,0-0.7,0.2-0.8,0.5l-4.3,13.3c-2.7-0.9-5.4-1.8-8.1-2.7l4.6-13.4c0.1-0.4-0.1-0.9-0.5-1
			c-0.3-0.1-0.7,0-0.9,0.3c-0.1,0.1-0.2,0.2-0.2,0.3l-4.5,13.3c-2.7-0.9-5.4-1.9-8.2-2.9l4.8-13.3c0.1-0.4-0.1-0.8-0.5-1
			c-0.1,0-0.2,0-0.3,0c-0.3,0-0.6,0.2-0.8,0.5l-4.8,13.2c-2.7-1-5.4-2-8.1-3l5.1-13.1c0,0,0,0,0,0l0,0c0.1-0.4-0.1-0.8-0.5-1
			c-0.4-0.1-0.8,0.1-1,0.5l0,0l-5,13c-2.5-1-5-1.9-7.5-2.9l8-19.7c0.3-0.8-0.1-1.6-0.8-1.9c-0.8-0.3-1.5,0.1-1.9,0.7
			c-0.1,0.1-0.2,0.2-0.2,0.4l-8,19.7c-2.4-1-4.8-2-7.2-3l5.6-13.4c0.2-0.5,0-0.9-0.4-1.1c-0.4-0.2-0.7-0.1-1,0.2
			c-0.1,0.1-0.2,0.2-0.2,0.3l-3.3,7.8l-2.3,5.4c-2.6-1.1-5.3-2.3-7.9-3.4l5.9-13.3c0.2-0.4,0-0.9-0.4-1.1c-0.1-0.1-0.2-0.1-0.4-0.1
			c-0.3,0-0.7,0.2-0.8,0.5l-5.9,13.3c-2.6-1.2-5.2-2.4-7.8-3.6l6.1-13.2c0.1-0.1,0.1-0.2,0.1-0.4c0-0.3-0.2-0.7-0.5-0.8
			c-0.4-0.2-0.9,0-1.1,0.4l-4.1,8.8l-2.1,4.4c-2.6-1.2-5.1-2.4-7.7-3.7l6.4-13.1c0.1-0.1,0.1-0.2,0.1-0.4c0-0.3-0.2-0.7-0.5-0.8
			c-0.4-0.2-0.9,0-1.1,0.4l-3.6,7.4l-2.8,5.7c-2.4-1.2-4.9-2.4-7.3-3.6l9.6-18.9l0.1-0.1c0.1-0.2,0.2-0.4,0.2-0.5
			c0.1-0.5-0.2-1.1-0.8-1.4c-0.7-0.4-1.5-0.1-1.9,0.6l-9.7,19c-2.4-1.2-4.8-2.5-7.2-3.8l6.8-12.7c0.2-0.4,0.1-0.9-0.3-1.1
			c-0.3-0.2-0.7-0.1-1,0.1c-0.1,0.1-0.2,0.1-0.2,0.3l-6.7,12.7c-2.5-1.3-5-2.7-7.5-4.1l7-12.7c0.2-0.4,0.1-0.9-0.3-1.1
			c-0.3-0.2-0.7-0.1-1,0.1c-0.1,0.1-0.2,0.1-0.2,0.3l-3.7,6.8l-3.2,5.8c-2.5-1.4-5.1-2.9-7.6-4.3l7.2-12.6c0.2-0.4,0.1-0.9-0.3-1.1
			c-0.4-0.2-0.9-0.1-1.1,0.3l-7.2,12.6c-2.5-1.4-4.9-2.9-7.4-4.4l7.5-12.5c0.2-0.4,0.1-0.9-0.3-1.1c-0.3-0.2-0.7-0.1-0.9,0.1
			c-0.2,0.1-0.3,0.2-0.4,0.3l-7.4,12.3c-2.3-1.4-4.5-2.7-6.8-4.1l11.4-18.3c0.4-0.7,0.2-1.6-0.5-2c-0.5-0.3-1.2-0.3-1.6,0.1
			c-0.2,0.1-0.4,0.3-0.6,0.5l-11.2,18c-2.2-1.4-4.5-2.9-6.7-4.3l7.8-12c0.3-0.4,0.2-0.9-0.2-1.1c-0.2-0.2-0.4-0.2-0.6-0.2
			c-0.3,0-0.5,0.1-0.7,0.4l-7.7,11.9c-2.4-1.6-4.8-3.2-7.2-4.8l8-11.9c0.3-0.3,0.2-0.9-0.2-1.1c-0.2-0.2-0.4-0.2-0.6-0.2
			c-0.2,0-0.5,0.1-0.6,0.4l-8,11.8c-2.4-1.6-4.7-3.2-7.1-4.9l8.2-11.8c0.3-0.3,0.2-0.8-0.2-1.1c-0.2-0.2-0.4-0.2-0.6-0.2
			c-0.2,0-0.5,0.1-0.6,0.4l-8.2,11.7c-2.3-1.6-4.7-3.3-7-5l8.4-11.5c0.1-0.2,0.1-0.4,0.1-0.6c0-0.2-0.1-0.5-0.3-0.6
			c-0.3-0.2-0.8-0.2-1.1,0.2l-8.4,11.6c-2.1-1.5-4.2-3.1-6.3-4.6l18.3-24.2c0.6-0.8,0.4-1.8-0.3-2.3c-0.8-0.6-1.8-0.4-2.3,0.3
			l-18.5,24.4c-2.1-1.6-4.2-3.2-6.3-4.9l8.8-11.3c0.2-0.1,0.2-0.3,0.2-0.6c0-0.2-0.1-0.4-0.3-0.6c-0.3-0.3-0.8-0.3-1.1,0.1l0,0
			l-8.8,11.3c-2.3-1.8-4.5-3.6-6.8-5.4l9-11.1c0.3-0.3,0.2-0.8-0.1-1.1c-0.2-0.2-0.4-0.2-0.6-0.2c-0.2,0-0.5,0.1-0.6,0.3l-9,11.1
			c-2.2-1.8-4.5-3.7-6.7-5.5l9.2-11c0.3-0.3,0.2-0.6,0-0.9c0-0.1-0.1-0.3-0.2-0.4c-0.3-0.3-0.8-0.2-1.1,0.1l-9.2,11.1
			c-2.2-1.8-4.4-3.7-6.5-5.5l9.6-11c0.3-0.3,0.2-0.8-0.1-1.1c-0.3-0.3-0.6-0.2-0.9,0c-0.1,0-0.3,0.1-0.4,0.2l-9.4,10.9
			c-2-1.7-4-3.5-6-5.3l14.3-15.8c0.5-0.6,0.5-1.5-0.1-2c-0.3-0.3-0.7-0.4-1.1-0.4c-0.4,0-0.8,0.1-1,0.5l-14.3,15.8
			c-2-1.8-4-3.7-5.9-5.5l9.8-10.5c0.3-0.3,0.3-0.8,0-1.1c-0.3-0.3-0.8-0.3-1.1,0l-0.1,0.1c0,0,0,0,0,0l-1.7,1.8l-8.1,8.6
			c-2.1-2-4.2-4-6.3-6l10-10.4c0.3-0.3,0.3-0.8,0-1.1c0,0,0,0-0.1,0c0,0,0,0,0-0.1c-0.3-0.3-0.8-0.3-1.1,0l-10,10.4
			c-2.1-2-4.1-4-6.2-6.1l10.2-10.2c0.2-0.2,0.2-0.4,0.2-0.6c0-0.2-0.1-0.4-0.2-0.6c-0.3-0.3-0.8-0.3-1.1,0l-10.2,10.2
			c-2-2-4-4.1-6-6.1l10.1-9.9l0.3-0.2c0,0,0,0,0,0l0.1-0.1c0.3-0.3,0.3-0.8,0-1.1c-0.3-0.3-0.8-0.3-1.1,0l-10.5,10.1
			c-1.8-1.9-3.7-3.8-5.5-5.7l15.6-14.5c0.6-0.5,0.6-1.4,0.1-2c0,0-0.1,0-0.1-0.1c0,0,0,0,0,0c-0.5-0.6-1.4-0.6-2-0.1l-15.6,14.5
			c-1.8-2-3.6-4-5.4-6l10.5-9.5l0,0c0.2-0.1,0.3-0.3,0.3-0.6c0-0.2-0.1-0.4-0.2-0.6c-0.3-0.4-0.8-0.4-1.1-0.1l-10.6,9.6
			c-1.9-2.2-3.8-4.3-5.8-6.5l10.8-9.4c0.4-0.3,0.4-0.8,0.1-1.1c0,0-0.1,0-0.1-0.1c0,0,0,0,0,0c-0.3-0.4-0.8-0.4-1.1-0.1l-10.8,9.4
			c-1.9-2.2-3.8-4.4-5.6-6.6l11-9.2c0.3-0.3,0.4-0.8,0.1-1.1c-0.2-0.3-0.8-0.4-1.1-0.1l-11,9.2c-1.9-2.2-3.7-4.4-5.5-6.7l11.1-9
			c0.2-0.1,0.3-0.4,0.3-0.6c0-0.2,0-0.5-0.2-0.6c-0.2-0.3-0.8-0.4-1.1-0.1l-11.2,9.1c-1.7-2.1-3.3-4.1-5-6.2l17-13.3
			c0.6-0.5,0.7-1.4,0.2-2c-0.4-0.5-1.1-0.6-1.7-0.4c-0.2,0.1-0.4,0.1-0.5,0.3l-16.6,13c-1.6-2.1-3.2-4.2-4.9-6.3l11.5-8.6
			c0.4-0.2,0.5-0.7,0.2-1.1c-0.1-0.2-0.3-0.3-0.6-0.4c-0.2,0-0.4,0-0.6,0.2l-11.5,8.6c-1.7-2.3-3.5-4.6-5.2-7l11.6-8.5
			c0.4-0.2,0.5-0.7,0.2-1.1c-0.2-0.4-0.6-0.5-1-0.3c-0.2,0-0.4,0-0.5,0.2l-11.3,8.2c-1.7-2.3-3.3-4.6-5-7l11.7-8.2
			c0.4-0.2,0.5-0.7,0.2-1.1c-0.1-0.3-0.4-0.4-0.7-0.4c-0.2,0-0.4,0-0.6,0.2l-11.6,8.1c-1.6-2.3-3.2-4.7-4.8-7.1l11.8-8
			c0.4-0.2,0.4-0.7,0.2-1.1c-0.1-0.3-0.4-0.3-0.7-0.3c-0.2,0-0.4,0-0.6,0.1l-11.7,7.9c-1.5-2.2-3-4.5-4.4-6.7l17.9-11.6
			c0.5-0.4,0.7-0.9,0.6-1.5c0-0.2-0.1-0.4-0.2-0.5c-0.5-0.6-1.3-0.8-2-0.4l-0.1,0.1l-17.8,11.5c-1.4-2.3-2.9-4.5-4.3-6.8l6.9-4.3
			l5.3-3.3c0.4-0.2,0.5-0.7,0.3-1.1s-0.7-0.5-1.1-0.3l-0.1,0.1c0,0-0.1,0-0.1,0l-12.1,7.5c-1.5-2.4-3-4.9-4.5-7.4l12.2-7.3
			c0.2-0.1,0.3-0.3,0.4-0.5c0-0.2,0-0.4-0.1-0.6c0-0.1-0.1-0.2-0.2-0.2c-0.2-0.1-0.4-0.2-0.6-0.2c-0.1,0-0.2,0-0.3,0.1l0,0
			l-12.2,7.3c-1.5-2.5-2.9-4.9-4.4-7.4l12.4-7.1c0.3-0.2,0.4-0.5,0.4-0.8c0-0.1,0-0.3-0.1-0.4c-0.2-0.4-0.7-0.5-1.1-0.3L289,1094
			c-1.4-2.5-2.8-5-4.2-7.5l12.5-6.9c0.3-0.2,0.4-0.5,0.4-0.8c0-0.2,0-0.3-0.1-0.5c-0.2-0.4-0.7-0.5-1.1-0.3l-12.5,7
			c-1.3-2.3-2.5-4.6-3.8-6.9l18.9-10c0.7-0.3,1-1.2,0.6-1.9c-0.2-0.5-0.8-0.8-1.4-0.8c-0.2,0-0.4,0.1-0.6,0.2l-18.7,10
			c-1.2-2.3-2.4-4.6-3.6-7l12.5-6.4c0.3-0.2,0.5-0.6,0.4-0.9c0-0.2,0-0.3,0-0.5c-0.2-0.4-0.7-0.6-1.1-0.4l-12.7,6.5
			c-1.3-2.5-2.5-5-3.8-7.5l12.6-6.2c0.4-0.2,0.6-0.7,0.4-1.1c-0.1-0.1-0.1-0.2-0.2-0.3c-0.2-0.3-0.6-0.4-1-0.2l-12.6,6.2
			c-1.2-2.6-2.5-5.1-3.7-7.7l12.8-6l0,0c0.2-0.1,0.4-0.3,0.4-0.5c0.1-0.2,0.1-0.4,0-0.6c-0.2-0.4-0.7-0.6-1.1-0.4l-12.8,5.9
			c-1.2-2.6-2.4-5.2-3.6-7.9l13-5.8c0.4-0.2,0.6-0.7,0.4-1.1c-0.2-0.3-0.5-0.5-0.8-0.5c-0.1,0-0.3,0-0.4,0.1l-12.9,5.7
			c-1.1-2.4-2.1-4.8-3.1-7.1L286,1020c0.9-0.3,1.2-1.3,0.9-2.1c-0.3-0.9-1.3-1.2-2.1-0.9l-28.1,11.9c-1-2.4-2.1-4.9-3.1-7.4
			l13.2-5.3c0.4-0.1,0.6-0.6,0.4-1c-0.1-0.3-0.4-0.5-0.8-0.5c-0.1,0-0.3,0-0.4,0.1l-13,5.2c-1.1-2.7-2.2-5.4-3.2-8.1l13.1-5.1
			c0.2,0,0.3-0.1,0.4-0.2c0.3-0.2,0.4-0.6,0.2-0.9c-0.1-0.5-0.6-0.7-1-0.5l-13.3,5.1c-1-2.6-2-5.3-3-7.9l13.3-4.8
			c0.3-0.1,0.6-0.5,0.5-0.8c0-0.1,0-0.3,0-0.4c-0.1-0.4-0.6-0.7-1-0.5l-13.4,4.9c-1-2.7-1.9-5.4-2.9-8l13.4-4.6
			c0.3-0.1,0.5-0.3,0.5-0.6c0.1-0.2,0.1-0.4,0.1-0.7c-0.1-0.4-0.6-0.6-1-0.5l-13.6,4.7c-0.9-2.5-1.7-5-2.5-7.6l20.2-6.5
			c0.2-0.1,0.4-0.2,0.5-0.3c0.4-0.4,0.6-1,0.5-1.6c-0.2-0.7-1.1-1.1-1.8-0.9l-20.4,6.6c-0.8-2.5-1.6-5.1-2.4-7.6l13.9-4.3
			c0.3-0.1,0.5-0.4,0.5-0.7c0-0.1,0-0.2,0-0.3c-0.1-0.4-0.6-0.6-1-0.5l0,0l-13.9,4.2c-0.8-2.7-1.7-5.5-2.5-8.3l14-4
			c0.5-0.1,0.7-0.6,0.6-1c-0.1-0.5-0.6-0.7-0.9-0.6c-0.1,0-0.2,0-0.4,0l-13.7,3.9c-0.8-2.7-1.5-5.5-2.3-8.2l14-3.8
			c0.5-0.1,0.7-0.6,0.6-1c-0.1-0.3-0.3-0.5-0.5-0.6c-0.2-0.1-0.5-0.2-0.7-0.1l-13.9,3.7c-0.7-2.7-1.4-5.4-2.1-8.2l14-3.5
			c0.3-0.1,0.6-0.4,0.6-0.8c0-0.1,0-0.2,0-0.3c-0.1-0.4-0.6-0.7-1-0.6l-14,3.5c-0.6-2.6-1.3-5.2-1.9-7.8l20.8-4.8
			c0.8-0.2,1.3-0.9,1.1-1.7c0-0.2-0.1-0.4-0.2-0.5c-0.3-0.4-0.7-0.6-1.2-0.6c-0.1,0-0.2,0-0.3,0l-20.8,4.8c-0.6-2.6-1.2-5.2-1.7-7.8
			l14.1-3c0.3-0.1,0.6-0.4,0.6-0.8c0-0.1,0-0.2,0-0.3c-0.1-0.4-0.6-0.7-1-0.6l-14.1,3c-0.6-2.8-1.2-5.6-1.7-8.4l14.2-2.8
			c0.4,0,0.7-0.5,0.6-0.9c0-0.1-0.1-0.3-0.2-0.4c-0.2-0.3-0.5-0.4-0.8-0.3l-14.1,2.8c-0.5-2.8-1.1-5.7-1.6-8.5l14-2.5
			c0.5,0,0.8-0.5,0.7-0.9c0-0.3-0.1-0.5-0.3-0.6c-0.2-0.2-0.4-0.3-0.7-0.2l-14,2.5c-0.5-2.8-0.9-5.5-1.4-8.3l14.1-2.3
			c0.5,0,0.7-0.4,0.7-0.8c0-0.1,0-0.2,0-0.3c0-0.5-0.5-0.8-0.9-0.7l-14.2,2.3c-0.4-2.7-0.8-5.3-1.2-8l21.1-3
			c0.8-0.1,1.3-0.8,1.2-1.6c-0.1-0.4-0.3-0.7-0.6-0.9c-0.3-0.3-0.7-0.4-1.1-0.4l-21.1,3c-0.4-2.6-0.7-5.2-1-7.9l14.4-1.7
			c0.4-0.1,0.8-0.5,0.7-0.9c0,0,0,0,0,0c0,0,0-0.1,0-0.1c-0.1-0.4-0.5-0.8-0.9-0.7l-14.4,1.7c-0.3-2.9-0.7-5.7-1-8.6l14.4-1.5
			c0.4-0.1,0.7-0.5,0.7-0.9c-0.1-0.4-0.5-0.7-0.9-0.7l-14.4,1.5c-0.3-2.9-0.6-5.7-0.8-8.6l14.5-1.3c0.4-0.1,0.7-0.5,0.7-0.9
			c-0.1-0.4-0.5-0.7-0.9-0.7l-0.1,0c0,0,0,0,0,0l-4.6,0.4l-9.7,0.8c-0.2-2.8-0.5-5.7-0.7-8.5l14.5-1c0.4-0.1,0.7-0.5,0.7-0.9
			c-0.1-0.2-0.2-0.4-0.3-0.5c-0.2-0.2-0.4-0.3-0.7-0.3l-14.3,1c-0.2-2.7-0.4-5.4-0.5-8.1l21.4-1.1c0.7,0,1.3-0.7,1.3-1.5
			c0-0.7-0.7-1.3-1.5-1.3l-0.1,0c0,0,0,0,0,0l-4.2,0.2l-17,0.9c-0.1-2.7-0.2-5.3-0.3-8l14.4-0.5c0.5,0,0.8-0.4,0.8-0.8
			c0-0.5-0.4-0.8-0.8-0.8l-0.2,0c0,0,0,0,0,0l-3.8,0.1l-10.5,0.3c-0.1-2.9-0.2-5.8-0.2-8.7l12.5-0.2l1.9,0c0.5,0,0.8-0.4,0.8-0.8
			c0-0.5-0.3-0.8-0.8-0.8l-0.1,0c0,0,0,0,0,0l-14.3,0.3c0-2.9-0.1-5.8-0.1-8.7h14.4c0.4,0,0.8-0.4,0.8-0.8c0-0.4-0.4-0.8-0.8-0.8
			h-14.4c0-2.9,0-5.8,0.1-8.7l14.5,0.4c0.4,0,0.8-0.4,0.8-0.8c0-0.2-0.1-0.4-0.3-0.6c-0.2-0.2-0.4-0.3-0.6-0.3l-14.4-0.3
			c0-2.7,0.1-5.3,0.2-8l21.4,0.8c0.8,0,1.5-0.6,1.5-1.4c0-0.3-0.1-0.6-0.2-0.8c-0.2-0.5-0.7-0.9-1.3-0.9l-21.2-0.7
			c0.1-2.6,0.2-5.2,0.4-7.9l14.3,0.8c0.4,0,0.8-0.4,0.8-0.8c0,0,0-0.1,0-0.1c0,0,0-0.1,0-0.1c0-0.4-0.4-0.8-0.8-0.8l-14.2-0.7
			c0.2-2.8,0.3-5.7,0.5-8.5l12.1,0.8l2,0.1c0,0,0,0,0.1,0l0,0c0.5,0.1,0.9-0.3,0.9-0.7c0.1-0.5-0.2-0.9-0.7-0.9l-14.3-1
			c0.2-2.9,0.4-5.8,0.7-8.6l14.2,1.2c0.5,0.1,0.9-0.3,0.9-0.7c0-0.1,0-0.2,0-0.4c0-0.4-0.3-0.7-0.7-0.7l-14.3-1.2
			c0.3-2.8,0.5-5.7,0.8-8.5l14.2,1.5c0.5,0.1,0.9-0.3,0.9-0.7c0.1-0.5-0.3-0.9-0.7-0.9l-14.3-1.5c0.3-2.6,0.6-5.2,0.9-7.7l30.5,3.8
			c0.8,0.1,1.6-0.5,1.8-1.4c0.1-0.9-0.5-1.7-1.4-1.8l-30.6-3.8c0.3-2.6,0.7-5.1,1-7.7l14.2,2c0.1,0,0.3,0,0.4-0.1
			c0.3,0,0.6-0.3,0.6-0.5c0-0.2-0.1-0.5-0.3-0.7c-0.1-0.2-0.3-0.3-0.5-0.3l-14.1-2c0.4-2.8,0.8-5.7,1.3-8.5l14.3,2.2
			c0.4,0,0.8-0.3,0.9-0.7c0,0,0,0,0-0.1c0,0,0,0,0,0c0-0.4-0.3-0.8-0.7-0.9l-14.2-2.2c0.5-2.9,0.9-5.7,1.4-8.5l9.5,1.6l4.6,0.8
			c0,0,0.1,0,0.1,0l0,0c0,0,0,0,0,0c0.1,0,0.2,0,0.2,0c0.2-0.1,0.4-0.3,0.5-0.6c0,0,0-0.1,0-0.1c0,0,0,0,0-0.1c0,0,0,0,0,0
			c0-0.4-0.3-0.8-0.7-0.9l-14-2.5c0.5-2.8,1-5.6,1.6-8.5l8.8,1.7l5.2,1c0.1,0,0.2,0,0.3,0c0.3,0,0.6-0.3,0.6-0.5c0-0.1,0-0.2,0-0.3
			c0-0.3-0.3-0.6-0.6-0.7l-14-2.7c0.5-2.7,1.1-5.3,1.6-8l20.8,4.4h0.1c0.5,0.1,0.9-0.1,1.1-0.4c0.2-0.2,0.4-0.5,0.5-0.8
			c0.2-0.8-0.3-1.5-1.1-1.7l-21-4.4c0.6-2.6,1.1-5.2,1.7-7.8l14.2,3.3c0.4,0,0.8-0.2,0.9-0.5c0-0.1,0-0.2,0-0.4
			c0-0.4-0.2-0.8-0.6-0.8l-14.2-3.2c0.7-2.8,1.3-5.6,2-8.4l14.1,3.5c0.2,0.1,0.5,0,0.6-0.1c0.1,0,0.1-0.1,0.2-0.2c0,0,0,0,0,0
			c0.1-0.1,0.1-0.2,0.1-0.3c0.1-0.5-0.2-0.9-0.6-1l-14-3.5c0.7-2.8,1.4-5.6,2.2-8.4l13.9,3.7l0.1,0h0c0.2,0.1,0.4,0,0.6-0.1
			c0.2-0.1,0.4-0.3,0.6-0.5c0.1-0.4-0.2-0.9-0.6-1l-14.1-3.8c0.7-2.8,1.5-5.5,2.3-8.2l13.9,3.9h0.1c0.2,0,0.5-0.1,0.6-0.2
			c0.2-0.1,0.3-0.3,0.4-0.5c0.1-0.4-0.2-0.9-0.6-1l-14-3.9c0.7-2.6,1.5-5.1,2.3-7.7l20.4,6.2c0,0,0.1,0,0.1,0c0,0.1,0.1,0.1,0.2,0.1
			c0.1,0,0.1,0,0.2,0c0,0,0.1,0,0.1,0c0.6-0.1,1.1-0.4,1.4-1c0.3-0.8-0.1-1.6-0.9-1.8l-20.4-6.2c0.8-2.5,1.6-5.1,2.4-7.6l1.5,0.5
			l11.9,3.9c0.1,0,0.1,0,0.1,0c0.4,0.2,0.9-0.1,1-0.5c0.1-0.2,0.1-0.5-0.1-0.7c-0.1-0.2-0.3-0.4-0.5-0.5l-13.4-4.3
			c0.9-2.7,1.8-5.4,2.7-8.1l13.4,4.6c0.1,0,0.1,0,0.2,0c0.3,0,0.7-0.2,0.9-0.4c0.1-0.2,0-0.5-0.1-0.7c-0.1-0.2-0.2-0.4-0.5-0.5
			l-13.3-4.6c0.9-2.7,1.9-5.4,2.9-8.1l13.4,4.8c0.4,0.1,0.8-0.1,1-0.5c0-0.1,0-0.2,0-0.3c0-0.4-0.2-0.7-0.5-0.9l-13.3-4.8
			c1-2.7,2-5.4,3-8.1l13.2,5.1c0.2,0,0.3,0,0.5,0c0,0,0,0,0.1,0c0,0,0,0,0.1,0c0.2-0.1,0.4-0.2,0.5-0.4c0.1-0.4-0.1-0.8-0.5-1
			l-13.2-5.1c1-2.5,1.9-5,2.9-7.5l19.5,7.9c0.2,0.1,0.3,0.1,0.4,0.1c0.1,0,0.2,0,0.3,0c0.6,0,1.2-0.3,1.4-0.9
			c0.3-0.8-0.1-1.6-0.8-1.9l-20.1-8.1c1-2.4,2-4.8,3-7.2l13.5,5.7c0.5,0.2,0.9,0,1.1-0.4c0.1-0.3,0.1-0.6-0.1-0.8
			c-0.1-0.2-0.2-0.4-0.4-0.5l-13.4-5.6c1.1-2.7,2.3-5.3,3.5-8l13.3,5.9c0,0.1,0.1,0.1,0.2,0.1c0.1,0,0.2,0,0.3-0.1
			c0.1,0,0.1,0,0.2-0.1c0.2-0.1,0.3-0.1,0.4-0.2c0.1-0.1,0.1-0.3,0.1-0.4c0-0.3-0.1-0.7-0.5-0.9l-13.3-5.9c1.2-2.6,2.3-5.2,3.5-7.7
			l13.3,6.1c0.4,0.2,0.9,0,1.1-0.4c0,0,0-0.1,0-0.1c0,0,0,0,0.1-0.1c0.2-0.4,0-0.9-0.4-1.1l-13.3-6.1c1.2-2.6,2.4-5.1,3.7-7.7
			l13,6.3c0.1,0.1,0.2,0.1,0.3,0.1c0.1,0,0.2,0,0.4,0c0.1,0,0.2,0,0.2-0.1c0.1,0,0.2-0.1,0.3-0.2c0,0,0-0.1,0-0.1
			c0,0,0.1-0.1,0.1-0.1c0.2-0.4,0-0.9-0.4-1.1l-13.1-6.4c1.2-2.4,2.3-4.7,3.5-7.1l19.1,9.8c0.2,0,0.3,0.1,0.5,0.1
			c0.6,0,1.2-0.2,1.5-0.7c0.4-0.7,0.1-1.5-0.6-1.9l-19-9.7c1.2-2.4,2.5-4.8,3.8-7.2l12.5,6.7c0.1,0.1,0.2,0.1,0.3,0.1
			c0.4,0,0.7-0.1,0.8-0.6c0.2-0.4,0.1-0.9-0.3-1.1l-12.5-6.6c1.3-2.5,2.7-5,4-7.4l12.5,6.9c0.1,0.1,0.2,0.1,0.3,0.1
			c0.3,0,0.7-0.1,0.8-0.3c0.1-0.2,0.1-0.3,0.1-0.5c0.1-0.3-0.1-0.7-0.4-0.8l-12.4-6.8c1.4-2.5,2.8-5,4.3-7.5l12.2,7l0.2,0.1
			c0,0,0,0,0,0c0.1,0.1,0.2,0.1,0.3,0.1c0.1,0,0.1,0,0.2,0c0.2,0,0.3-0.1,0.4-0.2c0.1-0.1,0.2-0.1,0.3-0.2c0.2-0.4,0.1-0.9-0.3-1.1
			l-12.4-7.2c1.5-2.5,2.9-5,4.4-7.5l12.2,7.3l0,0c0,0,0,0,0,0c0.1,0.1,0.2,0.1,0.3,0.1c0.3,0.1,0.6-0.1,0.9-0.3
			c0.2-0.3,0.1-0.7-0.1-1c-0.1-0.1-0.1-0.2-0.3-0.2l-12.2-7.3c1.4-2.3,2.8-4.5,4.2-6.8l18,11.2c0.2,0.1,0.4,0.2,0.6,0.2
			c0.1,0,0.1,0,0.2,0c0.4,0,0.8-0.1,1.1-0.4c0.1-0.1,0.2-0.1,0.2-0.2c0.1-0.2,0.2-0.4,0.2-0.6c0.1-0.6-0.2-1.2-0.7-1.5l-18.1-11.2
			c1.4-2.2,2.9-4.5,4.3-6.7l12,7.7c0.4,0.3,0.9,0.2,1.1-0.2c0-0.1,0.1-0.1,0.1-0.2c0,0,0,0,0,0c0.3-0.4,0.2-0.9-0.2-1.1l-12-7.8
			c1.5-2.4,3.1-4.7,4.7-7.1l11.8,7.9c0.2,0,0.3,0.1,0.4,0.1c0.3,0.2,0.8,0.1,0.9-0.3c0.3-0.3,0.2-0.9-0.2-1.1l-11.9-8
			c1.6-2.4,3.2-4.7,4.8-7l11.7,8.2c0.1,0,0.3,0.1,0.4,0.1c0.3,0,0.6-0.1,0.8-0.2c0.2-0.2,0.2-0.6,0-0.9c-0.1-0.2-0.2-0.3-0.3-0.4
			l-11.7-8.1c1.7-2.4,3.3-4.7,5-7l11.6,8.5c0.3,0.2,0.8,0.2,1.1-0.2c0.2-0.3,0.2-0.8-0.2-1.1l-11.6-8.4c1.6-2.2,3.1-4.3,4.7-6.5
			l24.2,18.3c0.3,0.2,0.5,0.3,0.8,0.3c0.6,0.1,1.2-0.2,1.5-0.6c0.6-0.8,0.4-1.8-0.3-2.3L330,443.7c1.6-2,3.2-4.1,4.7-6.1l11.2,8.8
			c0.2,0.2,0.4,0.2,0.6,0.2c0.3,0,0.5-0.1,0.7-0.4c0.3-0.3,0.3-0.8-0.1-1.1l-11.4-8.9c1.8-2.3,3.6-4.5,5.4-6.7l11.2,9
			c0.1,0.1,0.3,0.2,0.4,0.2c0.2,0.1,0.4,0,0.6-0.2c0,0,0.1-0.1,0.1-0.1c0.2-0.2,0.2-0.4,0.2-0.6c0-0.2-0.1-0.5-0.3-0.6l-11.1-9
			c1.8-2.2,3.6-4.4,5.5-6.6l11.1,9.2c0.1,0.1,0.3,0.2,0.4,0.2c0.2,0,0.5-0.1,0.9-0.4c0.3-0.3,0.2-0.8-0.1-1.1l-11.1-9.3
			c1.8-2.2,3.7-4.4,5.5-6.5l10.9,9.4c0.1,0.1,0.2,0.2,0.4,0.2c0.2,0.1,0.5,0,0.9-0.2c0.3-0.3,0.2-0.8-0.1-1.1l-0.1-0.1c0,0,0,0,0,0
			l-7.8-6.7l-3.1-2.7c1.7-2,3.5-4,5.3-6l15.8,14.2l0,0c0,0,0,0,0,0c0.2,0.2,0.5,0.4,0.8,0.4c0.4,0,0.7-0.1,1-0.3
			c0.1-0.1,0.2-0.1,0.2-0.2c0.5-0.6,0.5-1.5-0.1-2l-15.9-14.3c1.8-2,3.6-4,5.5-6l1.4,1.3l9.2,8.6c0.2,0.1,0.3,0.2,0.5,0.2
			c0.3,0,0.4,0,0.5-0.2c0.1,0,0.1-0.1,0.2-0.1c0.3-0.3,0.3-0.8,0-1.1l-10.6-9.9c2-2.1,3.9-4.2,5.9-6.2l1.2,1.1l9.2,8.9
			c0.1,0.1,0.2,0.1,0.3,0.2c0,0,0.1,0,0.1,0c0,0,0,0,0.1,0c0,0,0,0,0,0c0.2,0,0.4,0,0.6-0.1c0,0,0,0,0,0c0,0,0.1,0,0.1-0.1
			c0,0,0,0,0,0c0,0,0,0,0.1-0.1c0.3-0.3,0.3-0.8,0-1.1l-10.5-10.1c2-2,4-4,5.9-6l10.2,10.2c0.2,0.1,0.3,0.2,0.5,0.2
			c0.2,0,0.3,0,0.5-0.1c0.1,0,0.2-0.1,0.3-0.2c0.3-0.3,0.3-0.8,0-1.1l-10.3-10.3c2-2,4.1-4,6.1-6l10.1,10.3c0.1,0.1,0.2,0.1,0.3,0.2
			c0,0,0.1,0,0.1,0c0,0,0,0,0.1,0c0,0,0,0,0,0c0.1,0,0.2,0,0.3,0c0.2,0,0.3,0,0.5,0c0.3-0.3,0.3-0.7,0.1-1c0-0.1-0.1-0.2-0.2-0.3
			l-8.6-8.8l-1.5-1.5c1.9-1.9,3.9-3.7,5.9-5.6l13.1,14l1.4,1.6c0,0,0,0,0,0l0.1,0.1c0.1,0,0.1,0.1,0.2,0.1c0.1,0,0.1,0.1,0.2,0.1
			c0.2,0.1,0.3,0.1,0.5,0.1c0.4,0,0.8-0.1,1.1-0.3c0.6-0.5,0.6-1.4,0.1-2l-14.5-15.6c2-1.8,4-3.6,6-5.4l9.5,10.5
			c0.1,0.2,0.3,0.3,0.5,0.3c0,0,0,0,0,0c0.2,0,0.4,0,0.6-0.2c0.4-0.3,0.4-0.7,0.2-1c0-0.1-0.1-0.2-0.2-0.3l-9.4-10.4
			c2.1-1.9,4.3-3.8,6.5-5.7l9.3,10.8c0.1,0.2,0.3,0.3,0.5,0.3s0.5-0.1,0.7-0.4c0.4-0.3,0.4-0.8,0.1-1.1l-9.3-10.7
			c2.2-1.9,4.4-3.8,6.6-5.6l9.1,10.9c0,0,0,0,0,0c0.1,0.2,0.3,0.3,0.5,0.3c0.2,0.1,0.4,0,0.7-0.2c0.3-0.2,0.4-0.8,0.1-1.1l-9.2-11
			c2.2-1.8,4.4-3.7,6.6-5.5l9,11.1c0.1,0.2,0.3,0.3,0.5,0.3s0.4-0.1,0.7-0.3c0.2-0.1,0.2-0.3,0.3-0.5c0-0.2,0-0.4-0.2-0.6l-8.9-11.1
			c2.1-1.7,4.1-3.3,6.2-5L449,353c0.2,0.3,0.5,0.5,0.9,0.5c0,0,0,0,0,0c0.1,0,0.2,0,0.3,0c0.3,0,0.5,0,0.8-0.1
			c0.3-0.3,0.5-0.7,0.5-1.1c0.1-0.4,0-0.8-0.3-1.1l-13-16.7c2.1-1.6,4.2-3.3,6.4-4.9l8.5,11.3l0,0c0.2,0.3,0.5,0.4,0.9,0.3
			c0.1,0,0.1,0,0.1,0c0.1-0.1,0.2-0.1,0.3-0.2c0.3-0.2,0.3-0.6,0-1l-8.6-11.4c2.3-1.7,4.6-3.4,6.9-5.1l8.4,11.5
			c0.2,0.4,0.7,0.5,1.1,0.2c0.4-0.2,0.5-0.6,0.3-1c0-0.1-0.1-0.3-0.2-0.4l-8.2-11.3c2.3-1.7,4.7-3.4,7.1-5l8,11.5
			c0.1,0.2,0.3,0.3,0.5,0.4c0.1,0,0.1,0,0.2,0c0.2,0,0.4,0,0.5,0c0.4-0.2,0.5-0.7,0.2-1.1l0,0c0-0.1,0-0.1-0.1-0.2l-8-11.5
			c2.4-1.7,4.8-3.3,7.1-4.9l8,11.8c0.2,0.4,0.7,0.4,1.1,0.2c0.3-0.1,0.3-0.4,0.3-0.7c0-0.2,0-0.4-0.1-0.6l-7.9-11.7
			c2.2-1.5,4.5-3,6.7-4.4l11.6,17.9c0.5,0.6,1.3,0.8,2,0.4c0.5-0.4,0.7-0.9,0.6-1.5c0-0.2-0.1-0.4-0.2-0.6l-11.6-17.9
			c2.2-1.4,4.5-2.8,6.7-4.3l7.6,12.1c0,0.1,0.1,0.2,0.2,0.2c0.2,0.3,0.6,0.3,1,0.2c0.4-0.2,0.5-0.7,0.3-1.1l-7.7-12.2
			c2.4-1.5,4.9-3,7.4-4.5l7.3,12.1c0.1,0.1,0.1,0.2,0.2,0.2c0.1,0.1,0.3,0.3,0.5,0.3c0.2,0,0.4,0,0.5-0.1c0.4-0.2,0.5-0.7,0.3-1.1
			l-7.4-12.3c2.5-1.5,5-3,7.5-4.4l7.2,12.5c0.2,0.4,0.7,0.5,1.1,0.3c0.4-0.2,0.5-0.7,0.3-1.1l-7.2-12.5c2.5-1.4,5-2.9,7.6-4.3l2.2,4
			l4.7,8.5c0.1,0.2,0.4,0.4,0.6,0.4s0.3,0,0.7-0.1c0.4-0.2,0.5-0.7,0.3-1.1l-7-12.6c2.3-1.3,4.6-2.5,6.9-3.8l10,18.8
			c0.1,0.2,0.2,0.3,0.4,0.4c0.4,0.4,1.1,0.5,1.6,0.2c0.7-0.3,1-1.2,0.6-1.9l-10-18.8c2.3-1.2,4.7-2.4,7.1-3.7l6.5,12.7l0,0
			c0,0.1,0.1,0.2,0.2,0.2c0,0,0,0,0.1,0c0,0,0,0,0,0c0.2,0.2,0.6,0.3,0.9,0.1c0.4-0.2,0.6-0.7,0.4-1.1l-6.6-12.8
			c2.5-1.3,5.1-2.6,7.6-3.8l6.3,12.8c0.2,0.4,0.7,0.6,1.1,0.4c0,0,0.1,0,0.1-0.1c0,0,0.1,0,0.1,0c0.4-0.2,0.6-0.7,0.4-1.1l-6.3-12.9
			c2.6-1.3,5.2-2.5,7.8-3.7l2,4.2l4.1,8.9c0.2,0.4,0.7,0.6,1.1,0.4c0.4-0.2,0.6-0.7,0.4-1.1l-4.7-10.1l-1.4-2.9
			c2.6-1.2,5.3-2.4,7.9-3.6l5.8,13l0,0.1c0.1,0.3,0.3,0.5,0.6,0.5c0.2,0,0.3,0,0.5,0c0.3-0.2,0.5-0.5,0.5-0.8c0-0.1,0-0.3-0.1-0.4
			l-5.8-13c2.4-1,4.7-2.1,7.1-3.1l12,28c0.2,0.6,0.7,0.9,1.3,1c0.2,0.1,0.5,0,0.7,0c0.9-0.3,1.2-1.3,0.9-2.1l-12-28.3
			c2.4-1,4.8-2,7.3-3l5.4,13.4c0.2,0.3,0.4,0.5,0.7,0.5c0.1,0,0.2,0,0.3-0.2c0.3-0.1,0.5-0.4,0.5-0.7c0-0.1,0-0.3-0.1-0.4l-5.3-13.2
			c2.7-1.1,5.3-2.1,8-3.2l5.2,13.5c0,0.1,0.1,0.1,0.1,0.2c0,0.1,0.1,0.1,0.1,0.2c0,0,0.1,0.1,0.1,0.1c0,0,0,0,0.1,0
			c0.1,0,0.2,0.1,0.3,0.1c0.1,0,0.3,0,0.4,0c0.5-0.1,0.7-0.6,0.5-1l-5.2-13.6c2.7-1,5.4-2,8.1-3l5,13.6c0.1,0.4,0.6,0.7,1,0.5
			c0.4-0.1,0.7-0.6,0.5-1l-5-13.6c2.7-1,5.4-1.9,8.1-2.9l4.7,13.7c0.1,0.4,0.6,0.6,1,0.5c0,0,0.1,0,0.1-0.1c0.1,0,0.1,0,0.2,0.1
			c0.4-0.1,0.6-0.6,0.5-1l-4.8-13.9c2.5-0.9,5.1-1.7,7.6-2.5l6.6,20.3c0,0,0,0,0,0c0.2,0.6,0.7,0.9,1.2,1c0.2,0.1,0.4,0,0.6-0.1
			c0,0,0,0,0,0c0.7-0.2,1.1-1.1,0.9-1.8l-6.6-20.3c2.5-0.8,5.1-1.6,7.6-2.4l4.3,13.9c0.1,0.4,0.6,0.6,1,0.5c0,0,0,0,0,0
			c0.4-0.1,0.6-0.6,0.5-1l0,0l-4.2-13.9c2.7-0.8,5.5-1.7,8.3-2.5l4,14c0.1,0.5,0.6,0.7,1,0.6c0.4-0.1,0.6-0.5,0.6-0.9
			c0-0.1,0-0.2,0-0.3l-3.9-13.8c2.8-0.8,5.6-1.6,8.3-2.3l3.8,14c0.1,0.3,0.4,0.6,0.7,0.6c0.1,0,0.2,0,0.3-0.1c0.5-0.1,0.7-0.6,0.6-1
			l-3.7-14c2.7-0.7,5.5-1.4,8.3-2.1L660,242c0.1,0.4,0.6,0.7,1,0.6c0.4-0.1,0.7-0.6,0.6-1l-3.5-14.1c2.6-0.6,5.2-1.3,7.8-1.9
			l4.8,20.9c0.1,0.6,0.6,1,1.2,1.1c0.2,0,0.4,0,0.5,0c0.7-0.2,1.2-0.8,1.1-1.4c0-0.1,0-0.2,0-0.4l-4.8-20.7c2.6-0.6,5.2-1.1,7.9-1.7
			l3,14c0.1,0.3,0.4,0.6,0.7,0.6c0,0,0,0,0.1,0c0.1,0,0.2,0,0.3,0c0.4-0.1,0.7-0.6,0.6-1l-3-14c2.8-0.6,5.6-1.1,8.3-1.7l1.7,8.8
			l1,5.3c0,0.1,0,0.1,0.1,0.2c0,0,0,0,0,0c0.1,0.2,0.4,0.4,0.6,0.4c0.1,0,0.2,0,0.3,0c0.4,0,0.7-0.5,0.6-0.9l-2.8-14
			c2.8-0.5,5.7-1.1,8.5-1.6l2.5,14c0,0.5,0.5,0.8,0.9,0.7c0.3,0,0.5-0.1,0.6-0.3c0.2-0.2,0.3-0.4,0.2-0.7l-2.5-14
			c2.8-0.5,5.7-1,8.5-1.4l1.7,10.8l0.5,3.3c0,0.5,0.5,0.8,0.9,0.7c0.5,0,0.8-0.5,0.7-0.9l-2.3-14.2c2.7-0.4,5.3-0.8,8-1.2l3,21.1
			c0.1,0.5,0.4,0.8,0.8,1c0,0,0,0,0.1,0c0.1,0,0.2,0.1,0.3,0.1c0,0,0.1,0,0.1,0c0,0,0.1,0,0.2,0c0.1,0,0.1,0,0.2,0
			c0.4-0.1,0.7-0.3,0.9-0.6c0.3-0.3,0.4-0.7,0.4-1.1l-3-21.1c2.6-0.4,5.2-0.7,7.9-1l1.7,14.4c0.1,0.4,0.5,0.7,0.9,0.7
			c0.2-0.1,0.4-0.2,0.6-0.4c0.2-0.2,0.3-0.4,0.2-0.6l-1.7-14.3c2.9-0.3,5.7-0.7,8.6-1l1.5,14.3c0,0,0,0,0,0c0,0.4,0.3,0.7,0.7,0.7
			c0,0,0.1,0,0.3,0c0.4-0.1,0.7-0.5,0.7-0.9l-1.5-14.3c2.8-0.3,5.6-0.6,8.5-0.8L749,227c0,0.4,0.3,0.7,0.7,0.7c0.1,0,0.2,0,0.2,0.1
			c0.2-0.1,0.4-0.2,0.5-0.4c0.2-0.2,0.4-0.5,0.4-0.7l-1.3-14.2c2.8-0.2,5.7-0.5,8.5-0.7l1,14.4c0,0.2,0.2,0.3,0.3,0.5c0,0,0,0,0,0
			c0,0,0,0,0.1,0.1c0.1,0.1,0.3,0.2,0.4,0.2c0,0,0.1,0,0.1,0.1c0.4-0.1,0.7-0.5,0.7-0.9l0-0.1c0,0,0,0,0,0l-0.2-2.3l-0.8-12
			c2.7-0.2,5.4-0.4,8.1-0.5l1.1,21.3c0,0.1,0,0.2,0.1,0.3c0.1,0.5,0.6,0.9,1.1,1c0,0.1,0.1,0.1,0.3,0.1c0.7,0,1.3-0.7,1.3-1.5l0-0.1
			c0,0,0,0,0,0l-0.2-4.2l-0.9-17c2.7-0.1,5.3-0.2,8-0.3l0.4,12.4l0.1,2c0,0.4,0.3,0.8,0.7,0.8c0.1,0,0.1,0,0.1-0.1c0,0,0,0,0,0
			c0.5,0,0.8-0.4,0.8-0.8l0-0.1c0,0,0,0,0,0l-0.1-1.9l-0.4-12.3c2.9-0.1,5.7-0.2,8.6-0.2l0.3,14.3c0,0.4,0.3,0.8,0.7,0.8
			c0.1,0,0.1,0,0.1,0c0.3,0,0.5-0.1,0.6-0.3c0.2-0.2,0.3-0.4,0.3-0.6l-0.3-14.2c2.9,0,5.7-0.1,8.6-0.1v14.3c0,0.4,0.4,0.8,0.8,0.8
			c0.5,0.1,0.9-0.3,0.9-0.8v-14.3c2.9,0,5.8,0,8.7,0.1l-0.3,14.3c0,0.4,0.3,0.8,0.7,0.8c0,0,0.1,0,0.1,0c0,0,0,0,0,0c0,0,0,0,0,0
			c0.4,0,0.6-0.2,0.7-0.5c0.1-0.1,0.1-0.2,0.1-0.3l0.3-14.3c2.7,0,5.4,0.1,8.1,0.2l-0.8,21.3c-0.1,0.8,0.5,1.4,1.2,1.5
			c0.1,0,0.1,0,0.2,0c0,0,0,0,0.1,0c0,0,0,0,0,0c0.8,0,1.5-0.6,1.5-1.4l0.8-21.3c2.6,0.1,5.3,0.2,7.9,0.4l-0.7,14.4
			c0,0.4,0.3,0.7,0.7,0.8c0.2,0,0.4-0.1,0.5-0.2c0.3-0.1,0.6-0.4,0.6-0.7l0.7-14.2c2.8,0.2,5.6,0.3,8.4,0.5l-1,14.3
			c-0.1,0.5,0.2,0.9,0.7,0.9c0,0,0,0,0,0c0,0,0,0,0,0c0.5,0.1,0.9-0.3,0.9-0.7l1-14.4c2.9,0.2,5.8,0.4,8.6,0.7l-1.2,14.2
			c-0.1,0.3,0,0.5,0.2,0.7c0.1,0.2,0.3,0.3,0.5,0.3c0.5,0,0.9-0.3,1-0.7l1.3-14.4c2.8,0.3,5.7,0.5,8.5,0.8l-1.3,12.6l-0.2,1.6
			c0,0,0,0,0,0.1l0,0c0,0,0,0,0,0c0,0.1,0,0.2,0,0.3c0,0,0,0.1,0.1,0.1c0,0,0,0.1,0,0.1c0.1,0.2,0.3,0.3,0.5,0.4
			c0.5,0,0.9-0.3,0.9-0.8l1.6-14.3c2.6,0.3,5.3,0.6,7.9,0.9l-3.8,30.5c-0.1,0.9,0.5,1.7,1.4,1.8c0.9,0.1,1.7-0.5,1.8-1.4l3.8-30.6
			c2.6,0.3,5.1,0.7,7.7,1l-2,14.2c0,0.4,0.3,0.8,0.7,0.9c0,0,0.1,0,0.1,0c0,0,0,0,0,0c0.4,0.1,0.8-0.3,0.9-0.7l2-14.2
			c2.8,0.4,5.7,0.8,8.5,1.3l-2.2,14.2c-0.1,0.2,0,0.4,0.2,0.6c0.1,0.2,0.3,0.3,0.5,0.4c0.4,0,0.8-0.3,0.9-0.7l2.2-14.3
			c2.9,0.5,5.7,0.9,8.6,1.4l-2.5,14.2c-0.1,0.4,0.2,0.8,0.7,0.9c0.4,0.1,0.7-0.2,0.9-0.5c0.1-0.1,0.1-0.2,0.1-0.3l2.5-14
			c2.8,0.5,5.6,1,8.5,1.6l-1.7,8.8l-1,5.2c0,0.1,0,0.1,0,0.2c0,0.4,0.2,0.7,0.6,0.8c0.1,0,0.2,0,0.3,0c0.3,0,0.6-0.3,0.7-0.7l2.7-14
			c2.6,0.5,5.3,1,7.9,1.6l-4.4,20.6c0,0.1,0,0.3,0,0.4c-0.1,0.7,0.4,1.3,1.1,1.5h0.1c0.7,0.1,1.4-0.3,1.7-1.2l4.4-20.9
			c2.5,0.5,5.1,1.1,7.6,1.7l-3.2,14.2c-0.1,0.5,0.2,0.9,0.6,1c0.1,0,0.2,0,0.4,0c0.3,0,0.7-0.3,0.8-0.7l3.2-14.1
			c2.8,0.7,5.6,1.3,8.4,2l-3.5,14.1c0,0,0,0,0,0c-0.1,0.5,0.2,0.9,0.6,1c0.1,0,0.2,0,0.4,0c0.1,0,0.2,0,0.2-0.1
			c0.2-0.1,0.4-0.3,0.4-0.5l3.5-14c2.8,0.7,5.5,1.4,8.3,2.2l-3.8,14.1c-0.1,0.4,0.2,0.9,0.6,1c0.1,0,0.3,0,0.4,0
			c0.3-0.1,0.6-0.3,0.7-0.7l3.8-14c2.8,0.7,5.5,1.5,8.3,2.3l-4,13.9c-0.1,0.3,0.1,0.7,0.3,0.9c0.1,0.1,0.2,0.2,0.4,0.2
			c0.4,0.1,0.9-0.2,1-0.6l4-14c2.5,0.7,5.1,1.5,7.6,2.2l-6.2,20.5c-0.3,0.8,0.1,1.6,0.9,1.8c0.8,0.3,1.6-0.1,1.8-0.9l0.1-0.2
			c0,0,0,0,0-0.1l6.1-20.1c2.6,0.8,5.1,1.6,7.7,2.4l-4.4,13.7c-0.2,0.4,0.1,0.9,0.5,1c0.1,0,0.1,0,0.1,0c0.4,0.2,0.9-0.1,1-0.5
			l4.4-13.7c2.7,0.9,5.5,1.8,8.2,2.7l-0.5,1.4l-4.2,12.2c0,0.1,0,0.2,0,0.3c0,0.3,0.2,0.7,0.5,0.8c0.3,0.1,0.8-0.1,0.9-0.4
			c0.1-0.1,0.2-0.1,0.3-0.2l4.6-13.6c2.7,0.9,5.4,1.9,8.1,2.9l-4.9,13.6c-0.1,0.3,0,0.6,0.3,0.9c0.1,0.1,0.2,0.2,0.3,0.2
			c0.4,0.1,0.8-0.1,1-0.5l4.9-13.6c2.7,1,5.4,2,8.1,3l-5.2,13.4l0,0c-0.1,0.4,0.1,0.8,0.5,1c0.2,0.1,0.4,0,0.6-0.1
			c0.2-0.1,0.4-0.2,0.5-0.3l5.2-13.5c2.4,0.9,4.8,1.9,7.2,2.8l-7.9,19.7c-0.3,0.8,0.1,1.6,0.8,1.9c0.2,0.1,0.3,0.1,0.4,0.1
			c0.1,0,0.1,0,0.1,0c0,0,0.1,0,0.1,0c0.6,0,1.1-0.3,1.3-0.7l8-19.9c2.5,1,4.9,2,7.4,3.1l-3,7.3l-2.5,5.8c-0.1,0.1-0.1,0.3-0.1,0.4
			c0,0.4,0.2,0.6,0.5,0.8c0.1,0.1,0.1,0.1,0.2,0.1c0.3,0.1,0.7-0.1,0.8-0.4l0.1-0.1c0,0,0,0,0-0.1l0.8-2l4.7-11
			c2.6,1.1,5.2,2.3,7.8,3.4l-5.8,13c-0.2,0.4,0,0.9,0.4,1.1c0,0,0.1,0,0.1,0c0,0.1,0.1,0.1,0.2,0.1c0.3,0.1,0.7-0.1,0.9-0.6
			l5.7-12.9c2.6,1.2,5.2,2.4,7.8,3.6l-6,12.9l0,0c-0.2,0.4,0,0.9,0.4,1.1c0,0,0,0,0,0c0,0.1,0.1,0.1,0.2,0.1c0.2,0,0.4,0,0.5-0.1
			c0.1-0.1,0.3-0.2,0.4-0.4l6-12.9c2.6,1.2,5.1,2.4,7.7,3.7l-6.3,12.9c-0.2,0.4,0,0.9,0.4,1.1c0.1,0,0.1,0,0.2,0
			c0.1,0,0.2,0.1,0.2,0.1c0.3,0.1,0.7-0.1,0.9-0.4l6.2-12.9c2.4,1.2,4.7,2.3,7.1,3.5l-9.6,18.9c-0.1,0.2-0.2,0.4-0.2,0.6
			c-0.1,0.5,0.2,1.1,0.8,1.4c0.2,0,0.3,0.1,0.5,0.1c0.5,0.1,1-0.1,1.2-0.6c0.1-0.1,0.1-0.2,0.2-0.2l9.7-19c2.4,1.2,4.8,2.5,7.2,3.8
			l-6.7,12.7c-0.2,0.4-0.1,0.9,0.3,1.1c0.1,0.1,0.2,0.1,0.3,0.1c0,0,0.1,0,0.1,0c0.3,0,0.7-0.1,0.8-0.4l6.7-12.7
			c2.5,1.3,4.9,2.7,7.4,4l-6.9,12.6c-0.2,0.3-0.1,0.7,0.1,1c0.1,0.1,0.1,0.2,0.3,0.2c0.1,0.1,0.2,0.1,0.3,0.1c0.3,0,0.6-0.1,1-0.4
			l6.9-12.5c2.5,1.4,4.9,2.8,7.4,4.2l-7.2,12.4c-0.1,0.1-0.1,0.3-0.1,0.4c0,0.3,0.1,0.7,0.4,0.8c0.4,0.2,0.9,0.1,1.1-0.3l7.2-12.5
			c2.5,1.4,5,2.9,7.4,4.4l-7.5,12.4c-0.2,0.4-0.1,0.9,0.3,1.1c0.3,0.2,0.7,0.1,1-0.2c0.1-0.1,0.2-0.1,0.2-0.2l7.4-12.3
			c2.3,1.4,4.5,2.7,6.8,4.1l-11.3,18.2c-0.4,0.7-0.2,1.6,0.5,2c0.6,0.3,1.3,0.2,1.7-0.2c0.1-0.1,0.3-0.2,0.4-0.3l11.2-18.1
			c2.3,1.4,4.5,2.9,6.7,4.3l-7.8,11.9c-0.3,0.3-0.2,0.7,0,1c0.1,0.1,0.1,0.2,0.3,0.2c0.1,0,0.2,0.1,0.3,0.1c0.3,0,0.6-0.1,0.7-0.4
			l7.9-11.9c2.4,1.5,4.7,3.1,7.1,4.7l-8,11.9l0,0c-0.3,0.3-0.2,0.9,0.2,1.1c0,0,0,0,0,0c0.2,0.2,0.6,0.2,0.8,0.1c0,0,0,0,0,0
			c0,0,0,0,0.1,0c0.1-0.1,0.2-0.1,0.3-0.2l8-11.9c2.4,1.6,4.8,3.3,7.2,4.9l-8.2,11.8c-0.2,0.2-0.2,0.4-0.2,0.6
			c0,0.2,0.1,0.5,0.4,0.6c0.3,0.3,0.8,0.2,1.1-0.2l8.3-11.8c2.4,1.7,4.7,3.3,7.1,5l-8.4,11.6c-0.1,0.2-0.1,0.4-0.1,0.6
			c0,0.2,0.1,0.5,0.3,0.6c0.1,0,0.3,0.1,0.4,0.1c0.3,0,0.6-0.1,0.6-0.2l8.5-11.7c2.1,1.6,4.3,3.1,6.4,4.7l-18.3,24.3
			c-0.6,0.8-0.4,1.8,0.3,2.3c0.3,0.2,0.5,0.3,0.8,0.3c0.5,0,1.1-0.2,1.5-0.6l18.4-24.4c2.1,1.6,4.1,3.2,6.2,4.8l-8.8,11.3
			c-0.3,0.3-0.3,0.8,0.1,1.1c0.1,0.1,0.1,0.1,0.2,0.1c0,0,0.1,0,0.1,0c0,0,0.1,0,0.1,0c0,0,0,0,0,0c0.2,0,0.5-0.1,0.7-0.3l8.9-11.3
			c2.3,1.8,4.5,3.6,6.8,5.4l-9,11.1c-0.3,0.3-0.2,0.8,0.1,1.1c0.1,0.1,0.3,0.2,0.4,0.2c0.1,0,0.1,0,0.2,0c0,0,0.1,0,0.1,0
			c0.2,0,0.4-0.1,0.5-0.2l9-11.2c2.2,1.8,4.5,3.7,6.7,5.5l-9.2,11c-0.2,0.2-0.2,0.4-0.2,0.6c0,0.2,0.1,0.5,0.3,0.6
			c0.3,0.3,0.8,0.2,1.1-0.1l0.1-0.1c0,0,0,0,0,0l9.1-11c2.2,1.9,4.4,3.7,6.6,5.6l-9.4,10.9c-0.3,0.3-0.2,0.6,0,0.9
			c0,0.1,0.1,0.3,0.2,0.4c0.3,0.3,0.8,0.2,1.1-0.1c0,0,0,0,0,0l0.2-0.2l9.3-10.7c2,1.7,4,3.5,5.9,5.2l-14.3,15.8
			c-0.3,0.3-0.4,0.7-0.4,1.1c0,0.4,0.1,0.8,0.5,1c0.5,0.4,1.3,0.5,1.8,0.1c0,0,0.1,0,0.1-0.1c0,0,0.1-0.1,0.1-0.1l0.1-0.1
			c0,0,0,0,0,0l1.5-1.7l12.7-14c2,1.8,4,3.7,5.9,5.5l-9.7,10.4c-0.3,0.3-0.3,0.8,0,1.1c0.2,0.1,0.3,0.2,0.5,0.2
			c0.2,0.1,0.5,0,0.7-0.1l9.8-10.4c2.1,1.9,4.1,3.9,6.2,5.9l-9.9,10.2c-0.2,0.2-0.2,0.4-0.2,0.6c0,0.2,0.1,0.4,0.2,0.6
			c0.3,0.3,0.8,0.3,1.1,0l0.1-0.1c0,0,0,0,0,0l9.9-10.2c2.1,2,4.1,4,6.1,6l-10.1,10.1c-0.3,0.3-0.3,0.8,0,1.1
			c0.1,0.1,0.2,0.1,0.3,0.2c0,0,0.1,0,0.1,0c0,0,0,0,0.1,0c0,0,0,0,0,0c0.1,0,0.3,0,0.4,0c0.1,0,0.2,0,0.2,0l10.2-10.2
			c2,2,4,4,5.9,6l-10,9.7l-0.3,0.2c0,0,0,0,0,0l-0.1,0.1c-0.3,0.3-0.3,0.8,0,1.1c0.2,0.2,0.6,0.3,0.9,0.1c0.1,0,0.2,0,0.4,0l10.3-10
			c1.8,1.9,3.7,3.8,5.5,5.7l-15.5,14.5c-0.3,0.3-0.5,0.6-0.5,1c0,0.4,0.1,0.8,0.4,1.1c0.3,0.2,0.6,0.4,0.9,0.4
			c0.4,0,0.8-0.1,1.1-0.4c0,0,0,0,0,0l15.6-14.5c1.8,2,3.6,3.9,5.4,5.9l-10.5,9.6c-0.4,0.3-0.4,0.8-0.1,1.1c0.1,0.2,0.3,0.3,0.5,0.3
			c0.2,0.1,0.4,0,0.6-0.2l0,0l10.6-9.6c1.9,2.2,3.9,4.3,5.8,6.5l-10.8,9.4c-0.4,0.3-0.4,0.8-0.1,1.1c0.1,0.1,0.1,0.2,0.3,0.2
			c0.3,0.2,0.7,0.2,0.9,0l10.8-9.4c1.9,2.2,3.8,4.4,5.6,6.6l-11,9.2c-0.3,0.3-0.4,0.8-0.1,1.1c0.1,0.2,0.3,0.3,0.5,0.3
			c0.2,0,0.5,0,0.8-0.1l10.9-9.1c1.8,2.2,3.6,4.3,5.4,6.5l-11.1,9c-0.3,0.2-0.4,0.8-0.1,1.1c0.1,0.1,0.2,0.2,0.3,0.2
			c0.3,0.2,0.7,0.2,0.9,0l11.1-9c1.7,2.1,3.3,4.2,5,6.3L1247,449c-0.3,0.2-0.5,0.6-0.5,1c0,0.4,0.1,0.7,0.3,1
			c0.2,0.3,0.5,0.5,0.9,0.5c0,0,0,0,0,0c0.4,0.1,0.8,0,1.1-0.3l16.8-13.1c1.6,2.1,3.2,4.2,4.8,6.3l-11.5,8.7
			c-0.4,0.2-0.5,0.7-0.2,1.1c0.1,0.2,0.3,0.3,0.5,0.4c0.1,0,0.1,0,0.2,0c0.2,0,0.4-0.1,0.6-0.1l11.5-8.7c1.7,2.3,3.4,4.6,5.1,6.9
			l-11.7,8.5c-0.4,0.2-0.5,0.7-0.2,1.1c0.1,0.1,0.3,0.2,0.4,0.3c0.2,0.2,0.6,0.2,0.9-0.1l11.6-8.4c1.7,2.3,3.4,4.7,5,7l-11.9,8.3
			c-0.4,0.2-0.5,0.7-0.2,1.1c0.2,0.3,0.5,0.4,0.8,0.3c0.1,0,0.3-0.1,0.6-0.2l11.6-8.1c1.6,2.4,3.3,4.7,4.9,7.1l-6.2,4.2l-5.7,3.8
			c-0.1,0.1-0.2,0.1-0.2,0.2c-0.2,0.2-0.2,0.6-0.1,1c0.2,0.2,0.4,0.3,0.6,0.3s0.4,0,0.4-0.1l0.1-0.1c0,0,0.1,0,0.1,0l6.1-4.1
			l5.8-3.9c1.5,2.2,3,4.5,4.5,6.8l-18,11.7c-0.6,0.5-0.8,1.3-0.4,2c0.2,0.2,0.3,0.3,0.5,0.4c0.1,0.1,0.2,0.1,0.4,0.2c0,0,0,0,0.1,0
			c0,0,0.1,0,0.1,0c0.1,0,0.2,0,0.3,0c0,0,0.1,0,0.1,0c0.1,0,0.2-0.1,0.3-0.1c0.1,0,0.1,0,0.2-0.1l17.9-11.6
			c1.4,2.2,2.8,4.5,4.3,6.7l-12.1,7.6c-0.1,0.1-0.2,0.1-0.3,0.2c-0.3,0.2-0.3,0.6-0.1,1c0.1,0.2,0.4,0.4,0.6,0.4s0.4,0,0.4,0
			l12.3-7.7c1.5,2.4,3,4.9,4.5,7.4l-12.2,7.4c-0.4,0.2-0.5,0.7-0.3,1.1c0.1,0.2,0.4,0.4,0.6,0.4c0.1,0.1,0.2,0,0.3,0
			c0.1,0,0.2,0,0.3-0.1l12.2-7.3c1.5,2.4,2.9,4.9,4.3,7.4l-12.4,7.2c-0.4,0.2-0.5,0.7-0.3,1.1c0.1,0.1,0.1,0.2,0.2,0.2
			c0.1,0.1,0.3,0.3,0.5,0.3c0.1,0,0.3,0,0.5-0.1l12.4-7.2c1.4,2.5,2.8,5,4.2,7.5l-12.5,7c-0.3,0.2-0.4,0.5-0.4,0.8
			c0,0.2,0,0.3,0.1,0.5c0.2,0.4,0.7,0.5,1.1,0.3l12.6-7c1.3,2.3,2.5,4.6,3.8,7l-18.7,9.9c-0.2,0.1-0.3,0.2-0.5,0.3
			c-0.4,0.4-0.6,1.1-0.2,1.7c0.2,0.4,0.7,0.6,1.1,0.7c0.3,0.1,0.5,0,0.8-0.1l18.9-10.1c1.2,2.4,2.5,4.7,3.7,7.1l-12.8,6.5
			c-0.3,0.2-0.5,0.5-0.5,0.8c0,0.1,0,0.3,0.1,0.4c0.1,0.2,0.3,0.4,0.6,0.4c0.2,0,0.3,0,0.4,0l13-6.6c1.3,2.6,2.6,5.2,3.9,7.8
			l-5.2,2.5l-7.7,3.7c-0.1,0.1-0.2,0.1-0.3,0.2c-0.3,0.2-0.4,0.6-0.2,1c0.1,0.2,0.3,0.4,0.6,0.4c0.1,0,0.1,0,0.2,0
			c0.1,0,0.3,0,0.4-0.1l12.8-6.3c1.2,2.6,2.5,5.1,3.7,7.7l-13,6.1c-0.4,0.2-0.6,0.7-0.4,1.1c0.1,0.3,0.3,0.5,0.6,0.5
			c0.1,0,0.3,0,0.6,0l13-6.1c1.2,2.6,2.4,5.2,3.5,7.8l-13.2,5.9c-0.4,0.2-0.6,0.7-0.4,1.1c0.1,0.1,0.2,0.2,0.3,0.3
			c0.1,0.1,0.2,0.2,0.4,0.2c0.1,0,0.1,0,0.3-0.1c0,0,0.1,0,0.1,0l13.2-5.9c1.1,2.4,2.1,4.8,3.1,7.2l-28.1,12
			c-0.9,0.3-1.2,1.3-0.9,2.1c0.2,0.6,0.7,0.9,1.3,1c0.2,0,0.5,0,0.8-0.1l28.2-12c1,2.4,2,4.9,3,7.3l-13.3,5.4
			c-0.3,0.1-0.5,0.4-0.5,0.7c0,0.1,0,0.2,0.1,0.3c0.1,0.3,0.3,0.5,0.6,0.5c0.1,0,0.2,0,0.4-0.1c0,0,0,0,0,0l13.3-5.4
			c1.1,2.7,2.2,5.4,3.2,8.1l-13.4,5.2c-0.4,0.1-0.6,0.4-0.6,0.7c0,0.1,0,0.2,0.1,0.4c0.1,0.5,0.6,0.7,1,0.5l13.5-5.2
			c1,2.7,2.1,5.4,3,8.1l-2,0.7l-11.5,4.2c-0.4,0.1-0.7,0.6-0.5,1c0.1,0.2,0.3,0.4,0.5,0.5c0.2,0.1,0.4,0.1,0.6,0l13.5-4.9
			c1,2.7,1.9,5.4,2.9,8.1l-13.6,4.7v0l0,0c-0.4,0.1-0.6,0.6-0.5,1c0,0,0,0,0,0c0,0.1,0.1,0.1,0.1,0.2c0,0.1,0.1,0.1,0.1,0.1
			c0,0,0,0,0.1,0c0.1,0,0.1,0.1,0.2,0.1c0,0,0,0,0,0c0.2,0.1,0.3,0.1,0.5,0l13.6-4.7c0.9,2.5,1.7,5.1,2.6,7.6l-20.3,6.6
			c-0.6,0.2-1,0.9-0.9,1.5c0,0.1,0,0.2,0,0.4c0.3,0.7,1.1,1.1,1.8,0.9l20.3-6.6c0.8,2.5,1.6,5,2.4,7.6l-13.8,4.2
			c-0.3,0.1-0.5,0.4-0.5,0.8c0,0.1,0,0.2,0,0.3c0.1,0.4,0.6,0.6,1,0.5l13.8-4.2c0.8,2.7,1.7,5.5,2.5,8.3l-13.7,3.9
			c-0.2,0-0.3,0.1-0.4,0.2c-0.3,0.2-0.4,0.6-0.3,0.9c0.1,0.3,0.4,0.6,0.7,0.6c0.1,0,0.2,0,0.2,0l14-4c0.8,2.8,1.5,5.5,2.3,8.3
			l-14,3.8c-0.5,0.1-0.7,0.6-0.6,1c0.1,0.5,0.6,0.7,1,0.6c0.1,0,0.2,0,0.3,0l13.8-3.7c0.7,2.8,1.4,5.6,2.1,8.3l-14,3.5
			c-0.4,0.1-0.7,0.6-0.6,1c0.1,0.3,0.4,0.6,0.7,0.6c0,0,0.1,0,0.1,0c0.1,0,0.2,0,0.3,0l13.9-3.5c0.6,2.6,1.3,5.2,1.9,7.8l-20.7,4.8
			c-0.3,0.1-0.6,0.2-0.8,0.5c-0.4,0.3-0.5,0.8-0.4,1.3c0.1,0.6,0.6,1,1.2,1.1c0.2,0,0.4,0,0.5,0l20.9-4.8c0.6,2.6,1.1,5.2,1.7,7.8
			l-14.1,3c-0.3,0.1-0.5,0.4-0.6,0.7c0,0.1,0,0.2,0,0.3c0,0.1,0.1,0.2,0.1,0.2c0,0,0.1,0.1,0.1,0.1c0.1,0.1,0.3,0.2,0.4,0.3
			c0,0,0.1,0,0.1,0c0,0,0.1,0,0.2,0.1l14.2-3c0.6,2.8,1.2,5.6,1.7,8.4l-14.1,2.8l0,0c0,0,0,0,0,0c-0.4,0-0.7,0.5-0.6,0.9
			c0,0,0,0,0,0c0,0.4,0.5,0.7,0.9,0.6l14.2-2.7c0.5,2.8,1.1,5.7,1.6,8.5l-14.1,2.5c-0.5,0-0.8,0.5-0.7,0.9c0.1,0.4,0.4,0.7,0.7,0.7
			c0.1,0,0.2,0,0.3,0l6.5-1.1l7.6-1.3c0.5,2.8,1,5.6,1.4,8.4l-14.2,2.3c-0.4,0-0.7,0.3-0.7,0.7c0,0.1,0,0.2,0,0.3
			c0,0.1,0,0.1,0.1,0.2c0,0,0,0,0,0.1c0.1,0.3,0.4,0.4,0.6,0.4c0.1,0,0.2,0,0.3,0l14.2-2.3c0.4,2.7,0.8,5.3,1.2,8l-21.1,3
			c-0.8,0.1-1.3,0.8-1.2,1.6c0,0,0,0,0,0c0,0,0,0.1,0,0.1c0.1,0.8,0.8,1.3,1.6,1.2l21.1-3c0.4,2.6,0.7,5.3,1,8l-14.3,1.7
			c-0.4,0.1-0.8,0.5-0.7,0.9c0,0,0,0,0,0c0,0.4,0.2,0.6,0.6,0.7c0,0,0,0,0.1,0c0,0,0,0,0,0c0.1,0,0.2,0,0.2,0l0.1,0l14.3-1.7
			c0.3,2.9,0.7,5.7,1,8.6l-12.4,1.3l-2,0.2c-0.4,0.1-0.7,0.5-0.7,0.9c0,0.1,0.1,0.3,0.2,0.4c0.1,0.2,0.3,0.3,0.6,0.3
			c0,0,0.1,0,0.2,0l14.3-1.5c0.3,2.9,0.6,5.7,0.8,8.6l-14.5,1.3c-0.4,0.1-0.7,0.5-0.7,0.9c0,0.1,0.1,0.3,0.2,0.4
			c0.1,0.2,0.3,0.3,0.6,0.3c0.1,0,0.1,0,0.2,0.1l14.3-1.3c0.2,2.8,0.5,5.6,0.7,8.5l-14.4,1c-0.4,0.1-0.7,0.5-0.7,0.9c0,0,0,0,0,0
			c0,0,0,0,0,0.1c0,0.3,0.3,0.7,0.7,0.7c0,0,0.1,0,0.1,0l14.4-1c0.2,2.7,0.4,5.3,0.5,8l-21.4,1.1c-0.7,0-1.3,0.7-1.3,1.5
			c0,0.3,0.1,0.5,0.3,0.8c0.2,0.3,0.6,0.6,1,0.6c0,0,0.1,0,0.4,0.1l21.1-1.1c0.1,2.6,0.2,5.2,0.3,7.9l-13.5,0.5l-0.8,0
			c-0.5,0-0.8,0.4-0.8,0.8c0,0.4,0.3,0.8,0.7,0.8c0,0,0.1,0.1,0.2,0.1l14.3-0.5c0.1,2.9,0.2,5.8,0.2,8.7l-12.4,0.2l-2,0
			c-0.5,0-0.8,0.4-0.8,0.8c0,0.5,0.4,0.8,0.8,0.8l0,0h0h0l14.4-0.3c0,2.9,0.1,5.8,0.1,8.7h-14.4c-0.4,0-0.8,0.4-0.8,0.8
			c0,0,0,0,0,0.1c0,0,0,0,0,0c0,0.4,0.4,0.8,0.8,0.8h14.4c0,2.9,0,5.7-0.1,8.6l-14.4-0.3c-0.4,0-0.8,0.4-0.8,0.8c0,0,0,0,0,0.1
			c0,0,0,0,0,0c0,0.4,0.3,0.8,0.7,0.8l14.5,0.3c0,2.6-0.1,5.3-0.2,7.9l-21.3-0.7c-0.8,0-1.5,0.6-1.5,1.4c0,0.3,0,0.6,0.2,0.9
			c0.2,0.4,0.7,0.7,1.2,0.7l21.3,0.7c-0.1,2.6-0.2,5.2-0.4,7.8l-14.4-0.7c-0.4,0-0.8,0.4-0.8,0.8c0,0,0,0,0,0.1c0,0,0,0,0,0
			c0,0.4,0.3,0.7,0.7,0.8l14.4,0.9c-0.2,2.8-0.3,5.6-0.5,8.4l-14.3-1c-0.5-0.1-0.9,0.3-0.9,0.7c0,0.2,0,0.3,0.1,0.4
			c0.1,0.3,0.3,0.6,0.7,0.6l14.3,1c-0.2,2.9-0.4,5.8-0.7,8.7l-14.3-1.2c-0.5-0.1-0.9,0.3-0.9,0.7c-0.1,0.5,0.3,0.9,0.7,0.9l14.4,1.3
			c-0.3,2.8-0.5,5.7-0.8,8.5l-14.4-1.5c-0.1,0-0.2,0-0.4,0c-0.3,0.1-0.5,0.4-0.5,0.7c0,0,0,0,0,0c-0.1,0.5,0.3,0.9,0.7,0.9
			c0,0,0,0,0,0l14.4,1.6c-0.3,2.6-0.6,5.1-0.9,7.7l-30.6-3.7c-0.9-0.1-1.7,0.5-1.8,1.4c-0.1,0.9,0.5,1.7,1.4,1.8l30.7,3.8
			c-0.3,2.6-0.7,5.2-1,7.8l-14.2-2c-0.4,0-0.8,0.3-0.9,0.7c0,0,0,0,0,0.1c0,0,0,0,0,0c0,0.4,0.3,0.8,0.7,0.9l14.2,2
			c-0.4,2.8-0.8,5.7-1.3,8.5l-14.2-2.2c-0.2,0-0.3,0.1-0.5,0.1c-0.3,0.1-0.6,0.3-0.6,0.7c0,0.4,0.3,0.8,0.7,0.9l14.4,2.2
			c-0.5,2.9-0.9,5.7-1.4,8.6l-14.2-2.5c-0.4,0-0.8,0.3-0.9,0.7c0,0.2,0.1,0.5,0.3,0.7c0.1,0.2,0.3,0.3,0.5,0.3l14.1,2.5
			c-0.5,2.8-1,5.6-1.6,8.3l-14.1-2.7c-0.4-0.1-0.8,0.2-0.9,0.6c0,0.1,0,0.2,0,0.3c0,0.3,0.3,0.6,0.6,0.7l14.1,2.7
			c-0.5,2.6-1,5.2-1.6,7.8l-20.6-4.4c-0.1,0-0.3,0-0.4,0c-0.7-0.1-1.3,0.4-1.5,1.1c-0.2,0.8,0.3,1.5,1.1,1.7l21,4.4
			c-0.6,2.6-1.1,5.1-1.7,7.7l-14.3-3.2c-0.5-0.1-0.9,0.2-1,0.6c0,0.1,0,0.2,0,0.4c0,0.4,0.3,0.7,0.6,0.7l14.3,3.3
			c-0.6,2.8-1.3,5.6-2,8.4l-14-3.5c-0.1,0-0.2,0-0.4,0c-0.4,0-0.8,0.2-0.8,0.6c-0.1,0.5,0.2,0.9,0.6,1l14.1,3.5
			c-0.7,2.8-1.4,5.6-2.2,8.4l-14-3.8c-0.1,0-0.2,0-0.3,0c-0.4,0-0.8,0.2-0.9,0.6c-0.1,0.4,0.2,0.9,0.6,1l14.1,3.8
			c-0.8,2.8-1.5,5.6-2.3,8.4l-14-4c-0.4-0.1-0.9,0.2-1,0.6c-0.1,0.3,0.1,0.7,0.3,0.9c0.1,0.1,0.2,0.2,0.4,0.2l13.8,3.9
			c-0.7,2.5-1.5,5-2.2,7.6l-20.4-6.2c-0.2-0.1-0.4-0.1-0.7-0.1c-0.6,0-1.2,0.3-1.3,1c-0.3,0.8,0.1,1.6,0.9,1.8l20.4,6.2
			c-0.8,2.6-1.6,5.1-2.4,7.7l-13.6-4.4c-0.4-0.2-0.9,0.1-1,0.5c-0.1,0.1-0.1,0.3,0,0.4c0,0.4,0.2,0.7,0.5,0.8l13.5,4.4
			c-0.9,2.7-1.8,5.4-2.7,8.1l-13.6-4.7c-0.4-0.2-0.9,0.1-1,0.5c-0.1,0.3,0,0.7,0.3,0.9c0.1,0.1,0.2,0.2,0.3,0.2l13.5,4.6
			c-0.9,2.7-1.9,5.4-2.9,8.2l-13.5-4.9c-0.3-0.1-0.6,0-0.9,0.3c-0.1,0.1-0.2,0.2-0.2,0.3c-0.1,0.4,0.1,0.8,0.5,1l13.5,4.9
			c-1,2.7-2,5.4-3,8.1l-13.4-5.2l0,0c-0.4-0.1-0.8,0.1-1,0.5c-0.1,0.4,0.1,0.8,0.5,1l0,0v0l13.3,5.2c-1,2.5-1.9,5-2.9,7.4l-1.4-0.5
			l-18.3-7.4c-0.8-0.3-1.6,0.1-1.9,0.8c-0.2,0.6,0,1.2,0.4,1.6c0.1,0.2,0.3,0.3,0.5,0.4l19.7,8c-1,2.4-2,4.8-3,7.2l-7.3-3.1
			l-5.8-2.5c-0.1-0.1-0.3-0.1-0.4-0.1c-0.4,0-0.6,0.2-0.8,0.5c-0.2,0.5,0,0.9,0.4,1.1l13.2,5.7c-1.1,2.6-2.2,5.2-3.4,7.8l-13.1-5.8
			c-0.4-0.2-0.9,0-1.1,0.4c-0.1,0.1-0.1,0.2-0.1,0.4c0,0.3,0.2,0.7,0.5,0.8l13.1,5.8c-1.2,2.6-2.4,5.2-3.6,7.8l-13.1-6
			c-0.3-0.1-0.5-0.1-0.8,0.1c-0.2,0.1-0.4,0.2-0.5,0.4c-0.2,0.4,0,0.9,0.4,1.1l13.2,6.1c-1.2,2.6-2.4,5.1-3.7,7.7l-13.1-6.4
			c-0.4-0.2-0.9,0-1.1,0.4c-0.1,0.1-0.1,0.2-0.1,0.4c0,0.3,0.2,0.7,0.5,0.8l13.1,6.3c-1.2,2.4-2.4,4.8-3.6,7.2l-19.1-9.7
			c-0.7-0.4-1.5-0.1-1.9,0.6c-0.1,0.2-0.2,0.5-0.2,0.7c-0.1,0.5,0.2,1.1,0.8,1.4l18.9,9.6c-1.2,2.4-2.4,4.7-3.7,7l-12.6-6.7
			c-0.4-0.2-0.9-0.1-1.1,0.3c-0.1,0.2-0.1,0.3-0.1,0.5c-0.1,0.3,0.1,0.7,0.4,0.8l12.6,6.7c-1.3,2.5-2.6,4.9-4,7.4l-12.6-6.9
			c-0.4-0.2-0.9-0.1-1.1,0.3c-0.1,0.2-0.1,0.3-0.1,0.5c-0.1,0.3,0.1,0.7,0.4,0.8l12.5,6.9c-1.4,2.5-2.8,5-4.3,7.5l-12.4-7.2
			c-0.4-0.2-0.9-0.1-1.1,0.3c-0.2,0.3-0.1,0.7,0.1,0.9c0.1,0.1,0.1,0.1,0.2,0.2l0.2,0.1l12.3,7.1c-1.4,2.5-2.9,5-4.4,7.4l-12.3-7.4
			c-0.4-0.2-0.9-0.1-1.1,0.3c-0.2,0.3-0.1,0.7,0.1,1c0.1,0.1,0.1,0.2,0.3,0.2l12.2,7.3c-1.4,2.3-2.7,4.5-4.1,6.8l-18.2-11.3
			c-0.7-0.4-1.6-0.2-2,0.5c-0.1,0.2-0.2,0.4-0.2,0.6c-0.1,0.6,0.2,1.2,0.7,1.5l18.1,11.2c-1.4,2.3-2.9,4.5-4.4,6.8l-11.9-7.7
			c-0.4-0.3-0.9-0.2-1.1,0.2c0,0.1-0.1,0.1-0.1,0.2c0,0,0,0,0,0c-0.3,0.4-0.2,0.9,0.2,1.1l11.9,7.7c-1.6,2.4-3.1,4.7-4.7,7.1
			l-11.8-7.9c-0.2-0.2-0.4-0.2-0.6-0.2c-0.2,0-0.5,0.1-0.6,0.4c-0.3,0.3-0.2,0.9,0.2,1.1l11.9,8c-1.6,2.4-3.3,4.8-4.9,7.2l-11.7-8.2
			c-0.1-0.1-0.2-0.1-0.3-0.2c-0.3-0.2-0.7-0.1-1,0.3c-0.3,0.3-0.2,0.8,0.2,1.1l11.8,8.3c-1.7,2.4-3.3,4.7-5,7l-11.7-8.5
			c-0.3-0.2-0.8-0.2-1.1,0.2c-0.2,0.3-0.2,0.8,0.2,1.1l0,0c0,0,0,0.1,0.1,0.1l11.6,8.4c-1.5,2.1-3.1,4.2-4.6,6.3l-24.4-18.4
			c-0.8-0.6-1.8-0.4-2.3,0.3c-0.6,0.8-0.4,1.8,0.3,2.3l24.6,18.5c-1.6,2.1-3.2,4.1-4.8,6.2l-11.3-8.8c-0.3-0.3-0.8-0.2-1.1,0.1
			c0,0,0,0,0,0.1c0,0,0,0-0.1,0c-0.3,0.3-0.3,0.8,0.1,1.1l11.4,8.9c-1.8,2.3-3.6,4.5-5.4,6.8l-7.6-6.1l-3.6-2.9
			c-0.3-0.3-0.8-0.2-1.1,0.1c-0.3,0.3-0.2,0.8,0.1,1.1l0.1,0.1c0,0,0,0,0,0l11.1,9c-1.8,2.2-3.7,4.5-5.5,6.7l-11-9.1
			c-0.2-0.2-0.4-0.2-0.6-0.2c-0.2,0-0.5,0.1-0.6,0.3c-0.3,0.3-0.2,0.8,0.1,1.1l11,9.2c-1.9,2.2-3.7,4.4-5.6,6.6l-10.8-9.4
			c-0.2-0.2-0.4-0.2-0.6-0.2c-0.2,0-0.5,0.1-0.7,0.3c-0.3,0.3-0.2,0.8,0.1,1.1l10.9,9.4c-1.8,2-3.5,4.1-5.3,6.1l-15.8-14.3
			c-0.6-0.5-1.5-0.5-2,0.1c-0.3,0.3-0.4,0.7-0.4,1.1c0,0.4,0.1,0.8,0.5,1l15.8,14.3c-1.8,2-3.6,3.9-5.4,5.8l-10.4-9.7
			c-0.2-0.2-0.4-0.2-0.6-0.2c-0.2,0-0.4,0.1-0.6,0.2c-0.3,0.3-0.3,0.8,0,1.1l10.5,9.8c-2,2.1-3.9,4.2-5.9,6.2l-10.3-10
			c-0.3-0.3-0.7-0.3-1-0.1c-0.1,0-0.2,0.1-0.3,0.2c-0.3,0.3-0.3,0.8,0,1.1l10.4,10c-2,2.1-4,4.1-6.1,6.2l-10.2-10.2
			c-0.3-0.3-0.8-0.3-1.1,0c-0.2,0.2-0.2,0.4-0.2,0.6c0,0.2,0.1,0.4,0.2,0.6l10.2,10.2c-2,2-4.1,4-6.1,6l-9.8-10.1l-0.3-0.3
			c0,0,0,0,0,0l-0.1-0.1c-0.3-0.3-0.8-0.3-1.1,0c-0.3,0.3-0.3,0.8,0,1.1l10.1,10.5c-1.9,1.8-3.8,3.7-5.7,5.5l-14.6-15.6
			c-0.5-0.6-1.4-0.6-2-0.1c-0.2,0.1-0.3,0.3-0.4,0.5c-0.3,0.5-0.2,1.2,0.2,1.7l14.5,15.5c-1.9,1.8-3.9,3.6-5.9,5.4l-9.5-10.5
			c0,0,0,0,0,0l-0.1-0.1c-0.3-0.4-0.8-0.4-1.1-0.1c-0.4,0.3-0.4,0.8-0.1,1.1l1.8,1.9l7.8,8.7c-2.2,1.9-4.3,3.9-6.5,5.8l-9.3-10.7
			c-0.2-0.2-0.4-0.3-0.6-0.3c-0.2,0-0.4,0-0.6,0.2c-0.4,0.3-0.4,0.8-0.1,1.1l9.4,10.8c-2.2,1.9-4.4,3.8-6.6,5.6l-9.2-11l0,0v0
			c-0.3-0.3-0.8-0.4-1.1-0.1c-0.3,0.3-0.4,0.8-0.1,1.1l0.2,0.3l9,10.7c-2.2,1.9-4.4,3.7-6.7,5.5l-9-11.1c-0.2-0.3-0.8-0.4-1.1-0.1
			c0,0,0,0.1-0.1,0.1c0,0,0,0,0,0c-0.3,0.2-0.4,0.8-0.1,1.1l9,11.1c-2.1,1.7-4.1,3.3-6.2,5l-13.2-16.8c-0.5-0.6-1.4-0.7-2-0.2
			c-0.3,0.3-0.5,0.6-0.5,1c0,0.4,0.1,0.8,0.3,1.1l13.1,16.7c-2.1,1.7-4.3,3.3-6.4,4.9l-3.9-5.2l-4.6-6.2c-0.1-0.1-0.1-0.2-0.2-0.3
			c-0.2-0.3-0.6-0.3-1,0c-0.4,0.2-0.5,0.7-0.2,1.1l8.6,11.5c-2.3,1.7-4.7,3.5-7,5.2l-8.4-11.6c-0.2-0.4-0.7-0.5-1.1-0.2
			c-0.4,0.2-0.5,0.7-0.2,1.1l0,0c0,0.1,0,0.1,0.1,0.2l8.3,11.4c-2.3,1.7-4.7,3.4-7,5l-8.2-11.7c-0.2-0.4-0.7-0.5-1.1-0.2
			c-0.2,0.1-0.3,0.3-0.4,0.6c0,0.2,0,0.4,0.2,0.6l8.2,11.7c-2.4,1.6-4.7,3.3-7.1,4.9l-8-11.8l0,0c-0.2-0.4-0.7-0.4-1.1-0.2
			c-0.2,0.1-0.3,0.3-0.3,0.5c0,0.2,0,0.4,0.1,0.6l8,11.9c-2.2,1.5-4.4,3-6.7,4.4l-11.6-17.9c-0.5-0.6-1.3-0.8-2-0.4
			c0,0-0.1,0.1-0.1,0.1c0,0,0,0,0,0c-0.6,0.5-0.8,1.3-0.4,2l11.6,17.9c-2.2,1.4-4.4,2.8-6.6,4.2l-7.6-12.1c-0.2-0.3-0.5-0.4-0.8-0.4
			c-0.1,0-0.3,0-0.4,0.1c-0.4,0.2-0.5,0.7-0.3,1.1l7.6,12.2c-2.4,1.5-4.9,3-7.3,4.5l-7.4-12.3c-0.2-0.4-0.7-0.5-1.1-0.3
			c-0.3,0.2-0.4,0.5-0.4,0.8c0,0.1,0,0.3,0.1,0.4l7.4,12.2c-2.4,1.5-4.9,2.9-7.4,4.3l-7.2-12.5c-0.2-0.4-0.7-0.5-1.1-0.3
			c-0.1,0.1-0.2,0.1-0.3,0.2c-0.3,0.2-0.3,0.6-0.1,1l7.2,12.4c-2.5,1.4-5,2.8-7.5,4.2l-7-12.6c-0.2-0.3-0.5-0.4-0.8-0.4
			c-0.2,0-0.3,0-0.5,0.1c-0.4,0.2-0.5,0.7-0.3,1.1l7,12.6c-2.3,1.3-4.6,2.5-6.9,3.8l-10-18.8c-0.3-0.7-1.2-1-1.9-0.6
			c0,0-0.1,0-0.1,0.1c0,0-0.1,0-0.1,0c-0.7,0.3-1,1.2-0.6,1.9l10,18.8c-2.3,1.2-4.6,2.4-6.9,3.6l-6.5-12.7c-0.2-0.3-0.5-0.5-0.8-0.5
			c-0.1,0-0.3,0-0.4,0.1c-0.4,0.2-0.6,0.7-0.4,1.1l6.5,12.8c-2.6,1.3-5.1,2.6-7.7,3.8l-6.3-12.8c-0.2-0.3-0.5-0.5-0.8-0.5
			c-0.1,0-0.3,0-0.4,0.1c-0.4,0.2-0.6,0.7-0.4,1.1l6.3,12.9c-2.5,1.2-5.1,2.4-7.6,3.6l-6.1-13c-0.2-0.3-0.5-0.5-0.8-0.5
			c-0.1,0-0.3,0-0.4,0.1c-0.4,0.2-0.6,0.7-0.4,1.1l6.1,13.1c-2.6,1.2-5.2,2.4-7.8,3.6l-5.9-13.2c-0.2-0.4-0.7-0.6-1.1-0.4
			c-0.3,0.2-0.5,0.5-0.5,0.8c0,0.1,0,0.3,0.1,0.4l5.8,13.1c-2.4,1.1-4.8,2.1-7.2,3.1l-11.9-28c-0.3-0.9-1.3-1.2-2.1-0.9
			c-0.9,0.3-1.2,1.3-0.9,2.1l12,28.2c-2.4,1-4.9,2-7.3,3l-5.4-13.4c-0.1-0.4-0.6-0.6-1-0.4c-0.3,0.1-0.5,0.4-0.5,0.7
			c0,0.1,0,0.3,0.1,0.4l5.3,13.3c-2.7,1.1-5.4,2.2-8.1,3.2l-5.2-13.4c-0.1-0.4-0.4-0.6-0.7-0.6c-0.1,0-0.2,0-0.4,0.1
			c-0.5,0.1-0.7,0.6-0.5,1l5.2,13.5c-2.7,1-5.4,2-8,3l-5-13.6c-0.1-0.4-0.6-0.7-1-0.5c-0.3,0.1-0.6,0.4-0.6,0.7c0,0.1,0,0.2,0.1,0.4
			l4.2,11.5l0.7,2.1c-2.7,1-5.5,2-8.2,2.9l-4.8-13.7c-0.1-0.4-0.5-0.5-0.9-0.5c-0.1,0-0.2,0-0.3,0c-0.4,0.1-0.6,0.6-0.5,1l4.8,13.8
			c-2.5,0.9-5,1.7-7.5,2.5l-6.6-20.3c-0.2-0.6-0.8-0.9-1.3-0.9c-0.2,0-0.4,0-0.6,0c-0.7,0.2-1.1,1.1-0.9,1.8l6.6,20.3
			c-2.5,0.8-5.1,1.6-7.6,2.4l-4.3-13.9c-0.1-0.3-0.4-0.5-0.7-0.5c-0.1,0-0.2,0-0.3,0c-0.4,0.1-0.6,0.6-0.5,1l0,0l4.2,13.9
			c-2.7,0.8-5.5,1.7-8.3,2.5l-4-14c-0.1-0.5-0.6-0.7-1-0.6c-0.4,0.1-0.6,0.5-0.6,0.9c0,0.1,0,0.2,0,0.3l3.9,13.8
			c-2.7,0.8-5.5,1.5-8.3,2.3l-3.8-14c-0.1-0.5-0.6-0.7-1-0.6c-0.2,0-0.3,0.1-0.4,0.2c-0.3,0.2-0.4,0.6-0.3,0.9l3.8,14
			c-2.8,0.7-5.5,1.4-8.3,2.1l-3.5-14c-0.1-0.3-0.4-0.5-0.7-0.6c-0.1,0-0.2,0-0.3,0c-0.4,0.1-0.7,0.6-0.6,1l0.2,0.7l3.3,13.3
			c-2.6,0.6-5.2,1.3-7.8,1.9l-4.8-20.8c-0.2-0.7-0.7-1.2-1.4-1.1c-0.1,0-0.2,0-0.4,0c-0.8,0.2-1.3,0.9-1.1,1.7l4.8,20.8
			c-2.6,0.6-5.1,1.1-7.7,1.7L920.5,1362.6z M1220.9,239.8l-65.3,86.6c-13.3-10-27.1-19.5-41.3-28.4c-0.1-0.2-0.3-0.3-0.5-0.5
			c-14.5-9-29.5-17.6-44.6-25.3c-0.1-0.1-0.2-0.2-0.4-0.3c-15.3-7.8-31.1-15.1-47-21.5c-0.3-0.1-0.5-0.1-0.7-0.1
			c-15.4-6.3-31.3-11.9-47.1-16.8c-0.1-0.2-0.4-0.5-0.7-0.6c-16.5-5-33.3-9.3-50.1-12.9c-0.2,0-0.4,0-0.5,0
			c-16.2-3.5-32.9-6.2-49.5-8.3l13.2-107.4C1012.2,120.1,1126.2,168.4,1220.9,239.8z M884.5,104.3l-13.2,107.6
			c-16.6-2-33.6-3.4-50.4-4c0,0,0,0-0.1,0c-17.2-0.6-34.6-0.5-51.7,0.4c0,0,0,0,0,0c0,0,0,0-0.1,0c-17.2,0.9-34.5,2.5-51.5,4.9
			c-0.1,0-0.2,0.1-0.3,0.2c-16.7,2.4-33.5,5.4-49.9,9.2c-0.2,0-0.3,0-0.5,0c-16.8,3.8-33.5,8.5-49.8,13.8c0,0,0,0,0,0
			c-16,5.1-31.9,11.2-47.6,17.8L527,154.6C636.2,108.2,758.5,89,884.5,104.3z M525.3,155.3l42.3,99.7c-15.5,6.6-30.9,14-45.8,21.8
			c-0.1,0-0.3,0.1-0.4,0.3c-15,8-29.8,16.7-44.1,25.9c-0.1,0.1-0.2,0.2-0.3,0.3c-14.1,9.2-28.1,19.2-41.4,29.5
			c-0.1,0.1-0.3,0.1-0.4,0.2c-13.3,10.5-26.5,21.6-38.8,33.2c-0.2,0.1-0.4,0.2-0.6,0.3c-12.6,11.8-24.7,24.2-36.2,36.9c0,0,0,0,0,0
			c-11.2,12.5-22,25.6-32.3,39.2l-86.4-65.1C314.7,280.2,413,203.4,525.3,155.3z M239.8,379l86.6,65.2
			c-10.1,13.5-19.8,27.5-28.7,41.8c0,0,0,0,0,0c-9,14.4-17.5,29.3-25.2,44.4c-0.2,0.1-0.3,0.3-0.4,0.5c-7.8,15.3-15.1,31.1-21.5,47
			c-0.1,0.3-0.1,0.5-0.1,0.7c-6.3,15.5-12,31.5-16.9,47.5c-0.1,0.1-0.2,0.3-0.2,0.5c-5,16.4-9.3,33.2-12.9,49.9c0,0,0,0.1,0,0.1
			c-3.5,16.4-6.3,33.3-8.4,50.1l-107.6-13.3C120.1,587.7,168.4,473.7,239.8,379z M104.2,715.5l107.7,13.3c-2,16.5-3.4,33.2-4,49.9
			c-0.1,0.2-0.1,0.4-0.1,0.6c-0.6,17.2-0.5,34.6,0.4,51.7c0,0,0,0,0,0c0,0,0,0,0,0.1c0.9,17.2,2.5,34.5,4.9,51.5
			c0,0.1,0.1,0.2,0.2,0.3c2.4,16.9,5.5,33.9,9.3,50.5c0,0,0,0,0,0c3.8,16.8,8.5,33.5,13.8,49.8c0.1,0.2,0.2,0.4,0.3,0.5
			c5.1,15.8,11.1,31.5,17.6,47l-99.7,42.3C108.2,963.7,88.9,841.4,104.2,715.5z M155.3,1074.6l99.9-42.4
			c6.5,15.4,13.8,30.6,21.6,45.4c0,0.2,0.1,0.3,0.2,0.5c8.1,15.2,16.9,30.2,26.2,44.6c9.3,14.2,19.3,28.3,29.6,41.6
			c0,0.2,0.1,0.4,0.3,0.6c10.5,13.4,21.8,26.7,33.4,39.1c0,0,0,0.1,0.1,0.1c11.7,12.6,24.2,24.7,36.9,36.2c0,0,0,0,0.1,0.1
			c0,0,0,0,0,0c12.4,11.2,25.5,21.9,39,32.1l-65.2,86.5C280.1,1285.2,203.3,1186.9,155.3,1074.6z M378.9,1360.1l65.2-86.6
			c13.3,10,27.2,19.6,41.4,28.4c0.1,0.2,0.3,0.3,0.5,0.5c14.6,9.1,29.7,17.7,45,25.5c0.1,0,0.2,0,0.3,0.1
			c15.2,7.7,30.9,15,46.7,21.3c0.2,0.1,0.3,0.1,0.4,0.1c0.1,0,0.2,0,0.3,0c15.5,6.3,31.5,12,47.5,16.9c0.1,0.1,0.3,0.2,0.5,0.3
			c16.4,5,33.2,9.3,49.9,12.9c0,0,0.1,0,0.1,0c16.5,3.5,33.3,6.3,50.1,8.3l-13.2,107.6C587.6,1479.9,473.6,1431.6,378.9,1360.1z
			 M715.5,1495.8l13.2-107.7c16.7,2,33.6,3.4,50.5,4c0,0,0,0,0,0c0,0,0,0,0,0c0,0,0.1,0,0.1,0c0.2,0,0.4,0,0.5-0.1
			c16.8,0.6,33.9,0.5,50.6-0.4c0.1,0,0.1,0.1,0.2,0.1c0.1,0,0.2,0,0.2,0.1c17.2-0.9,34.5-2.5,51.5-4.9c0.1,0,0.2-0.1,0.3-0.2
			c16.9-2.4,33.9-5.5,50.5-9.3c0,0,0.1,0,0.1,0c16.7-3.8,33.5-8.5,49.8-13.8c0,0,0,0,0,0c16-5.1,31.9-11.2,47.5-17.7l42.3,99.6
			C963.7,1491.8,841.4,1511.1,715.5,1495.8z M1074.5,1444.7l-42.3-99.7c15.6-6.6,31-14,46-21.9c0.1,0,0.2-0.1,0.3-0.2
			c15-8,29.9-16.7,44.1-25.9c0.2-0.1,0.3-0.2,0.4-0.4c14.1-9.2,28-19.1,41.3-29.4c0.2,0,0.4-0.1,0.5-0.3
			c13.3-10.4,26.4-21.5,38.7-33.1c0.2-0.1,0.4-0.2,0.6-0.3c12.6-11.7,24.7-24.2,36.2-36.9c11.2-12.5,22-25.7,32.3-39.2l86.4,65.1
			C1285.2,1319.8,1186.9,1396.6,1074.5,1444.7z M1360.1,1221l-86.6-65.2c0,0,0-0.1,0-0.1c10-13.3,19.6-27.2,28.4-41.3
			c0.1-0.1,0.3-0.2,0.3-0.4c9-14.4,17.5-29.3,25.2-44.4c0.2-0.1,0.4-0.2,0.5-0.4c7.8-15.3,15.1-31.1,21.5-47c0.2-0.3,0.1-0.7,0-1
			c6.3-15.4,11.9-31.2,16.7-47.1c0.3-0.1,0.5-0.4,0.6-0.8c5-16.5,9.3-33.3,12.9-50.1c0-0.2,0-0.4,0-0.5c3.5-16.2,6.2-32.9,8.3-49.5
			l107.4,13.2C1479.9,1012.3,1431.6,1126.3,1360.1,1221z M1495.7,884.5l-107.6-13.2c2-16.7,3.4-33.6,4-50.5c0-0.2,0-0.4-0.1-0.5
			c0.6-16.8,0.5-33.8-0.4-50.5c0.1-0.2,0.2-0.4,0.2-0.7c-0.9-17.2-2.5-34.5-4.9-51.5c0-0.1-0.1-0.2-0.1-0.3
			c-2.4-16.9-5.5-34-9.4-50.6c-0.1-0.2-0.1-0.4-0.3-0.6c-3.8-16.4-8.4-32.9-13.6-49c0-0.1,0-0.2-0.1-0.4
			c-5.1-16-11.2-31.9-17.7-47.5l99.5-42.2C1491.7,636.2,1511,758.5,1495.7,884.5z"/>
		<path class="st2" d="M168.6,545c0.3,1.4,1.6,2.2,3,1.9c1.4-0.3,2.2-1.6,1.9-3c0-0.1-1.3-6.6,2.1-10.8c2.1-2.6,5.7-3.9,10.6-3.9
			c2.5,0,4.6,0.9,6.5,2.8c6.3,6.2,9.6,21.9,9.9,46.6c0,2.1,0,4.1,0,5.7v1.9c0,1.4,1.1,2.5,2.5,2.5c1.4,0,2.5-1.1,2.5-2.5v-1.9
			c0-1.7,0-3.6,0-5.7c0.1-24.7,3.3-40.4,9.5-46.7c1.9-1.9,4-2.9,6.5-2.9c4.9,0,8.5,1.3,10.6,3.8c3.4,4.2,2.2,10.8,2.2,10.8
			c-0.3,1.4,0.6,2.7,2,3c1.4,0.3,2.7-0.6,3-2c0.1-0.3,1.8-8.8-3.2-14.9c-3.1-3.8-7.9-5.7-14.4-5.7c-0.1,0-0.1,0-0.2,0
			c-3.8,0-7.2,1.5-10.1,4.4c-3.9,3.9-6.7,10.6-8.5,19.8c-1.9-9.2-4.8-15.8-8.7-19.7c-2.9-2.9-6.3-4.3-10.1-4.3
			c-6.5,0-11.4,2-14.5,5.8C166.8,536.2,168.6,544.7,168.6,545z"/>
		<path class="st2" d="M138.3,899.9c0.1,11.2,9.1,20.2,20.3,20.2h0.1c11.2-0.1,20.2-9.2,20.2-20.4c0-7.5-4.3-14.4-10.9-17.9
			c4.2-2.8,6.4-7.3,8-10.6l0.1-0.1c0.2-0.4,0.4-0.9,0.6-1.3c3.5-7.1,9.9-6.1,10.6-5.9c0.7,0.1,1.3,0,1.9-0.3c0.6-0.4,1-0.9,1.1-1.6
			c0.1-0.7,0-1.3-0.4-1.9c-0.4-0.6-0.9-1-1.6-1.1c-3.7-0.8-11.8,0-16.1,8.6c-0.2,0.5-0.5,0.9-0.7,1.4c-2.5,5.1-5,10.4-13,10.5h-0.1
			c-7.9,0-10.5-5.3-13-10.4c-0.2-0.5-0.5-1-0.7-1.4c-4.4-8.6-12.5-9.3-16.2-8.5c-1.4,0.3-2.2,1.7-1.9,3c0.3,1.4,1.7,2.2,3,1.9
			c0.3-0.1,6.9-1.4,10.6,5.8c0.2,0.4,0.4,0.9,0.7,1.4c1.6,3.3,3.8,7.8,8.1,10.6C142.4,885.4,138.3,892.4,138.3,899.9z M158.6,884.6
			C158.6,884.6,158.6,884.6,158.6,884.6c8.5,0,15.3,6.8,15.3,15.2c0,4.1-1.6,7.9-4.4,10.8c-2.9,2.9-6.7,4.5-10.9,4.5
			c-4,0-7.8-1.6-10.7-4.4c-2.9-2.9-4.5-6.7-4.5-10.8s1.6-7.9,4.4-10.8C150.7,886.2,154.5,884.6,158.6,884.6z"/>
		<path class="st2" d="M314.6,1221.6c-4.1-0.8-8.5-1.4-13.2-1.8l-0.2-51c4.6-0.4,9-1,13.1-1.8c0.7-0.1,1.2-0.5,1.6-1.1
			c0.4-0.6,0.5-1.2,0.4-1.9c-0.3-1.4-1.6-2.2-3-2c-15.7,3.1-35.9,3.1-51.4,0.1c-1.4-0.2-2.7,0.6-2.9,2c-0.3,1.4,0.6,2.7,2,3
			c4.1,0.8,8.5,1.4,13.2,1.8l0.2,50.9c-4.7,0.4-9.1,1-13.1,1.8c-0.7,0.1-1.2,0.5-1.6,1.1c-0.4,0.6-0.5,1.2-0.4,1.9
			c0.1,0.7,0.5,1.2,1.1,1.6c0.4,0.3,0.9,0.4,1.4,0.4c0.2,0,0.3,0,0.5,0c4.2-0.8,8.9-1.5,13.8-1.9c0.3,0.1,0.6,0.2,0.9,0.2
			c0.4,0,0.8-0.1,1.2-0.3c6.6-0.4,13.2-0.4,19.8,0c0.3,0.2,0.7,0.2,1.1,0.2c0.2,0,0.5,0,0.7-0.1c5,0.4,9.7,1,14,1.8
			c0.2,0,0.3,0,0.5,0c1.2,0,2.2-0.9,2.5-2C316.9,1223.2,316,1221.9,314.6,1221.6z M279.4,1219.5l-0.2-50.2c3,0.2,6,0.2,8.9,0.2
			c2.6,0,5.3-0.1,8.1-0.3l0.2,50.3C290.7,1219.2,285,1219.2,279.4,1219.5z"/>
		<path class="st2" d="M582.2,1383.4c-7.9,0-14.3,6.5-14.2,14.3c0,6.7,4.6,12.3,10.9,13.8c-7.5,3.5-26.9,10.2-52.1,1.7
			c-0.6-0.2-1.3-0.2-1.9,0.1c-0.6,0.3-1.1,0.8-1.3,1.5c-0.2,0.6-0.2,1.3,0.1,1.9s0.8,1.1,1.5,1.3c8.4,2.8,17.2,4.3,26.1,4.3
			c0.1,0,0.3,0,0.4,0c20.8-0.1,38-8.4,42-16.1c1.9-2.5,2.9-5.5,2.9-8.6C596.4,1389.8,590.1,1383.4,582.2,1383.4z M588.8,1404.1
			c-1.7,1.7-4,2.7-6.5,2.7c-2.4,0-4.7-0.9-6.5-2.7c-1.7-1.7-2.7-4-2.7-6.5c0-5.1,4.1-9.2,9.2-9.2c2.4,0,4.7,0.9,6.5,2.7
			c1.7,1.7,2.7,4,2.7,6.5C591.4,1400.1,590.5,1402.4,588.8,1404.1z"/>
		<path class="st2" d="M534.4,1404.7c3.9,0,7.4-1.5,10.1-4.2c2.7-2.7,4.1-6.3,4.1-10.1c0-6.7-4.6-12.3-10.9-13.8
			c7.5-3.5,26.9-10.2,52.1-1.7c0.6,0.2,1.3,0.2,1.9-0.1c0.6-0.3,1.1-0.8,1.3-1.5c0.2-0.6,0.2-1.3-0.1-1.9s-0.8-1.1-1.5-1.3
			c-32.9-11-63,1.3-68.5,11.8c-1.9,2.5-2.9,5.5-2.8,8.6c0,3.8,1.5,7.4,4.2,10C527.1,1403.2,530.6,1404.7,534.4,1404.7z
			 M534.4,1381.3c2.5,0,4.8,0.9,6.5,2.7c1.7,1.7,2.7,4,2.7,6.5s-0.9,4.8-2.7,6.5s-4,2.7-6.5,2.7s-4.8-0.9-6.5-2.7
			c-1.7-1.7-2.7-4-2.7-6.5C525.2,1385.4,529.3,1381.3,534.4,1381.3z"/>
		<path class="st2" d="M913.9,1462.9c-0.7,0-1.3,0.3-1.8,0.7c-0.5,0.5-0.7,1.1-0.7,1.8c0,5.8-3.3,8-6.1,8.1c-3,0.2-6.2-1.8-6.6-6
			c-0.5-5.4,1.4-10.8,3.7-17.7c2.7-7.8,6.1-17.6,6.6-30.4c0.5-13.4-7.7-18.6-14.9-18.9c-8.9-0.5-18.9,6-19.6,16.4
			c-0.7,9.9,2.2,18,4.9,24.5c-1.7-0.7-3.5-1-5.4-1c-7.8,0-14.2,6.4-14.1,14.3c0,7.8,6.4,14.1,14.2,14.1c0,0,0,0,0.1,0
			c3.8,0,7.3-1.5,10-4.2s4.1-6.3,4.1-10.1c0-0.3,0-0.6,0-0.9c-0.1-3.8-1.7-7.8-3.5-12.5c-2.7-6.8-5.8-14.4-5.2-24
			c0.5-7.4,7.8-12,14.3-11.7c6.7,0.3,10.4,5.5,10.1,13.7c-0.5,12.1-3.6,21-6.3,29c-2.5,7.1-4.6,13.3-4,19.8
			c0.7,6.9,6.2,10.5,11.3,10.5c0.2,0,0.4,0,0.5,0c5.5-0.3,10.9-4.4,10.9-13.2c0-0.5-0.3-1.1-0.7-1.6
			C915.2,1463.1,914.6,1462.9,913.9,1462.9z M883.2,1454.6c0,5.1-4.1,9.2-9.2,9.3c-2.4,0-4.7-0.9-6.4-2.7c-1.7-1.7-2.7-4-2.7-6.5
			c0-5.1,4.1-9.2,9.1-9.2S883.1,1449.6,883.2,1454.6z"/>
		<path class="st2" d="M1235.2,1293.5c0-7.6-4.6-11.8-4.8-12c-0.7-0.6-1.6-0.8-2.4-0.5c-2.2,0.7-4.1,1.6-5.7,2.7v-0.5
			c0-8.3-5-12.9-5.2-13.1c-0.7-0.6-1.6-0.8-2.4-0.5c-4.7,1.4-8,4.2-10.1,6.6c-1.5-3.8-3.8-5.9-3.9-6c-0.7-0.6-1.6-0.8-2.4-0.5
			c-4.7,1.4-8,4.2-10.1,6.6c-1.5-3.8-3.8-5.9-3.9-6c-1-0.9-2.6-0.8-3.6,0.2c-0.9,1-0.8,2.6,0.2,3.6c0,0,3.3,3.1,3.5,8.7v0.2
			c0,0.1,0,0.3,0,0.4l0.2,43.3c0,1.4,1.1,2.5,2.5,2.5c1.4,0,2.5-1.1,2.5-2.5l-0.2-43.3v-0.1c0.8-1.6,3.4-6,8.7-8.2
			c1,1.4,2.4,3.9,2.6,7.6c0,0.1,0,0.1,0,0.2v0.1c0,0.1,0,0.3,0,0.4l0.2,43.3c0,0.7,0.3,1.3,0.7,1.8c0.5,0.5,1.1,0.7,1.8,0.7
			s1.3-0.3,1.8-0.7c0.5-0.5,0.7-1.1,0.7-1.8l-0.2-43.3v-0.1c0.8-1.6,3.4-6,8.7-8.2c1.1,1.5,2.6,4.2,2.6,8.3l0.2,39.2
			c-3.1,2.3-6.6,4.2-10.7,5.4c-1.3,0.4-2.1,1.8-1.6,3.2c0.3,1.1,1.3,1.8,2.4,1.8c0.3,0,0.5,0,0.7-0.1c3.4-1.1,6.5-2.5,9.3-4.2
			c0.2,3.2,1.3,5.6,3.1,7c1.2,0.9,2.6,1.4,4.2,1.4c0.8,0,1.7-0.1,2.6-0.4c0.7-0.2,1.2-0.6,1.5-1.2s0.4-1.3,0.3-1.9
			c0.1-0.9-0.3-1.5-0.9-1.8c-0.6-0.3-1.3-0.4-1.9-0.3c-1.2,0.3-2,0.3-2.5-0.1c-0.8-0.6-1.2-2.2-1.2-4.4v-2.3
			C1234,1314.4,1235.2,1299.4,1235.2,1293.5z M1222.4,1317.5l-0.1-26.2c0.2-0.7,1.3-3.3,5.6-5c0.9,1.3,2.2,3.7,2.2,7.2
			C1230.1,1299,1229.1,1309.3,1222.4,1317.5z"/>
		<path class="st2" d="M1431.9,1049.3l-60.4,0.3c-0.7,0-1.3,0.3-1.8,0.7c-0.5,0.5-0.7,1.1-0.7,1.8c0,1.4,1.1,2.5,2.5,2.5l60.4-0.3
			c1.4,0,2.5-1.1,2.5-2.5S1433.2,1049.3,1431.9,1049.3z"/>
		<path class="st2" d="M1371.4,1041.3l19.6-0.1c1.1,0,2-0.7,2.4-1.7c0.4-1,0-2.1-0.8-2.8c-3.4-2.7-5.3-6.7-5.3-11
			c0-3.8,1.5-7.4,4.1-10.1c2.7-2.7,6.3-4.2,10.1-4.2c0,0,0,0,0.1,0c7.8,0,14.2,6.4,14.3,14.2c0,4.3-1.9,8.4-5.2,11.1
			c-0.8,0.7-1.1,1.8-0.8,2.8c0.4,1,1.3,1.7,2.4,1.7l19.6-0.1c1.4,0,2.5-1.1,2.5-2.5c0-0.7-0.3-1.3-0.7-1.8c-0.5-0.5-1.1-0.7-1.8-0.7
			l-14,0.1c2-3.1,3.1-6.7,3.1-10.5c-0.1-10.6-8.7-19.2-19.3-19.2h-0.1c-5.1,0-10,2.1-13.6,5.7c-3.6,3.7-5.6,8.5-5.6,13.7
			c0,3.8,1.1,7.4,3.2,10.5l-14,0.1c-0.7,0-1.3,0.3-1.8,0.7c-0.5,0.5-0.7,1.1-0.7,1.8C1368.9,1040.2,1370,1041.3,1371.4,1041.3z"/>
		<path class="st2" d="M1469.3,723.5c-0.6-0.6-1.6-0.9-2.4-0.6l-6.7,1.8c-0.6,0.2-1.2,0.6-1.5,1.2c-0.3,0.5-0.4,1-0.3,1.5
			c-2.2-0.8-3.6-3.1-3.6-5.9l-0.2-41.3c0-7.9-4.8-12.2-5-12.4c-0.7-0.6-1.5-0.8-2.4-0.5c-4.4,1.3-7.4,3.9-9.3,6
			c-1.4-3.5-3.5-5.4-3.6-5.4c-0.7-0.6-1.5-0.8-2.4-0.5c-4.4,1.3-7.4,3.9-9.3,6c-1.4-3.5-3.5-5.4-3.6-5.4c-1-0.9-2.6-0.8-3.6,0.2
			c-0.9,1-0.8,2.6,0.2,3.6c0,0,3,2.8,3.3,8.1h0.6l-0.6,0.1v0.2c0,0.1,0,0.2,0,0.4l0.2,40.6c0,1.4,1.1,2.5,2.5,2.5
			c1.4,0,2.5-1.1,2.5-2.5l-0.2-40.6v-0.1c0.7-1.4,3.1-5.5,7.9-7.5c0.9,1.3,2.2,3.6,2.4,6.9c0,0.1,0,0.1,0,0.2v0.1c0,0.1,0,0.2,0,0.4
			l0.2,40.6c0,1.4,1.1,2.5,2.5,2.5c1.4,0,2.5-1.1,2.5-2.5l-0.2-40.6v-0.1c0.7-1.4,3.1-5.5,7.9-7.5c1,1.4,2.4,3.9,2.4,7.6l0.2,41.3
			c0,5,2.7,9.1,6.9,10.6c1,0.4,2.1,0.5,3.2,0.5c1.1,0,2.3-0.2,3.4-0.6c0,0.4,0.1,0.9,0.3,1.2c0.3,0.6,0.9,1,1.5,1.2
			c0.2,0.1,0.4,0.1,0.6,0.1c1.1,0,2.1-0.8,2.4-1.9l1.8-6.7C1470.2,725,1470,724.1,1469.3,723.5z"/>
		<path class="st2" d="M1289,430.7c0.7,0,1.3-0.3,1.8-0.7l16.8-17l11.7,11.6c0.5,0.5,1.1,0.7,1.8,0.7c0.7,0,1.3-0.3,1.8-0.7
			c1-1,1-2.6,0-3.6l-11.7-11.6l26.9-27.2l3,18.2c0.2,1.2,1.2,2.1,2.5,2.1c0.1,0,0.3,0,0.4,0c0.7-0.1,1.2-0.5,1.6-1
			c0.3-0.6,0.5-1.3,0.4-1.9l-3.8-23.2v-0.1c0-0.1-0.1-0.2-0.1-0.3c0-0.1,0-0.1-0.1-0.1c0-0.1-0.1-0.2-0.2-0.3l-0.1-0.1
			c-0.1-0.1-0.2-0.2-0.3-0.4c-0.1-0.1-0.2-0.2-0.3-0.3c0,0-0.1,0-0.1-0.1c-0.1-0.1-0.2-0.1-0.3-0.2c0,0-0.1,0-0.1-0.1
			c-0.1,0-0.2-0.1-0.3-0.1c0,0-0.1,0-0.2,0l-23.1-3.6c-0.7-0.1-1.3,0.1-1.9,0.5c-0.5,0.4-0.9,1-1,1.7c-0.1,0.7,0.1,1.3,0.5,1.9
			c0.4,0.5,1,0.9,1.6,1l18.3,2.8l-26.9,27.2l-11.7-11.6c-1-1-2.6-1-3.6,0s-1,2.6,0,3.6l11.7,11.6l-16.8,17c-1,1-1,2.6,0,3.6
			C1287.7,430.5,1288.3,430.7,1289,430.7z"/>
		<path class="st2" d="M1019.6,172.2c2.3,0,4.2,0.8,5.9,2.6c5.8,5.7,8.8,20.2,9.1,42.9c0,2,0,3.9,0,5.4v1.8c0,1.4,1.2,2.5,2.5,2.5
			c1.4,0,2.5-1.1,2.5-2.5v-1.8c0-1.5,0-3.4,0-5.3c0.1-22.8,3-37.2,8.7-43c1.6-1.6,3.3-2.5,5.4-2.6c1.3,0.9,7.9,6.5,9.6,32.4
			c0.5,8,1.7,14.7,3.4,19.9c-0.2,0.9-0.3,1.7-0.4,2.6c-1.4,9-2.4,14.9-15.9,12.8c-1.4-0.2-2.7,0.7-2.9,2.1c-0.2,1.4,0.7,2.7,2.1,2.9
			c2,0.3,3.8,0.5,5.5,0.5h0.1c10.6-0.1,13.8-6.2,15.3-13.2c1.3,1.8,2.8,3.2,4.4,4.2c3.9,2.4,8.8,2.5,14,0.3c6.7-3.2,8.5-12.7,6-19.5
			c-2-5.7-7.6-10.7-17.2-7.9c-3.6,1-6.2,3-8,6.1c-0.6-3.3-1.1-7.1-1.3-11.3c-2.1-32.9-12.2-36.7-13.4-37c-0.2-0.1-0.5-0.1-0.7-0.1
			c-3.6,0-6.8,1.4-9.5,4.1c-3.5,3.5-6.1,9.4-7.8,17.6c-1.8-8.1-4.4-14-7.9-17.5c-2.7-2.7-5.9-4-9.5-4c-1.4,0-2.5,1.1-2.5,2.5
			c0,0.7,0.3,1.3,0.7,1.8C1018.3,172,1018.9,172.2,1019.6,172.2z M1079.2,214.1c6.9-2,9.8,1.5,11,4.8c1.8,4.9,0.2,11.3-3.1,12.8
			c-3.7,1.5-6.9,1.6-9.4,0c-2.2-1.4-4.1-4-5.6-7.9C1073.1,218.8,1074.7,215.4,1079.2,214.1z"/>
		<path class="st2" d="M664.2,158.5c0.2,0.1,0.4,0.1,0.7,0.1c0.4,0,0.9-0.1,1.3-0.3l16.2-9.4l4.6,8.3l0.1,0.1
			c0.1,0.1,0.1,0.2,0.2,0.3l0.1,0.1c0.1,0.1,0.2,0.2,0.4,0.3c0.1,0.1,0.2,0.1,0.3,0.2l0.1,0.1c0.1,0.1,0.2,0.1,0.3,0.1h0.1
			c0.1,0,0.3,0.1,0.4,0.1h0.3h0.1c0.1,0,0.3,0,0.4-0.1c0.1,0,0.1,0,0.2,0c0.2,0,0.3-0.1,0.4-0.2l16.4-9.5l4.6,8.3l0.1,0.1
			c0.1,0.1,0.1,0.2,0.2,0.3l0.1,0.1c0.1,0.1,0.2,0.2,0.4,0.3c0.1,0.1,0.2,0.1,0.3,0.2l0.1,0.1c0.1,0.1,0.2,0.1,0.4,0.1
			c0.1,0,0.3,0.1,0.4,0.1h0.1h0.1h0.1c0.1,0,0.3,0,0.4-0.1c0.1,0,0.1,0,0.2,0c0.2,0,0.3-0.1,0.4-0.2l16.4-9.5l4.6,8.3
			c0.4,0.8,1.3,1.3,2.2,1.3c0.4,0,0.8-0.1,1.2-0.3c0.6-0.3,1-0.9,1.2-1.5c0.2-0.6,0.1-1.3-0.2-1.9l-5.9-10.5c-0.3-0.6-0.9-1-1.5-1.2
			c-0.7-0.2-1.3-0.1-1.9,0.2l-16.2,9.4L710,144c-0.3-0.6-0.9-1-1.5-1.2s-1.3-0.1-1.9,0.2l-16.2,9.4l-4.6-8.3c-0.3-0.6-0.9-1-1.5-1.2
			c-0.6-0.2-1.3-0.1-1.9,0.2L664,153.8c-1.2,0.7-1.6,2.2-0.9,3.4C663,157.9,663.5,158.3,664.2,158.5z"/>
		<path class="st2" d="M664.4,176.2c0.2,0.1,0.4,0.1,0.7,0.1c0.4,0,0.9-0.1,1.3-0.3l16.2-9.4l4.6,8.3l0.1,0.1
			c0.1,0.1,0.1,0.2,0.2,0.3l0.1,0.1c0.1,0.1,0.2,0.2,0.4,0.3c0.1,0.1,0.2,0.1,0.3,0.2l0.1,0.1c0.1,0.1,0.2,0.1,0.4,0.1
			c0.1,0,0.3,0.1,0.4,0.1c0.1,0,0.1,0,0.1,0h0.1h0.1c0.1,0,0.3,0,0.4-0.1c0.1,0,0.1,0,0.2,0c0.2,0,0.3-0.1,0.4-0.2l16.4-9.5l4.6,8.3
			v0.1c0.1,0.1,0.1,0.2,0.2,0.3l0.1,0.1c0.1,0.1,0.2,0.2,0.4,0.3c0.1,0.1,0.2,0.1,0.3,0.2h0.1c0.1,0.1,0.2,0.1,0.4,0.1
			c0.1,0,0.3,0.1,0.4,0.1h0.3h0.1c0.1,0,0.3,0,0.4,0c0.1,0,0.1,0,0.2,0c0.2,0,0.3-0.1,0.4-0.2l16.4-9.5l4.6,8.3
			c0.4,0.8,1.3,1.3,2.2,1.3c0.4,0,0.8-0.1,1.2-0.3c0.6-0.3,1-0.9,1.2-1.5c-0.1-0.5-0.2-1.2-0.5-1.8l-5.9-10.5
			c-0.3-0.6-0.9-1-1.5-1.2c-0.7-0.2-1.3-0.1-1.9,0.2l-16.2,9.4l-4.6-8.3c-0.3-0.6-0.9-1-1.5-1.2s-1.4-0.1-1.9,0.2l-16.2,9.4
			l-4.6-8.3c-0.3-0.6-0.9-1-1.5-1.2s-1.4-0.1-1.9,0.2l-18.4,10.7c-0.6,0.3-1,0.9-1.2,1.5s-0.1,1.3,0.3,1.9
			C663.2,175.6,663.8,176,664.4,176.2z"/>
		<path class="st2" d="M391,287.5h-5c-0.7,0-1.3,0.3-1.8,0.7c-0.5,0.5-0.7,1.1-0.7,1.8c0,0.7,0.3,1.3,0.7,1.8
			c0.5,0.5,1.1,0.7,1.8,0.7h5c-0.4,10.3-3.3,19.9-8,25.8c-0.4,0.5-0.6,1.2-0.5,1.9c0.1,0.7,0.4,1.3,0.9,1.7c0.4,0.4,1,0.5,1.6,0.5
			c0.8,0,1.5-0.4,2-1c5.4-6.8,8.7-17.4,9.1-28.9l14.1-0.1c0.5,11.6,3.9,22.1,9.4,28.8c0.5,0.6,1.2,0.9,2,0.9c0.6,0,1.1-0.2,1.6-0.6
			c0.5-0.4,0.8-1,0.9-1.7c-0.1-0.4-0.2-1.1-0.7-1.6c-4.7-5.8-7.8-15.4-8.3-25.7h5.3c0.7,0,1.3-0.3,1.8-0.7c0.5-0.5,0.7-1.1,0.7-1.8
			s-0.3-1.3-0.7-1.8c-0.5-0.5-1.1-0.7-1.8-0.7h-5.3c0.4-10.3,3.4-19.9,8-25.8c0.4-0.5,0.6-1.2,0.5-1.9c-0.1-0.7-0.4-1.3-0.9-1.7
			c-1.1-0.9-2.7-0.7-3.5,0.4c-5.4,6.8-8.7,17.4-9.1,28.9l-14.1,0.1c-0.5-11.6-3.9-22.1-9.4-28.8c-0.9-1.1-2.5-1.2-3.5-0.4
			c-1.1,0.9-1.2,2.5-0.4,3.5C387.4,267.6,390.5,277.2,391,287.5z"/>
	</g>
</g>
</svg>
