<?xml version="1.0" encoding="utf-8"?>
<!-- Generator: Adobe Illustrator 27.9.0, SVG Export Plug-In . SVG Version: 6.00 Build 0)  -->
<svg version="1.1" id="Ebene_1" xmlns="http://www.w3.org/2000/svg" xmlns:xlink="http://www.w3.org/1999/xlink" x="0px" y="0px"
	 viewBox="0 0 50 50" style="enable-background:new 0 0 50 50;" xml:space="preserve">
<style type="text/css">
	.st0{fill:#EBCF87;}
</style>
<path class="st0" d="M39.4,39.9c-0.9,0.5-1.3,1.7-0.8,2.7c0.3,0.4-0.3,2-1.7,2.9c-1.4,0.9-2.8,0.6-4-1c-1.4-1.9-0.4-5.8,0.6-9.8
	c0.4-1.5,0.8-3.1,1.1-4.7c1.4-6.9,0.3-11.8-3.3-14.5c-4.8-3.7-11.1-1.9-14.5-0.5v-4h4.7c1.1,0,1.9-0.8,1.9-1.9s-0.8-1.9-1.9-1.9
	h-4.7V1.9C16.9,0.8,16.1,0,15,0S13,0.8,13,1.9v5.2H9.5C8.4,7.1,7.5,8,7.5,9.1S8.4,11,9.5,11H13v25c0,1.1,0.8,1.9,1.9,1.9
	s1.9-0.8,1.9-1.9V19.3c1.7-0.8,8-3.8,12.1-0.7c2.3,1.7,2.9,5.3,1.8,10.6c-0.3,1.5-0.7,3-1.1,4.6c-1.3,5-2.5,9.7,0.1,13.2
	c1.7,2.2,3.6,3,5.5,3c1.4,0,2.7-0.5,3.7-1.2c2.6-1.7,4.5-5.3,3-8.1C41.5,39.8,40.3,39.4,39.4,39.9z"/>
</svg>
