<?xml version="1.0" encoding="utf-8"?>
<!-- Generator: Adobe Illustrator 27.9.0, SVG Export Plug-In . SVG Version: 6.00 Build 0)  -->
<svg version="1.1" id="Ebene_1" xmlns="http://www.w3.org/2000/svg" xmlns:xlink="http://www.w3.org/1999/xlink" x="0px" y="0px"
	 viewBox="0 0 50 50" style="enable-background:new 0 0 50 50;" xml:space="preserve">
<style type="text/css">
	.st0{fill:#EBCF87;}
</style>
<path class="st0" d="M36.8,17.2c0-2.3-0.7-4.5-1.9-6.3c1.9-1.8,3.6-4.8,1.9-9.6c-0.4-1.1-1.5-1.6-2.6-1.2c-1.1,0.4-1.6,1.5-1.2,2.6
	c1.1,2.9,0,4.5-0.9,5.2c-1.9-1.5-4.4-2.5-7.1-2.5c-2.6,0-5.1,0.9-7.1,2.5C17,7.2,16,5.7,17,2.8c0.4-1.1-0.2-2.2-1.2-2.6
	c-1.1-0.4-2.2,0.2-2.6,1.2C11.4,6,13.1,9.2,15,11c-1.1,1.9-1.9,4-1.9,6.3c0,5.7,4.1,10.6,9.7,11.5v8.9h-5.6c-1.1,0-2,0.9-2,2
	c0,1.1,0.9,2,2,2h5.6V48c0,1.1,0.9,2,2,2c1.1,0,2-0.9,2-2v-6.3h5.6c1.1,0,2-0.9,2-2c0-1.1-0.9-2-2-2h-5.6v-8.9
	C32.6,27.8,36.8,23,36.8,17.2z M17.4,17.2c0-4.2,3.4-7.6,7.6-7.6c4.2,0,7.6,3.4,7.6,7.6c0,4.2-3.4,7.6-7.6,7.6
	C20.9,24.9,17.4,21.4,17.4,17.2z"/>
</svg>
