<?xml version="1.0" encoding="utf-8"?>
<!-- Generator: Adobe Illustrator 27.9.0, SVG Export Plug-In . SVG Version: 6.00 Build 0)  -->
<svg version="1.1" id="Ebene_1" xmlns="http://www.w3.org/2000/svg" xmlns:xlink="http://www.w3.org/1999/xlink" x="0px" y="0px"
	 viewBox="0 0 50 50" style="enable-background:new 0 0 50 50;" xml:space="preserve">
<style type="text/css">
	.st0{fill:#EBCF87;}
</style>
<path class="st0" d="M45,7C45,7,45,6.9,45,7c0-0.1,0-0.1,0-0.2s0-0.1,0-0.2V6.5c0-0.1,0-0.1-0.1-0.2c0-0.1,0-0.1-0.1-0.2V6
	c0-0.1-0.1-0.1-0.1-0.2s-0.1-0.1-0.1-0.2c0,0,0-0.1-0.1-0.1l-0.1-0.1l-0.1-0.1l0,0l0,0l-0.1-0.1l-0.1-0.1c0,0,0,0-0.1,0S44,5,43.8,5
	c-0.1,0-0.1-0.1-0.2-0.1c0,0,0,0-0.1,0s-0.1,0-0.2-0.1h-0.1c0,0,0,0-0.1,0s-0.2,0-0.2,0h-0.1l0,0h-0.1l0,0L29.9,5.3
	c-1.3,0-2.3,1.1-2.2,2.4c0,1.3,1.1,2.2,2.3,2.2H30l7-0.3L25.7,20.9c-5.2-3.6-12.4-3.1-17,1.5c-5.2,5.2-5.2,13.6,0,18.8
	c2.6,2.6,6,3.9,9.4,3.9s6.8-1.3,9.4-3.9c4.6-4.6,5.1-11.8,1.5-17l11.3-11.3l-0.3,7c0,1.3,1,2.4,2.2,2.4h0.1c1.2,0,2.3-1,2.3-2.2
	l0.5-12.9C45,7.1,45,7.1,45,7L45,7z M24.1,37.8c-3.4,3.4-8.9,3.4-12.2,0c-3.4-3.4-3.4-8.9,0-12.2c1.7-1.7,3.9-2.5,6.1-2.5
	c2.2,0,4.4,0.8,6.1,2.5C27.5,29,27.5,34.5,24.1,37.8z"/>
</svg>
