<?xml version="1.0" encoding="utf-8"?>
<!-- Generator: Adobe Illustrator 27.9.0, SVG Export Plug-In . SVG Version: 6.00 Build 0)  -->
<svg version="1.1" id="Ebene_1" xmlns="http://www.w3.org/2000/svg" xmlns:xlink="http://www.w3.org/1999/xlink" x="0px" y="0px"
	 viewBox="0 0 50 50" style="enable-background:new 0 0 50 50;" xml:space="preserve">
<style type="text/css">
	.st0{fill:#EBCF87;}
</style>
<path class="st0" d="M40,34.6c3-3.1,6-7.3,6-13.8C46,9.4,36.6,0,25.2,0C25.1,0,25,0,25,0c-0.1,0-0.2,0-0.2,0C13.4,0,4,9.4,4,20.8
	c0,6.5,3,10.6,6,13.8c-3.4,0.9-6,4-6,7.6c0,4.4,3.5,7.8,7.8,7.8s7.8-3.5,7.8-7.8c0-1.9-0.6-3.5-1.8-4.9c0,0,0,0,0-0.1
	c-0.8-1-1.9-1.9-2.9-3c-3.2-3-7.3-6.7-7.3-13.5c0-9.4,7.7-17,17-17c0.1,0,0.2,0,0.2,0c0.1,0,0.2,0,0.2,0c9.4,0,17,7.7,17,17
	c0,6.8-4,10.5-7.3,13.5c-1.1,1-2.2,1.9-2.9,3c0,0,0,0,0,0.1c-1,1.4-1.8,3.1-1.8,4.9c0,4.4,3.5,7.8,7.8,7.8c4.4,0,7.8-3.5,7.8-7.8
	C46,38.5,43.4,35.5,40,34.6z M11.9,46.4c-2.3,0-4.1-1.9-4.1-4.1c0-2.3,1.9-4.1,4.1-4.1c2.3,0,4.1,1.9,4.1,4.1
	C16,44.5,14.1,46.4,11.9,46.4z M38.1,46.4c-2.3,0-4.1-1.9-4.1-4.1c0-2.3,1.9-4.1,4.1-4.1c2.3,0,4.1,1.9,4.1,4.1
	C42.2,44.5,40.3,46.4,38.1,46.4z"/>
</svg>
