<?xml version="1.0" encoding="utf-8"?>
<!-- Generator: Adobe Illustrator 27.9.0, SVG Export Plug-In . SVG Version: 6.00 Build 0)  -->
<svg version="1.1" id="Ebene_1" xmlns="http://www.w3.org/2000/svg" xmlns:xlink="http://www.w3.org/1999/xlink" x="0px" y="0px"
	 viewBox="0 0 50 50" style="enable-background:new 0 0 50 50;" xml:space="preserve">
<style type="text/css">
	.st0{fill:#EBCF87;}
</style>
<g id="fast">
	<g>
		<g>
			<path class="st0" d="M16.5,50c-2.1,0-4.3-0.3-6.4-0.9c-1-0.3-1.7-1.2-1.7-2.1c0-1,0.7-1.9,1.7-2.1c9-2.3,15.3-10.5,15.3-19.8
				S19,7.5,10.1,5.2C9.1,4.9,8.4,4,8.4,3c0-1.1,0.7-1.9,1.7-2.1C12.2,0.3,14.3,0,16.5,0c13.8,0,25.1,11.3,25.1,25.1
				C41.6,38.8,30.3,50,16.5,50z M19.4,4.6c6.4,4.6,10.4,12.1,10.4,20.3s-4,15.8-10.4,20.3c9.9-1.5,17.6-10,17.6-20.3
				S29.4,6,19.4,4.6z"/>
		</g>
	</g>
</g>
</svg>
