<?xml version="1.0" encoding="utf-8"?>
<!-- Generator: Adobe Illustrator 27.9.0, SVG Export Plug-In . SVG Version: 6.00 Build 0)  -->
<svg version="1.1" id="Ebene_1" xmlns="http://www.w3.org/2000/svg" xmlns:xlink="http://www.w3.org/1999/xlink" x="0px" y="0px"
	 viewBox="0 0 50 50" style="enable-background:new 0 0 50 50;" xml:space="preserve">
<style type="text/css">
	.st0{fill:#EBCF87;}
</style>
<path class="st0" d="M39.1,21.5c-2.1-1.6-3.5-5.1-3.5-8.8s1.4-7.2,3.5-8.8c0.9-0.7,1.1-2.1,0.4-3c-0.7-0.9-2.1-1.1-3-0.4
	c-2.7,2.1-4.5,5.8-4.9,10.1h-4.5V3.8c0-1.2-0.9-2.1-2.1-2.1c-1.2,0-2.1,0.9-2.1,2.1v6.7h-4.5C18,6.4,16.2,2.6,13.5,0.4
	c-0.9-0.7-2.3-0.5-3,0.4c-0.7,0.9-0.5,2.3,0.4,3c2.1,1.6,3.5,5.1,3.5,8.8s-1.4,7.2-3.5,8.8c-0.9,0.7-1.1,2.1-0.4,3
	c0.5,0.5,1,0.8,1.6,0.8c0.5,0,0.9-0.2,1.3-0.5c2.7-2.1,4.5-5.8,4.9-10.1h4.5v12.7c-5.3,1-9.3,5.6-9.3,11.2c0,6.3,5.1,11.4,11.4,11.4
	s11.4-5.1,11.4-11.4c0-5.5-4-10.2-9.3-11.2V14.7h4.5c0.5,4.2,2.3,7.9,4.9,10.1c0.4,0.3,0.8,0.5,1.3,0.5c0.6,0,1.3-0.3,1.6-0.8
	C40.2,23.5,40,22.2,39.1,21.5z M32.2,38.6c0,4-3.2,7.2-7.2,7.2s-7.2-3.2-7.2-7.2s3.2-7.2,7.2-7.2S32.2,34.6,32.2,38.6z"/>
</svg>
