<?xml version="1.0" encoding="utf-8"?>
<!-- Generator: Adobe Illustrator 27.9.0, SVG Export Plug-In . SVG Version: 6.00 Build 0)  -->
<svg version="1.1" id="Ebene_1" xmlns="http://www.w3.org/2000/svg" xmlns:xlink="http://www.w3.org/1999/xlink" x="0px" y="0px"
	 viewBox="0 0 50 50" style="enable-background:new 0 0 50 50;" xml:space="preserve">
<style type="text/css">
	.st0{fill:#EBCF87;}
</style>
<path class="st0" d="M45.9,7.9C45.9,3.5,42.3,0,38,0c-4.3,0-7.9,3.5-7.9,7.9c0,1.9,0.6,3.5,1.8,4.9c0,0,0,0,0,0.1
	c0.8,1,1.9,1.9,2.9,3c3.2,3,7.2,6.7,7.2,13.4c0,9.4-7.6,17-17,17c-0.1,0-0.2,0-0.2,0c-0.1,0-0.2,0-0.2,0c-9.4,0-17-7.6-17-17
	c0-6.8,4-10.5,7.2-13.4c1.1-1,2.2-1.9,2.9-3c0,0,0,0,0-0.1c1-1.4,1.8-3.1,1.8-4.9c0-4.3-3.5-7.9-7.8-7.9C7.5,0,4.1,3.5,4.1,7.9
	c0,3.7,2.5,6.8,6,7.6c-3,3.1-6,7.2-6,13.8C4.1,40.7,13.4,50,24.8,50c0.1,0,0.2,0,0.2,0c0.1,0,0.2,0,0.2,0c11.4,0,20.8-9.3,20.8-20.8
	c0-6.5-3-10.6-6-13.8C43.4,14.7,45.9,11.5,45.9,7.9z M7.7,7.9c0-2.3,1.9-4.1,4.1-4.1s4.1,1.9,4.1,4.1c0,2.3-1.9,4.1-4.1,4.1
	C9.5,12,7.7,10.1,7.7,7.9z M38,12c-2.3,0-4.1-1.9-4.1-4.1c0-2.3,1.9-4.1,4.1-4.1c2.3,0,4.1,1.9,4.1,4.1C42.1,10.1,40.3,12,38,12z"/>
</svg>
